<?xml version="1.0" standalone="no"?>
<!DOCTYPE svg PUBLIC "-//W3C//DTD SVG 20010904//EN"
 "http://www.w3.org/TR/2001/REC-SVG-20010904/DTD/svg10.dtd">
<svg version="1.0" xmlns="http://www.w3.org/2000/svg"
 width="348.000000pt" height="500.000000pt" viewBox="0 0 348.000000 500.000000"
 preserveAspectRatio="xMidYMid meet">

<g transform="translate(0.000000,500.000000) scale(0.100000,-0.100000)"
fill="#000000" stroke="none">
<path d="M0 4418 c0 -321 4 -577 8 -570 7 9 52 12 193 10 l184 -3 5 -47 c8
-64 -2 -78 -53 -78 -23 0 -48 -4 -55 -9 -10 -6 -13 -83 -12 -365 0 -233 -3
-363 -10 -376 -8 -16 -21 -20 -58 -20 -27 0 -53 5 -60 12 -9 9 -12 106 -12
373 0 267 -3 364 -12 373 -7 7 -33 12 -59 12 -29 0 -49 5 -52 13 -3 6 -6 -833
-6 -1865 l-1 -1878 1740 0 1740 0 0 2453 -1 2452 -195 -455 c-108 -250 -203
-463 -211 -472 -25 -28 -163 -26 -188 2 -16 18 -117 245 -376 848 l-74 172
-113 0 c-99 0 -117 -3 -139 -20 -24 -19 -41 -20 -258 -20 -220 0 -234 -1 -259
-21 -23 -18 -26 -28 -26 -79 0 -51 3 -61 26 -79 25 -19 40 -21 196 -21 166 0
169 0 193 -25 22 -21 25 -33 25 -97 0 -79 -3 -86 -40 -111 -21 -14 -51 -17
-190 -17 -161 0 -167 -1 -188 -23 -20 -21 -22 -34 -22 -129 0 -154 -12 -148
287 -148 l234 0 24 -25 c22 -21 25 -33 25 -97 0 -42 -6 -80 -13 -89 -28 -37
-49 -39 -407 -39 l-351 0 -24 25 -25 24 0 496 0 495 -100 0 -99 0 -3 -496 -3
-496 -29 -25 c-27 -23 -36 -25 -104 -21 -121 6 -112 -38 -112 544 l0 494 -315
0 -315 0 0 -371 c0 -222 4 -378 10 -389 16 -31 67 -40 221 -40 148 0 148 0
168 -26 30 -38 30 -150 0 -188 l-20 -26 -293 0 -293 0 -21 23 c-22 23 -22 24
-22 520 l0 497 -30 0 -30 0 0 -582z m3191 -479 c17 -12 29 -25 27 -29 -5 -14
-121 -100 -134 -100 -6 0 -22 9 -35 20 l-24 20 60 55 c33 30 64 55 68 55 5 0
22 -9 38 -21z m-2352 -85 c46 -19 106 -77 134 -129 21 -38 22 -52 22 -310 0
-258 -1 -272 -22 -310 -53 -98 -137 -150 -243 -149 -108 1 -195 58 -241 159
-16 35 -19 70 -19 301 l0 262 28 52 c65 125 211 178 341 124z m1019 11 c90
-27 161 -111 162 -191 0 -36 -13 -44 -68 -44 -46 0 -55 6 -72 48 -38 96 -190
69 -190 -34 0 -42 34 -82 102 -119 187 -100 258 -197 245 -336 -12 -141 -107
-228 -246 -229 -111 0 -188 53 -222 152 -24 73 -15 88 56 88 l54 0 19 -43 c34
-76 123 -89 176 -26 21 25 26 41 26 84 0 71 -28 104 -154 179 -110 66 -169
126 -185 193 -32 124 47 253 174 284 47 11 68 10 123 -6z m1087 -14 c59 -26
100 -65 129 -123 26 -52 26 -52 26 -312 0 -241 -2 -264 -21 -306 -43 -96 -132
-153 -239 -154 -106 -1 -190 51 -243 149 -21 38 -22 52 -22 310 0 258 1 272
22 310 40 76 108 127 198 149 32 7 106 -4 150 -23z m-1707 7 c9 -9 12 -105 12
-369 0 -197 3 -364 6 -373 5 -13 25 -16 113 -16 70 0 111 -4 119 -12 17 -17
15 -103 -2 -117 -9 -8 -68 -11 -187 -9 l-174 3 -3 439 c-1 316 1 443 9 452 14
17 91 18 107 2z m2106 -4 c14 -14 16 -67 16 -435 0 -271 -4 -427 -10 -440 -8
-15 -21 -19 -58 -19 -27 0 -53 5 -60 12 -9 9 -12 121 -12 445 0 401 1 433 18
442 26 16 89 13 106 -5z m-859 -4 c11 -18 14 -84 4 -102 -7 -13 -21 -18 -49
-18 -75 0 -70 29 -70 -379 0 -272 -3 -370 -12 -379 -7 -7 -33 -12 -58 -12 -25
0 -51 5 -58 12 -9 9 -12 106 -12 373 0 267 -3 364 -12 373 -7 7 -30 12 -53 12
-51 0 -65 13 -65 61 0 72 -8 69 195 69 116 0 186 -4 190 -10z m-1993 -987 c20
-23 338 -741 338 -764 0 -30 -25 -40 -92 -37 l-63 3 -30 63 c-17 34 -37 67
-45 72 -20 13 -301 13 -334 0 -18 -6 -34 -29 -55 -75 l-30 -65 -63 0 c-65 0
-88 10 -88 41 0 9 61 155 136 325 75 170 147 336 162 369 14 33 30 66 35 73
15 19 111 16 129 -5z m619 -5 c11 -13 91 -120 177 -238 87 -118 165 -215 173
-215 12 0 15 39 19 223 6 249 3 242 78 242 88 0 82 28 82 -395 0 -303 3 -375
13 -375 22 0 68 -55 61 -73 -8 -21 -28 -22 -44 -2 -11 14 -15 14 -32 -2 -15
-13 -23 -15 -36 -6 -9 6 -16 18 -14 26 2 12 -8 17 -45 19 l-48 3 -75 100 c-41
56 -119 161 -173 234 -54 73 -103 131 -110 128 -9 -3 -13 -61 -15 -222 -1
-141 -6 -223 -13 -232 -7 -8 -33 -13 -70 -13 -47 0 -60 4 -69 19 -6 13 -10
154 -10 392 0 427 -4 409 82 409 39 0 54 -5 69 -22z m799 12 c10 -5 33 -31 52
-57 266 -367 326 -441 329 -406 0 4 1 103 2 219 2 244 2 244 80 244 91 0 87
21 87 -403 0 -428 5 -407 -90 -407 l-56 0 -174 235 c-95 130 -178 234 -184
232 -7 -2 -13 -79 -16 -223 -3 -120 -9 -225 -13 -231 -11 -17 -119 -17 -135
-1 -9 9 -12 110 -12 392 0 339 2 381 17 398 18 20 82 25 113 8z m1163 -50 c15
-30 93 -203 173 -385 170 -386 168 -378 57 -373 l-68 3 -33 65 c-18 36 -41 68
-50 72 -9 4 -85 7 -167 7 -171 1 -180 -2 -210 -71 -31 -70 -41 -78 -105 -78
-43 0 -61 5 -74 19 -17 19 -11 34 144 388 89 202 168 378 176 391 13 20 22 23
72 20 l57 -3 28 -55z m-2401 -862 c9 -7 57 -105 106 -218 97 -220 98 -230 36
-230 -29 0 -36 5 -54 40 l-20 40 -99 0 -98 0 -18 -40 c-17 -37 -21 -40 -57
-40 -23 0 -41 5 -44 13 -6 15 173 428 190 439 17 11 40 9 58 -4z m1346 -48
c21 -26 63 -84 95 -129 33 -44 63 -81 68 -81 4 0 10 57 11 128 l3 127 40 0 40
0 0 -220 0 -220 -37 -3 c-37 -3 -38 -3 -134 127 -53 72 -101 131 -105 131 -5
0 -10 -57 -11 -127 l-3 -128 -34 -3 c-20 -2 -37 2 -42 10 -5 7 -9 107 -9 221
0 205 0 208 22 216 35 13 57 2 96 -49z m1168 52 c20 -12 197 -420 190 -437 -4
-12 -16 -15 -43 -13 -33 3 -40 8 -56 41 l-17 37 -100 0 -100 0 -20 -41 c-19
-37 -24 -40 -58 -37 -25 2 -38 8 -40 19 -4 20 173 419 190 431 16 10 39 10 54
0z m-3028 -69 c2 -35 7 -63 12 -63 5 0 35 29 66 65 54 61 60 65 101 65 70 0
66 -19 -26 -119 -44 -49 -81 -92 -81 -96 0 -4 36 -50 80 -103 44 -53 79 -104
78 -112 -2 -10 -17 -16 -44 -18 -39 -3 -43 0 -103 68 -34 38 -66 70 -71 70 -5
0 -10 -30 -12 -67 l-3 -68 -40 0 -40 0 -3 210 c-1 115 0 215 3 223 3 9 18 12
42 10 l38 -3 3 -62z m1043 44 c42 -27 69 -79 69 -130 0 -46 -12 -71 -57 -118
l-34 -36 56 -61 c31 -34 54 -66 50 -72 -3 -5 -27 -10 -53 -10 -43 0 -51 4 -81
40 -18 22 -42 45 -53 51 -29 16 -66 -12 -70 -53 -3 -31 -5 -33 -43 -33 l-40 0
-3 210 c-1 115 0 215 2 222 4 10 35 13 114 13 97 0 113 -3 143 -23z m244 -202
l0 -220 -28 -3 c-55 -7 -57 1 -57 228 0 113 3 210 7 214 4 4 23 6 43 4 l35 -3
0 -220z m373 213 c16 -16 15 -53 -1 -66 -7 -6 -53 -12 -103 -14 l-89 -3 0 -30
0 -30 72 -3 c67 -3 73 -5 79 -27 13 -52 4 -60 -76 -65 l-75 -5 0 -50 0 -50 97
-3 c96 -3 98 -3 104 -29 14 -53 0 -58 -152 -58 l-139 0 -3 210 c-1 115 0 215
2 222 7 18 267 18 284 1z m626 -4 c12 -31 7 -409 -6 -422 -16 -16 -63 -15 -77
2 -11 13 -15 394 -4 423 8 19 79 17 87 -3z m251 -115 c53 -72 99 -128 102
-125 3 2 5 53 5 112 -1 59 3 116 9 126 13 23 74 25 83 2 12 -31 7 -409 -6
-422 -13 -13 -57 -16 -73 -4 -6 4 -51 62 -100 130 -49 67 -92 122 -97 122 -4
0 -9 -57 -10 -127 l-3 -128 -40 0 -40 0 -3 210 c-1 115 0 215 2 222 3 7 21 13
40 13 32 0 40 -7 131 -131z"/>
<path d="M672 3723 c-19 -9 -41 -32 -53 -54 -17 -34 -19 -60 -19 -255 0 -241
6 -267 65 -304 43 -26 94 -25 136 3 56 38 59 49 59 302 0 253 -3 264 -59 302
-40 27 -83 29 -129 6z"/>
<path d="M2769 3717 c-58 -39 -60 -47 -57 -314 l3 -243 31 -31 c63 -63 170
-45 208 35 13 28 16 72 16 250 0 245 -6 269 -70 305 -49 27 -89 27 -131 -2z"/>
<path d="M370 2483 c-25 -54 -29 -72 -21 -90 9 -20 18 -23 73 -23 99 0 110 19
65 111 -26 53 -37 65 -59 67 -25 3 -30 -3 -58 -65z"/>
<path d="M2930 2488 c-48 -100 -39 -118 55 -118 93 0 104 24 57 120 -22 44
-33 56 -55 58 -25 3 -30 -3 -57 -60z"/>
<path d="M610 1741 c-16 -48 -8 -61 36 -61 42 0 49 15 29 63 -21 50 -48 49
-65 -2z"/>
<path d="M3125 1741 c-21 -47 -14 -61 29 -61 49 0 61 19 39 64 -22 47 -45 46
-68 -3z"/>
<path d="M1037 1863 c-10 -10 -8 -151 2 -157 13 -8 74 19 110 50 34 29 39 58
15 92 -12 18 -25 22 -68 22 -29 0 -56 -3 -59 -7z"/>
<path d="M2715 4983 c33 -90 211 -492 223 -505 18 -21 51 -23 74 -5 9 6 66
128 126 270 l110 257 -270 0 c-253 0 -270 -1 -263 -17z"/>
</g>
</svg>
