<?xml version="1.0" standalone="no"?>
<!DOCTYPE svg PUBLIC "-//W3C//DTD SVG 20010904//EN"
 "http://www.w3.org/TR/2001/REC-SVG-20010904/DTD/svg10.dtd">
<svg version="1.0" xmlns="http://www.w3.org/2000/svg"
 width="349.000000pt" height="499.000000pt" viewBox="0 0 349.000000 499.000000"
 preserveAspectRatio="xMidYMid meet">

<g transform="translate(0.000000,499.000000) scale(0.100000,-0.100000)"
fill="#000000" stroke="none">
<path d="M10 2495 l0 -2485 1735 0 1735 0 0 2485 0 2485 -1735 0 -1735 0 0
-2485z m1664 1685 c21 -14 46 -42 57 -62 11 -21 21 -38 24 -38 2 0 14 18 26
40 13 23 39 51 59 63 l35 22 699 3 c695 3 699 2 743 -19 24 -11 56 -37 71 -57
l27 -35 0 -946 c0 -1064 6 -984 -76 -1038 l-41 -27 -709 2 c-389 1 -719 6
-731 11 -28 11 -86 68 -94 93 -8 25 -21 23 -28 -5 -7 -28 -52 -76 -82 -87 -11
-5 -340 -10 -730 -12 -770 -3 -737 -5 -787 50 -46 51 -46 44 -47 1003 0 499 3
920 6 937 9 44 62 100 109 117 33 12 156 14 736 12 l695 -2 38 -25z m1336
-3690 c0 -5 -9 -10 -20 -10 -15 0 -20 -7 -20 -25 0 -17 6 -25 17 -25 15 0 14
-2 -3 -15 -10 -8 -22 -15 -26 -15 -9 0 -11 62 -2 84 7 17 54 22 54 6z m206
-10 c8 0 14 -4 14 -10 0 -5 -7 -10 -16 -10 -25 0 -13 -44 14 -48 18 -3 22 1
22 21 0 14 6 29 13 34 15 13 147 15 147 2 0 -5 -11 -9 -25 -9 -14 0 -25 -4
-25 -10 0 -5 11 -10 25 -10 29 0 45 -28 24 -41 -19 -12 -59 -11 -59 1 0 6 11
10 25 10 14 0 25 4 25 9 0 13 -63 20 -101 11 -31 -7 -32 -9 -11 -15 12 -4 22
-11 22 -16 0 -13 -37 -11 -45 1 -5 8 -11 7 -20 0 -8 -7 -27 -9 -44 -5 -23 5
-31 13 -33 33 -2 19 -10 28 -25 30 -20 3 -23 -1 -23 -26 0 -28 -4 -31 -42 -37
-34 -6 -44 -4 -55 11 -16 22 -17 46 -1 62 15 15 51 15 66 0 8 -8 15 -8 27 2 9
7 27 10 45 6 24 -4 30 -2 31 12 0 10 3 12 6 5 2 -7 11 -13 19 -13z m-536 0
c13 -8 13 -11 -3 -22 -24 -18 -12 -48 19 -48 20 0 24 5 24 29 0 26 4 30 40 36
26 4 46 3 54 -5 10 -7 16 -8 21 0 8 13 65 13 65 0 0 -5 -11 -10 -25 -10 -14 0
-25 -4 -25 -10 0 -5 11 -10 25 -10 29 0 45 -28 24 -41 -19 -12 -59 -11 -59 1
0 6 11 10 25 10 35 0 31 17 -5 22 -24 4 -30 1 -30 -15 0 -10 -5 -17 -12 -15
-7 3 -13 15 -13 29 0 17 -6 25 -22 27 -20 3 -23 -1 -23 -27 0 -20 -5 -31 -14
-31 -7 0 -26 -2 -42 -5 -36 -7 -57 6 -59 37 -1 17 -8 23 -26 23 -19 0 -25 -6
-27 -26 -4 -30 -40 -43 -92 -32 -25 4 -30 10 -30 34 0 19 -5 29 -15 29 -10 0
-15 -10 -15 -30 0 -16 -4 -30 -10 -30 -5 0 -10 14 -10 30 0 20 -5 30 -15 30
-10 0 -15 -10 -15 -30 0 -16 -5 -30 -11 -30 -6 0 -9 16 -7 38 3 37 3 37 51 39
38 2 50 -2 60 -17 13 -21 61 -28 72 -10 4 6 -5 10 -19 10 -14 0 -26 5 -26 10
0 13 47 13 55 0 4 -7 11 -8 18 -1 10 8 37 15 72 19 6 1 17 -3 25 -8z m-2091
-39 c8 -5 11 -16 6 -30 -8 -27 11 -28 25 -1 13 25 37 26 44 2 5 -16 14 -18 61
-14 43 3 55 1 55 -10 0 -8 -5 -19 -12 -26 -9 -9 -8 -15 7 -25 28 -21 9 -37
-46 -37 -27 0 -49 2 -49 5 0 3 7 17 16 30 16 24 15 25 -5 25 -20 0 -23 -4 -25
-40 -1 -8 -11 -16 -23 -18 -19 -3 -23 1 -23 22 0 35 -18 42 -22 9 -2 -20 -9
-28 -23 -28 -18 0 -20 7 -21 65 -2 82 3 91 35 71z m-51 -68 c-3 -62 -5 -68
-25 -71 -19 -3 -23 1 -23 22 0 19 -5 26 -20 26 -15 0 -20 -7 -20 -25 0 -32
-39 -36 -47 -5 l-6 21 -14 -21 c-16 -23 -51 -26 -79 -6 -16 13 -21 13 -35 0
-11 -10 -32 -14 -60 -12 l-44 3 -3 63 -3 62 49 0 c55 0 74 -14 65 -48 -7 -27
1 -28 27 -2 24 24 48 25 78 4 20 -14 23 -14 28 1 5 11 14 15 30 11 31 -8 54 2
54 25 0 14 7 19 25 19 26 0 26 -1 23 -67z m2306 -68 c-4 -9 0 -15 9 -15 8 0
17 7 21 15 9 24 43 17 64 -12 l21 -28 10 28 c14 36 46 34 46 -3 0 -21 -5 -24
-38 -26 -24 0 -41 4 -44 13 -3 7 -14 13 -24 13 -13 0 -17 -5 -12 -16 5 -13 3
-15 -13 -6 -13 7 -26 7 -37 1 -13 -8 -15 -6 -11 6 4 10 0 15 -10 15 -16 0 -21
12 -9 23 13 13 32 7 27 -8z m290 -12 l29 -27 -5 25 c-4 23 -1 25 30 25 19 0
30 -2 24 -4 -7 -2 -12 -10 -12 -18 0 -21 -47 -36 -71 -24 -10 6 -19 15 -19 20
0 18 -20 10 -21 -7 -1 -17 -2 -17 -6 0 -2 9 -9 17 -14 17 -5 0 -9 -8 -10 -17
0 -11 -2 -13 -6 -5 -18 45 37 56 81 15z m117 8 c-8 -15 -7 -20 6 -25 9 -4 14
-9 11 -11 -3 -3 -13 -3 -22 1 -21 8 -22 54 -1 54 12 0 13 -4 6 -19z m106 -11
l3 -25 -10 24 -11 24 -20 -22 c-11 -12 -24 -19 -30 -16 -15 10 -11 19 14 32
33 16 52 11 54 -17z m48 21 c-3 -5 -1 -12 5 -16 15 -9 12 -22 -6 -29 -12 -4
-15 -2 -10 9 3 9 0 15 -9 15 -16 0 -20 12 -8 23 10 11 35 8 28 -2z"/>
<path d="M1408 3773 c6 -2 18 -2 25 0 6 3 1 5 -13 5 -14 0 -19 -2 -12 -5z"/>
<path d="M298 3763 c12 -2 32 -2 45 0 12 2 2 4 -23 4 -25 0 -35 -2 -22 -4z"/>
<path d="M1158 3763 c12 -2 30 -2 40 0 9 3 -1 5 -23 4 -22 0 -30 -2 -17 -4z"/>
<path d="M1326 3728 c-19 -24 -33 -44 -31 -47 4 -4 54 51 68 75 16 27 -2 13
-37 -28z"/>
<path d="M1489 3732 c31 -44 50 -53 24 -12 -12 19 -27 36 -34 39 -7 2 -2 -10
10 -27z"/>
<path d="M252 3715 c0 -16 2 -22 5 -12 2 9 2 23 0 30 -3 6 -5 -1 -5 -18z"/>
<path d="M380 3710 c0 -16 4 -30 8 -30 5 0 7 14 4 30 -2 17 -6 30 -8 30 -2 0
-4 -13 -4 -30z"/>
<path d="M1102 3720 c0 -14 2 -19 5 -12 2 6 2 18 0 25 -3 6 -5 1 -5 -13z"/>
<path d="M1233 3685 c0 -33 2 -45 4 -27 2 18 2 45 0 60 -2 15 -4 0 -4 -33z"/>
<path d="M1401 3682 c-7 -14 -21 -22 -37 -22 -16 0 -41 -17 -74 -49 -27 -27
-52 -46 -55 -43 -3 3 -4 -50 -3 -119 1 -68 4 -109 6 -91 2 17 6 32 10 32 4 0
7 38 7 84 0 80 2 86 29 115 16 17 50 38 75 48 25 9 49 22 53 27 5 8 8 8 8 1 0
-6 21 -16 46 -23 64 -17 97 -56 115 -134 l15 -63 48 -3 c33 -2 49 -8 53 -20 4
-9 11 -20 17 -24 19 -13 56 -8 63 8 7 18 -13 34 -42 33 -18 0 -17 -1 5 -14 24
-14 24 -14 3 -15 -12 0 -27 8 -32 18 -6 11 -30 26 -54 36 -43 16 -67 46 -67
84 0 10 -20 39 -45 65 -34 34 -53 47 -74 47 -18 0 -34 8 -43 22 l-15 22 -12
-22z m224 -222 c3 -5 -1 -10 -9 -10 -9 0 -16 5 -16 10 0 6 4 10 9 10 6 0 13
-4 16 -10z"/>
<path d="M270 3649 c0 -12 87 -12 95 0 3 6 -16 10 -45 9 -27 0 -50 -4 -50 -9z"/>
<path d="M550 3640 c-36 -28 -21 -31 19 -3 19 12 28 23 20 23 -8 0 -25 -9 -39
-20z"/>
<path d="M658 3647 c52 -16 76 -60 78 -137 3 -121 7 -176 11 -146 l5 28 23
-22 c14 -13 22 -28 18 -34 -3 -6 -3 -8 1 -4 10 9 76 -11 93 -28 28 -28 66 -8
77 39 l7 29 -25 -19 c-16 -12 -20 -20 -12 -25 8 -6 7 -11 -4 -18 -11 -7 -18
-5 -26 5 -6 8 -17 15 -24 15 -8 0 -32 9 -55 20 -60 29 -79 69 -73 153 3 57 8
71 33 98 17 17 39 35 50 39 17 7 17 9 3 9 -10 1 -35 -15 -56 -34 l-39 -35 -12
24 c-15 27 -61 56 -88 55 -10 -1 -4 -6 15 -12z"/>
<path d="M868 3653 c6 -2 18 -2 25 0 6 3 1 5 -13 5 -14 0 -19 -2 -12 -5z"/>
<path d="M1655 3650 c-24 -10 -65 -47 -65 -59 0 -5 14 4 31 20 16 15 49 32 72
37 36 8 37 10 12 10 -16 1 -39 -3 -50 -8z"/>
<path d="M1806 3640 c37 -15 56 -30 73 -57 16 -28 20 -31 15 -13 -3 14 -13 33
-21 42 -19 21 -75 48 -100 47 -10 0 5 -9 33 -19z"/>
<path d="M448 3643 c12 -2 32 -2 45 0 12 2 2 4 -23 4 -25 0 -35 -2 -22 -4z"/>
<path d="M933 3643 c9 -2 17 -9 17 -14 0 -5 5 -9 11 -9 8 0 8 5 -1 15 -7 8
-20 14 -29 14 -13 -1 -13 -2 2 -6z"/>
<path d="M1008 3643 c12 -2 30 -2 40 0 9 3 -1 5 -23 4 -22 0 -30 -2 -17 -4z"/>
<path d="M1100 3628 c0 -17 -3 -19 -9 -9 -5 8 -9 -49 -9 -138 0 -121 3 -150
13 -141 9 7 13 53 14 160 0 83 -1 150 -4 150 -3 0 -5 -10 -5 -22z"/>
<path d="M382 3483 c2 -106 6 -147 16 -151 9 -3 12 31 12 147 0 129 -2 151
-15 151 -13 0 -15 -21 -13 -147z m15 5 c-3 -7 -5 -2 -5 12 0 14 2 19 5 13 2
-7 2 -19 0 -25z m0 -85 c-3 -10 -5 -2 -5 17 0 19 2 27 5 18 2 -10 2 -26 0 -35z"/>
<path d="M1231 3594 c0 -11 3 -14 6 -6 3 7 2 16 -1 19 -3 4 -6 -2 -5 -13z"/>
<path d="M252 3575 c0 -16 2 -22 5 -12 2 9 2 23 0 30 -3 6 -5 -1 -5 -18z"/>
<path d="M1384 3546 l-28 -23 57 0 c62 0 69 7 35 31 -29 21 -32 20 -64 -8z
m49 -3 c-7 -2 -19 -2 -25 0 -7 3 -2 5 12 5 14 0 19 -2 13 -5z"/>
<path d="M1705 3560 c-8 -13 20 -24 36 -14 8 4 9 3 5 -4 -4 -7 -1 -12 7 -12
42 0 113 -31 129 -57 10 -15 18 -22 18 -15 0 30 -43 71 -83 78 -23 3 -47 13
-55 20 -16 16 -48 18 -57 4z"/>
<path d="M886 3544 c-24 -24 -21 -89 5 -108 30 -21 69 -2 68 33 0 26 0 26 -9
3 -19 -47 -70 -35 -70 17 1 25 20 61 33 61 4 0 15 -10 27 -22 11 -12 20 -17
20 -11 0 16 -29 43 -45 43 -7 0 -21 -7 -29 -16z"/>
<path d="M541 3523 l-13 -28 26 24 c26 24 26 24 41 5 16 -19 16 -19 13 1 -2
13 -12 21 -29 23 -20 2 -28 -3 -38 -25z"/>
<path d="M603 3405 c0 -38 2 -53 4 -32 2 20 2 52 0 70 -2 17 -4 1 -4 -38z"/>
<path d="M1360 3442 c0 -13 32 -39 56 -46 13 -4 30 1 47 14 16 13 40 20 66 20
23 0 41 5 41 10 0 6 -22 10 -49 10 -41 0 -53 -4 -70 -26 -17 -21 -23 -24 -40
-14 -12 6 -21 17 -21 25 0 8 -7 15 -15 15 -8 0 -15 -4 -15 -8z"/>
<path d="M1897 3409 c-13 -63 -72 -99 -161 -99 -56 0 -121 34 -136 71 l-13 30
-30 -37 c-17 -20 -44 -42 -61 -50 -25 -11 -27 -13 -10 -14 20 0 69 31 87 55 5
6 15 1 27 -13 31 -38 108 -61 168 -51 61 9 78 18 115 57 21 22 28 38 25 58 -3
28 -4 28 -11 -7z"/>
<path d="M252 3365 c0 -16 2 -22 5 -12 2 9 2 23 0 30 -3 6 -5 -1 -5 -18z"/>
<path d="M1293 3345 c30 -26 51 -35 92 -40 30 -4 60 -5 67 -2 7 3 -3 6 -23 6
-50 1 -99 19 -130 47 -14 13 -29 24 -35 24 -5 -1 8 -16 29 -35z"/>
<path d="M293 3313 c15 -2 37 -2 50 0 12 2 0 4 -28 4 -27 0 -38 -2 -22 -4z"/>
<path d="M448 3313 c12 -2 32 -2 45 0 12 2 2 4 -23 4 -25 0 -35 -2 -22 -4z"/>
<path d="M653 3313 c15 -2 37 -2 50 0 12 2 0 4 -28 4 -27 0 -38 -2 -22 -4z"/>
<path d="M1143 3313 c15 -2 37 -2 50 0 12 2 0 4 -28 4 -27 0 -38 -2 -22 -4z"/>
<path d="M1058 3279 c-11 -18 -35 -37 -58 -47 -22 -9 -40 -20 -40 -25 0 -4 17
0 38 8 40 17 82 57 82 81 0 20 -3 18 -22 -17z"/>
<path d="M750 3293 c0 -19 50 -73 68 -73 12 0 9 5 -9 17 -14 9 -33 28 -42 42
-9 14 -17 21 -17 14z"/>
<path d="M1385 3270 c3 -5 11 -10 16 -10 6 0 7 5 4 10 -3 6 -11 10 -16 10 -6
0 -7 -4 -4 -10z"/>
<path d="M1757 3269 c7 -7 15 -10 18 -7 3 3 -2 9 -12 12 -14 6 -15 5 -6 -5z"/>
<path d="M1598 3237 c-14 -13 -31 -35 -37 -48 -10 -20 -8 -19 10 5 12 15 36
37 53 47 18 11 24 19 15 19 -9 0 -27 -11 -41 -23z"/>
<path d="M1805 3248 c11 -6 22 -14 25 -17 3 -3 14 -12 25 -20 11 -7 5 0 -13
18 -18 17 -38 31 -45 31 -6 0 -3 -6 8 -12z"/>
<path d="M2352 3225 c0 -16 2 -22 5 -12 2 9 2 23 0 30 -3 6 -5 -1 -5 -18z"/>
<path d="M1186 3225 c-11 -8 -17 -17 -14 -20 2 -3 13 4 23 15 21 23 18 25 -9
5z"/>
<path d="M1470 3221 c0 -5 5 -13 10 -16 6 -3 10 -2 10 4 0 5 -4 13 -10 16 -5
3 -10 2 -10 -4z"/>
<path d="M845 3210 c3 -5 18 -10 33 -10 21 0 24 2 12 10 -20 13 -53 13 -45 0z"/>
<path d="M928 3203 c7 -3 16 -2 19 1 4 3 -2 6 -13 5 -11 0 -14 -3 -6 -6z"/>
<path d="M2352 3150 c0 -19 2 -27 5 -17 2 9 2 25 0 35 -3 9 -5 1 -5 -18z"/>
<path d="M2420 3155 c0 -8 5 -15 10 -15 6 0 10 5 10 11 0 6 7 9 15 5 8 -3 15
-1 15 4 0 6 -11 10 -25 10 -16 0 -25 -6 -25 -15z"/>
<path d="M2480 3155 c0 -9 6 -12 15 -9 8 4 15 7 15 9 0 2 -7 5 -15 9 -9 3 -15
0 -15 -9z"/>
<path d="M776 3135 c-14 -13 -26 -33 -26 -45 0 -28 43 -70 73 -70 35 0 62 23
53 46 -5 12 -4 15 2 9 6 -5 12 -19 14 -30 2 -12 11 -20 23 -20 16 0 21 8 23
43 4 53 27 52 27 -1 0 -42 7 -51 33 -43 15 5 19 15 18 43 -2 53 22 54 26 1 2
-35 7 -43 23 -43 17 0 20 8 23 52 3 46 0 54 -22 68 -18 12 -30 14 -43 7 -10
-6 -25 -7 -33 -3 -8 5 -34 6 -57 3 -34 -3 -43 -8 -43 -23 0 -16 -3 -15 -25 6
-31 32 -55 32 -89 0z m59 -25 c-3 -5 -10 -10 -16 -10 -5 0 -9 5 -9 10 0 6 7
10 16 10 8 0 12 -4 9 -10z m2 -46 c-3 -3 -12 -4 -19 -1 -8 3 -5 6 6 6 11 1 17
-2 13 -5z"/>
<path d="M1298 3153 c-9 -2 -19 -11 -22 -19 -5 -13 -3 -13 16 1 45 31 99 7 68
-30 -15 -18 1 -20 18 -3 16 16 15 23 -4 42 -15 15 -41 19 -76 9z"/>
<path d="M1536 3134 c-4 -14 -5 -28 -3 -31 3 -2 8 8 11 23 4 14 5 28 3 31 -3
2 -8 -8 -11 -23z"/>
<path d="M1688 3149 c-10 -5 -18 -18 -18 -27 0 -13 3 -12 16 6 25 36 68 22 87
-28 4 -12 6 -11 6 3 1 22 -34 57 -56 57 -10 0 -26 -5 -35 -11z"/>
<path d="M2031 3124 c-17 -14 -31 -31 -30 -37 0 -8 2 -8 6 1 3 7 21 24 41 37
20 14 31 25 25 25 -6 0 -25 -12 -42 -26z"/>
<path d="M2200 3135 c7 -9 15 -13 17 -11 7 7 -7 26 -19 26 -6 0 -6 -6 2 -15z"/>
<path d="M2599 3129 l-24 -20 30 17 c39 24 40 24 28 24 -6 0 -21 -9 -34 -21z"/>
<path d="M2830 3137 c14 -8 27 -12 30 -10 7 6 -23 23 -40 23 -8 0 -4 -6 10
-13z"/>
<path d="M3190 3135 c0 -3 9 -14 20 -25 11 -11 20 -16 20 -11 0 5 -7 17 -16
25 -16 16 -24 20 -24 11z"/>
<path d="M2929 3113 c-13 -16 -12 -17 4 -4 16 13 21 21 13 21 -2 0 -10 -8 -17
-17z"/>
<path d="M2353 3045 c0 -33 2 -45 4 -27 2 18 2 45 0 60 -2 15 -4 0 -4 -33z"/>
<path d="M2556 3083 c-6 -14 -5 -15 5 -6 7 7 10 15 7 18 -3 3 -9 -2 -12 -12z"/>
<path d="M1521 3064 c0 -11 3 -14 6 -6 3 7 2 16 -1 19 -3 4 -6 -2 -5 -13z"/>
<path d="M2897 3073 c-11 -17 10 -88 30 -104 17 -13 17 -13 1 12 -9 14 -18 44
-20 65 -2 24 -6 34 -11 27z"/>
<path d="M2686 3045 c-14 -15 -34 -25 -50 -25 -15 0 -25 -4 -21 -9 10 -17 48
-3 79 29 17 16 27 30 23 30 -4 0 -18 -11 -31 -25z"/>
<path d="M3051 3061 c-16 -10 -6 -31 14 -31 9 0 12 6 9 15 -10 24 14 17 32
-10 9 -14 25 -25 36 -25 11 0 28 -4 38 -10 15 -8 17 -6 13 10 -4 14 -14 20
-34 20 -16 0 -38 9 -49 20 -22 22 -37 25 -59 11z"/>
<path d="M1472 3053 c-6 -2 -10 -9 -6 -14 8 -14 21 -11 21 6 0 8 -1 15 -1 14
-1 0 -7 -3 -14 -6z"/>
<path d="M2142 3042 c-11 -9 -23 -28 -27 -42 -8 -28 2 -22 19 12 8 16 21 23
39 23 32 -1 33 1 8 15 -15 7 -24 5 -39 -8z"/>
<path d="M2750 3034 c0 -8 5 -12 10 -9 6 3 10 10 10 16 0 5 -4 9 -10 9 -5 0
-10 -7 -10 -16z"/>
<path d="M1505 3003 c4 -10 10 -31 13 -48 3 -16 12 -36 20 -45 14 -13 15 -13
9 3 -4 10 -10 36 -13 57 -4 21 -13 41 -21 44 -11 5 -13 2 -8 -11z"/>
<path d="M2213 2970 c0 -25 2 -35 4 -22 2 12 2 32 0 45 -2 12 -4 2 -4 -23z"/>
<path d="M1363 2967 c12 -13 24 -22 26 -20 6 4 -30 43 -40 43 -5 0 2 -10 14
-23z"/>
<path d="M3210 2986 c0 -2 7 -9 15 -16 13 -11 14 -10 9 4 -5 14 -24 23 -24 12z"/>
<path d="M1661 2958 c-2 -18 20 -58 31 -58 8 0 9 3 3 8 -6 4 -16 18 -22 32 -6
14 -12 22 -12 18z"/>
<path d="M2528 2944 c-5 -4 -8 -34 -8 -68 0 -42 3 -57 11 -49 5 5 9 36 7 67
-2 32 -6 54 -10 50z"/>
<path d="M2967 2940 c13 -13 56 -23 49 -12 -3 5 -17 12 -32 15 -14 2 -22 1
-17 -3z"/>
<path d="M2745 2930 c-3 -5 1 -10 9 -10 9 0 16 5 16 10 0 6 -4 10 -9 10 -6 0
-13 -4 -16 -10z"/>
<path d="M1752 2914 c-7 -8 -8 -14 -3 -14 10 0 25 19 20 25 -2 1 -10 -3 -17
-11z"/>
<path d="M1891 2903 c-6 -15 -18 -39 -28 -53 -15 -21 -15 -23 -1 -12 18 14 52
81 45 88 -3 3 -10 -8 -16 -23z"/>
<path d="M2123 2916 c1 -11 9 -21 17 -23 10 -3 11 -2 4 4 -6 4 -14 15 -17 23
-5 11 -6 9 -4 -4z"/>
<path d="M2688 2919 c-24 -13 -23 -36 2 -49 24 -13 26 -5 4 17 -15 15 -14 17
8 29 12 7 19 13 13 13 -5 0 -18 -4 -27 -10z"/>
<path d="M1365 2910 c-3 -5 -2 -10 4 -10 5 0 13 5 16 10 3 6 2 10 -4 10 -5 0
-13 -4 -16 -10z"/>
<path d="M2190 2900 c-9 -6 -10 -10 -3 -10 6 0 15 5 18 10 8 12 4 12 -15 0z"/>
<path d="M3030 2901 c0 -17 40 -33 66 -27 14 4 24 14 24 24 -1 16 -1 16 -11 0
-12 -22 -42 -23 -63 -2 -9 8 -16 11 -16 5z"/>
<path d="M2730 2880 c-9 -6 -10 -10 -3 -10 6 0 15 5 18 10 8 12 4 12 -15 0z"/>
<path d="M2897 2870 c3 -11 7 -20 9 -20 2 0 4 9 4 20 0 11 -4 20 -9 20 -5 0
-7 -9 -4 -20z"/>
<path d="M1482 2842 c-13 -13 -22 -26 -19 -28 2 -2 14 7 27 21 13 14 22 26 19
28 -2 2 -14 -8 -27 -21z"/>
<path d="M1560 2856 c0 -2 8 -10 18 -17 15 -13 16 -12 3 4 -13 16 -21 21 -21
13z"/>
<path d="M2030 2815 c13 -14 26 -25 28 -25 3 0 -5 11 -18 25 -13 14 -26 25
-28 25 -3 0 5 -11 18 -25z"/>
<path d="M2926 2825 c4 -8 11 -15 16 -15 6 0 5 6 -2 15 -7 8 -14 15 -16 15 -2
0 -1 -7 2 -15z"/>
<path d="M1612 2804 c10 -10 20 -15 24 -12 3 4 -5 12 -18 18 -22 12 -22 12 -6
-6z"/>
<path d="M1814 2804 c-18 -14 -18 -15 4 -4 12 6 22 13 22 15 0 8 -5 6 -26 -11z"/>
<path d="M1430 2800 c-9 -6 -10 -10 -3 -10 6 0 15 5 18 10 8 12 4 12 -15 0z"/>
<path d="M2210 2799 c0 -5 5 -7 10 -4 6 3 10 8 10 11 0 2 -4 4 -10 4 -5 0 -10
-5 -10 -11z"/>
<path d="M2576 2795 c10 -8 23 -15 28 -15 6 0 1 7 -10 15 -10 8 -23 15 -28 15
-6 0 -1 -7 10 -15z"/>
<path d="M2755 2800 c-3 -5 -1 -10 4 -10 6 0 11 5 11 10 0 6 -2 10 -4 10 -3 0
-8 -4 -11 -10z"/>
<path d="M3185 2800 c-3 -5 -2 -10 4 -10 5 0 13 5 16 10 3 6 2 10 -4 10 -5 0
-13 -4 -16 -10z"/>
<path d="M1655 2780 c3 -5 8 -10 11 -10 2 0 4 5 4 10 0 6 -5 10 -11 10 -5 0
-7 -4 -4 -10z"/>
<path d="M3133 2707 c-6 -6 -13 -20 -17 -31 -5 -16 -9 -16 -23 -5 -17 15 -67
21 -96 13 -14 -4 -17 -14 -15 -42 4 -41 28 -57 28 -18 0 14 5 26 10 26 6 0 10
-12 10 -26 0 -32 23 -27 29 7 l4 24 6 -24 c8 -29 31 -40 31 -15 0 16 1 16 18
1 24 -22 38 -21 55 3 l14 21 6 -21 c10 -40 71 -16 64 26 -7 45 -33 57 -61 28
-15 -14 -17 -13 -25 9 -12 32 -26 40 -38 24z"/>
<path d="M700 2700 c0 -5 -6 -10 -14 -10 -7 0 -19 -7 -27 -16 -11 -14 -13 -14
-21 0 -12 21 -57 21 -65 1 -5 -14 -7 -14 -22 -1 -20 17 -103 15 -109 -3 -3 -9
-11 -6 -27 9 l-23 22 -22 -22 c-20 -20 -23 -20 -34 -5 -7 10 -21 16 -31 14
-20 -4 -40 -51 -31 -74 7 -18 62 -20 69 -2 3 6 6 2 6 -10 1 -22 31 -34 31 -13
0 6 5 10 12 10 6 0 20 7 30 17 17 15 18 15 18 -1 0 -25 24 -14 28 12 4 28 15
28 27 0 12 -28 38 -34 58 -14 13 14 16 14 21 0 8 -22 26 -7 26 22 0 14 4 23
10 19 5 -3 7 -11 5 -18 -3 -7 -1 -18 4 -26 8 -12 12 -12 24 -2 9 7 18 8 21 3
4 -7 102 -10 139 -3 13 2 7 58 -8 71 -20 16 -53 4 -58 -23 -3 -13 -5 -7 -6 16
-1 26 -6 37 -16 37 -8 0 -15 -4 -15 -10z m-299 -63 c-13 -13 -26 -3 -16 12 3
6 11 8 17 5 6 -4 6 -10 -1 -17z m299 8 c0 -8 -4 -15 -10 -15 -5 0 -10 7 -10
15 0 8 5 15 10 15 6 0 10 -7 10 -15z"/>
<path d="M1470 2655 c0 -41 4 -55 14 -55 8 0 16 6 19 13 4 10 7 10 18 0 18
-18 44 -16 63 3 15 14 16 14 16 0 0 -21 16 -20 25 2 6 16 7 16 16 0 13 -23 37
-23 61 -1 17 15 18 15 18 -1 0 -28 24 -12 31 20 l6 29 4 -29 c5 -38 29 -47 29
-12 0 14 5 26 10 26 6 0 10 -6 9 -12 -3 -24 1 -38 11 -38 6 0 10 10 11 23 l0
22 9 -22 c10 -24 20 -27 58 -17 24 7 29 33 12 65 -14 25 -50 25 -57 -1 -7 -25
-19 -26 -25 -2 -4 15 -15 19 -52 20 -33 0 -49 -4 -53 -14 -5 -13 -8 -12 -24 1
-18 17 -59 13 -59 -6 0 -5 -5 -9 -11 -9 -7 0 -9 10 -5 25 5 18 2 25 -8 25 -10
0 -16 -13 -19 -37 l-4 -38 -1 38 c-1 25 -7 37 -17 37 -8 0 -15 -4 -15 -10 0
-5 -5 -10 -12 -10 -6 0 -20 -7 -30 -17 -17 -15 -18 -15 -18 10 0 17 -5 27 -15
27 -12 0 -15 -13 -15 -55z m90 -10 c0 -8 -4 -15 -10 -15 -5 0 -10 7 -10 15 0
8 5 15 10 15 6 0 10 -7 10 -15z m122 0 c0 -5 -5 -11 -11 -13 -6 -2 -11 4 -11
13 0 9 5 15 11 13 6 -2 11 -8 11 -13z"/>
<path d="M865 2682 c-15 -11 -17 -39 -5 -62 12 -22 70 -29 70 -9 0 8 5 8 15
-1 12 -10 16 -10 19 1 13 41 14 43 15 23 1 -11 4 -24 8 -27 10 -11 32 13 26
29 -3 8 0 14 5 14 6 0 12 -9 14 -20 4 -29 22 -26 26 5 6 44 -12 54 -86 51 -65
-2 -67 -3 -73 -32 l-7 -29 -1 27 c-1 29 -11 41 -26 30z"/>
<path d="M1112 2678 c-14 -14 -15 -47 -3 -67 13 -20 31 -4 32 27 l1 27 7 -29
c7 -32 31 -48 31 -20 0 16 1 16 18 1 27 -25 49 -21 66 11 l14 27 7 -27 c8 -33
31 -37 40 -8 3 11 10 20 15 20 5 0 12 -9 15 -20 7 -22 44 -27 63 -8 18 18 15
43 -9 64 -16 14 -24 16 -38 7 -14 -9 -21 -9 -30 0 -8 8 -14 6 -24 -7 -13 -18
-14 -18 -21 -1 -5 14 -9 15 -20 6 -11 -9 -19 -9 -35 0 -17 11 -23 10 -39 -4
-17 -16 -20 -16 -25 -2 -7 18 -48 20 -65 3z m128 -33 c0 -8 -4 -15 -10 -15 -5
0 -10 7 -10 15 0 8 5 15 10 15 6 0 10 -7 10 -15z m154 -6 c-3 -5 -10 -7 -15
-3 -5 3 -7 10 -3 15 3 5 10 7 15 3 5 -3 7 -10 3 -15z"/>
<path d="M1976 2677 c-39 -29 3 -95 44 -70 12 8 21 9 25 3 11 -18 25 -10 25
14 0 34 18 42 22 11 4 -32 21 -34 30 -3 6 22 6 21 7 -4 1 -18 6 -28 17 -28 12
0 14 9 12 43 l-3 42 -45 3 c-34 3 -47 -1 -58 -15 -12 -17 -14 -17 -23 0 -12
20 -29 22 -53 4z"/>
<path d="M2221 2676 c-20 -24 -10 -70 17 -74 13 -2 30 2 38 8 11 10 14 9 14
-9 0 -26 17 -27 50 -1 27 21 50 26 50 10 0 -14 34 -12 48 2 10 10 14 10 21 0
6 -10 10 -10 20 2 7 8 10 20 6 26 -3 5 -1 10 4 10 6 0 11 -10 11 -22 0 -21 5
-23 50 -25 27 -1 52 2 55 7 4 6 14 5 25 -3 28 -17 55 2 55 38 0 37 -27 55 -56
37 -15 -10 -24 -11 -32 -3 -18 18 -48 13 -54 -9 l-6 -21 -14 21 c-17 24 -48
26 -61 4 -8 -14 -10 -14 -21 0 -17 20 -35 20 -51 1 -12 -14 -15 -14 -30 0 -21
19 -59 19 -66 0 -5 -13 -8 -13 -21 0 -18 19 -37 19 -52 1z m119 -31 c0 -8 -4
-15 -10 -15 -5 0 -10 7 -10 15 0 8 5 15 10 15 6 0 10 -7 10 -15z"/>
<path d="M2736 2683 c-11 -11 -6 -60 7 -71 16 -13 97 -11 98 3 1 5 1 16 0 23
-1 6 3 12 9 12 5 0 10 -12 10 -26 0 -32 23 -27 29 7 l4 24 6 -25 c4 -14 13
-25 21 -25 19 0 25 37 11 64 -9 17 -20 19 -78 17 -67 -2 -68 -3 -73 -32 -4
-20 -8 -25 -14 -16 -4 7 -5 19 -3 27 6 14 -16 28 -27 18z"/>
<path d="M2110 2254 c-14 -37 -13 -49 5 -34 12 10 18 10 32 -1 15 -12 16 -12
9 6 -5 11 -11 28 -13 38 -8 25 -22 21 -33 -9z"/>
<path d="M2189 2264 c-9 -11 -10 -20 -2 -32 12 -20 53 -29 53 -12 0 6 -8 10
-17 8 -12 -2 -18 3 -18 17 0 14 6 19 19 17 11 -2 15 1 11 7 -9 16 -31 13 -46
-5z"/>
<path d="M2281 2271 c-20 -13 -6 -61 18 -61 28 0 47 28 34 48 -12 20 -33 25
-52 13z m35 -37 c-5 -13 -10 -14 -18 -6 -6 6 -8 18 -4 28 5 13 10 14 18 6 6
-6 8 -18 4 -28z"/>
<path d="M2369 2280 c-1 -3 -2 -18 -3 -33 -1 -19 2 -26 11 -23 7 3 15 1 18 -3
11 -18 45 1 45 25 0 31 -20 41 -27 14 l-6 -23 -18 24 c-10 13 -19 22 -20 19z"/>
<path d="M2470 2245 l0 -36 25 18 c30 22 28 47 -3 51 -19 3 -22 -1 -22 -33z"/>
<path d="M2552 2255 c-17 -36 -15 -50 3 -35 12 10 18 10 30 0 10 -8 15 -9 15
-2 0 16 -22 62 -30 62 -4 0 -12 -11 -18 -25z"/>
<path d="M2631 2249 c0 -19 3 -28 6 -21 4 10 9 10 23 -3 16 -15 18 -14 22 15
3 16 1 30 -4 30 -4 0 -8 -5 -8 -12 0 -6 -9 -3 -20 7 -20 18 -20 17 -19 -16z"/>
<path d="M2810 2254 c-14 -37 -13 -49 5 -34 12 10 18 10 30 0 18 -15 18 -12 4
29 -13 38 -26 40 -39 5z"/>
<path d="M2939 2264 c-9 -11 -10 -20 -2 -32 14 -23 53 -28 53 -8 0 9 -6 13
-14 10 -8 -3 -17 0 -21 6 -4 7 2 14 14 17 12 3 21 9 21 14 0 15 -37 10 -51 -7z"/>
<path d="M3030 2244 c0 -33 2 -35 28 -32 49 6 40 67 -10 68 -14 0 -18 -8 -18
-36z m40 1 c0 -8 -4 -15 -10 -15 -5 0 -10 7 -10 15 0 8 5 15 10 15 6 0 10 -7
10 -15z"/>
<path d="M2710 2244 c0 -25 14 -32 26 -12 5 7 11 5 21 -7 12 -17 13 -17 13 11
0 25 -4 29 -30 30 -25 1 -30 -3 -30 -22z"/>
<path d="M1930 2190 c0 -5 5 -10 11 -10 5 0 7 5 4 10 -3 6 -8 10 -11 10 -2 0
-4 -4 -4 -10z"/>
<path d="M3225 2189 c-4 -6 -5 -12 -2 -15 2 -3 7 2 10 11 7 17 1 20 -8 4z"/>
<path d="M3034 445 c-8 -20 4 -35 27 -35 14 0 19 7 19 25 0 18 -5 25 -20 25
-11 0 -23 -7 -26 -15z"/>
<path d="M3274 451 c3 -5 15 -7 26 -4 28 7 25 13 -6 13 -14 0 -23 -4 -20 -9z"/>
<path d="M2520 420 c0 -5 7 -10 15 -10 8 0 15 5 15 10 0 6 -7 10 -15 10 -8 0
-15 -4 -15 -10z"/>
<path d="M2986 303 c-11 -11 -6 -23 9 -23 8 0 15 4 15 9 0 13 -16 22 -24 14z"/>
</g>
</svg>
