<?xml version="1.0" standalone="no"?>
<!DOCTYPE svg PUBLIC "-//W3C//DTD SVG 20010904//EN"
 "http://www.w3.org/TR/2001/REC-SVG-20010904/DTD/svg10.dtd">
<svg version="1.0" xmlns="http://www.w3.org/2000/svg"
 width="330.000000pt" height="499.000000pt" viewBox="0 0 330.000000 499.000000"
 preserveAspectRatio="xMidYMid meet">

<g transform="translate(0.000000,499.000000) scale(0.100000,-0.100000)"
fill="#000000" stroke="none">
<path d="M401 4980 c-5 -8 -10 -1118 -10 -2667 l-1 -1471 -33 -10 c-17 -6 -50
-13 -72 -17 -66 -10 -215 -49 -215 -56 0 -4 42 4 93 17 50 13 132 31 180 40
64 12 85 19 78 28 -13 15 -13 52 -12 1794 l1 1492 201 0 201 0 -6 26 c-8 30
16 64 44 64 29 0 53 -35 46 -67 l-6 -28 425 0 c348 0 424 2 420 13 -8 21 14
52 36 52 18 0 21 -5 17 -32 l-3 -33 540 1 c297 0 545 -1 551 -3 8 -3 10 -123
6 -442 -3 -320 -2 -440 7 -445 8 -5 11 215 11 853 0 474 -3 861 -7 861 -5 0
-8 -60 -8 -132 l0 -133 -470 3 c-258 1 -815 2 -1237 2 l-767 0 -4 148 c-1 81
-4 145 -6 142z m629 -369 c16 -31 12 -57 -16 -90 -26 -31 -48 -34 -37 -5 3 9
-3 21 -16 30 -23 17 -28 53 -9 72 19 19 66 15 78 -7z m755 -6 c0 -11 -10 -24
-23 -30 -12 -6 -20 -16 -17 -23 3 -8 0 -12 -7 -10 -18 6 -22 56 -7 74 17 21
54 14 54 -11z m65 -13 c-1 -9 -10 -28 -21 -41 -17 -21 -22 -22 -30 -10 -14 22
-11 37 11 59 23 23 40 19 40 -8z m198 0 c4 -24 -13 -52 -31 -52 -6 0 -7 3 -4
7 4 3 2 12 -4 19 -6 7 -8 23 -4 34 9 28 39 22 43 -8z m-71 6 c12 -16 2 -60
-15 -66 -6 -2 -12 3 -12 12 0 9 -4 16 -10 16 -14 0 -13 23 2 38 15 15 23 15
35 0z m453 -3 c11 -13 10 -20 -7 -42 -27 -37 -36 -38 -52 -3 -10 24 -10 34 -1
45 16 19 44 19 60 0z m114 -28 c17 -13 14 -22 -53 -159 -39 -81 -71 -151 -71
-157 0 -15 -12 -14 -32 2 -15 11 -13 22 22 125 67 193 88 223 134 189z m-1836
-34 c-2 -21 -8 -28 -23 -26 -11 1 -24 -5 -28 -13 -5 -9 -16 -12 -27 -9 -11 3
-20 0 -24 -10 -7 -19 -42 -20 -49 -1 -7 18 18 40 36 33 7 -3 19 4 26 15 7 11
18 17 26 14 7 -2 16 2 19 10 3 8 15 14 26 14 17 0 21 -5 18 -27z m436 -29 c28
-27 18 -55 -41 -113 -32 -31 -63 -65 -69 -76 -9 -16 -15 -17 -24 -8 -19 18 5
69 49 101 41 31 51 42 51 60 0 20 -31 14 -37 -7 -9 -37 -53 -38 -53 -1 0 45
91 78 124 44z m446 1 c20 -25 8 -50 -25 -50 -31 0 -43 20 -31 51 7 18 40 18
56 -1z m745 -10 c45 -44 32 -92 -47 -166 -38 -36 -48 -52 -48 -77 0 -41 -23
-42 -40 -3 -18 44 -1 79 61 130 56 46 68 66 50 84 -8 8 -19 3 -40 -17 -32 -30
-58 -31 -75 -3 -9 15 -5 23 22 48 41 37 83 38 117 4z m-827 3 c17 -17 15 -43
-4 -59 -31 -26 -70 25 -44 56 15 18 32 19 48 3z m-610 -10 c17 -17 15 -47 -3
-54 -12 -5 -13 -10 -4 -20 6 -8 8 -25 5 -40 -5 -19 -12 -24 -28 -22 -30 4 -46
33 -31 57 6 10 9 28 6 40 -11 43 25 69 55 39z m514 -15 c22 -20 23 -31 2 -54
-13 -14 -21 -16 -35 -8 -21 11 -25 49 -7 67 15 15 18 15 40 -5z m344 -18 c7
-18 -13 -45 -33 -45 -17 0 -27 24 -19 45 7 20 45 19 52 0z m-472 -120 c3 -60
6 -121 8 -135 2 -19 -2 -25 -17 -25 -17 0 -21 14 -37 125 -9 69 -17 129 -18
133 0 11 43 26 52 18 3 -3 9 -55 12 -116z m1360 103 c8 -13 8 -23 -2 -38 -10
-17 -9 -25 4 -45 13 -20 14 -28 4 -40 -16 -19 -44 -19 -60 0 -13 16 -5 55 12
55 6 0 4 8 -5 18 -20 22 -22 43 -5 60 16 16 38 12 52 -10z m139 -19 c23 -32
16 -62 -19 -86 -24 -15 -27 -15 -52 4 -33 24 -39 56 -17 89 21 32 61 29 88 -7z
m-2035 -17 c6 -9 12 -27 12 -41 0 -58 -75 -84 -106 -36 -40 62 48 135 94 77z
m455 4 c3 -7 8 -54 12 -103 6 -78 5 -91 -9 -96 -17 -7 -36 26 -36 63 0 10 -5
42 -12 70 -11 48 -10 54 7 66 24 18 31 18 38 0z m835 -35 c2 -18 -1 -38 -7
-44 -8 -8 -11 -6 -11 6 0 9 -4 17 -9 17 -13 0 -24 37 -16 50 14 23 40 5 43
-29z m-359 -7 c12 -15 21 -35 21 -46 0 -24 -34 -90 -55 -108 -19 -15 -34 -5
-17 12 18 18 15 28 -8 28 -29 0 -60 36 -60 70 0 65 79 94 119 44z m307 1 c3
-14 3 -32 0 -41 -6 -14 -9 -14 -26 6 -21 24 -25 42 -13 53 14 15 33 6 39 -18z
m-98 -38 c2 -15 -1 -27 -7 -27 -6 0 -11 -7 -11 -15 0 -8 -5 -15 -10 -15 -6 0
-13 7 -16 15 -9 22 -24 18 -24 -6 0 -18 -2 -19 -15 -9 -27 22 -16 80 15 80 10
0 21 -6 23 -12 3 -8 6 -5 6 5 1 30 36 16 39 -16z m-1284 -29 c20 -29 20 -67 0
-96 -17 -25 -36 -30 -28 -7 4 9 -3 18 -19 24 -38 15 -49 58 -21 85 22 22 50
20 68 -6z m2176 -8 c25 -25 25 -55 2 -100 -19 -35 -42 -51 -42 -30 0 7 -13 25
-30 40 -35 33 -37 48 -9 84 24 31 52 33 79 6z m-1735 -10 c9 -15 -14 -40 -36
-40 -24 0 -33 18 -19 35 14 17 46 20 55 5z m412 -16 c3 -8 -1 -23 -10 -31 -12
-12 -13 -20 -4 -34 12 -19 -5 -49 -28 -49 -7 0 -18 7 -26 16 -10 12 -10 20 -1
34 6 11 9 26 6 35 -8 20 13 45 38 45 10 0 21 -7 25 -16z m673 -15 c7 -11 10
-22 8 -24 -5 -4 -157 -45 -168 -45 -6 0 -10 11 -10 24 0 20 9 26 73 43 39 11
75 21 79 22 4 0 12 -8 18 -20z m264 -22 c10 -7 17 -22 15 -33 -5 -24 -51 -31
-69 -9 -11 13 -10 19 5 35 21 24 25 24 49 7z m-1164 -51 c0 -27 -28 -43 -36
-21 -9 21 3 45 21 45 9 0 15 -9 15 -24z m995 -1 c0 -13 -8 -21 -22 -23 -17 -3
-23 2 -23 16 0 10 3 22 7 26 13 13 38 1 38 -19z"/>
<path d="M1110 4848 c0 -6 7 -38 16 -70 19 -65 39 -75 55 -28 6 17 15 30 19
30 4 0 13 -13 19 -30 16 -47 36 -37 54 30 11 39 22 60 32 60 8 0 15 5 15 10 0
6 -13 10 -30 10 -27 0 -30 -4 -36 -40 -8 -48 -18 -51 -30 -8 -13 44 -30 45
-44 4 -15 -47 -26 -45 -34 4 -4 26 -11 40 -21 40 -8 0 -15 -5 -15 -12z"/>
<path d="M1340 4790 c0 -53 3 -71 13 -67 8 2 12 25 12 67 0 42 -4 65 -12 68
-10 3 -13 -15 -13 -68z"/>
<path d="M1380 4790 c0 -56 3 -70 15 -70 12 0 15 14 15 70 0 56 -3 70 -15 70
-12 0 -15 -14 -15 -70z"/>
<path d="M1430 4844 c0 -8 5 -12 10 -9 6 3 10 10 10 16 0 5 -4 9 -10 9 -5 0
-10 -7 -10 -16z"/>
<path d="M1777 4854 c-11 -11 3 -24 24 -24 18 0 20 -6 17 -52 -2 -42 0 -53 12
-53 11 0 16 14 18 51 2 42 7 53 22 57 11 3 20 10 20 16 0 12 -102 16 -113 5z"/>
<path d="M2142 4848 c5 -15 28 -18 29 -3 0 6 -7 12 -17 13 -10 3 -15 -1 -12
-10z"/>
<path d="M1295 4808 c-8 -26 0 -81 13 -85 8 -3 12 10 12 46 0 46 -15 70 -25
39z"/>
<path d="M1425 4807 c-9 -21 1 -81 14 -85 7 -2 11 14 11 47 0 47 -14 68 -25
38z"/>
<path d="M1480 4811 c0 -6 7 -11 15 -11 8 0 15 -4 15 -10 0 -5 -6 -10 -14 -10
-7 0 -19 -7 -26 -15 -18 -21 4 -45 42 -45 29 0 29 1 26 48 -3 43 -5 47 -30 50
-16 2 -28 -1 -28 -7z m35 -61 c-3 -5 -10 -10 -16 -10 -5 0 -9 5 -9 10 0 6 7
10 16 10 8 0 12 -4 9 -10z"/>
<path d="M1560 4769 c0 -60 23 -64 28 -5 4 48 26 43 30 -7 5 -53 32 -50 32 3
0 29 4 40 15 40 11 0 15 -11 15 -40 0 -29 4 -40 15 -40 11 0 15 11 15 38 0 20
-4 42 -8 48 -4 6 -37 12 -74 12 l-68 1 0 -50z"/>
<path d="M1877 4813 c-12 -11 -8 -68 5 -81 7 -7 27 -12 45 -12 29 0 33 3 33
26 l0 27 21 -27 c12 -15 30 -26 45 -26 30 0 31 12 2 25 -13 6 -23 17 -23 25 0
8 10 19 23 25 12 5 22 13 22 17 0 16 -45 7 -67 -14 l-23 -21 0 22 c0 14 -5 21
-12 18 -7 -2 -13 -19 -13 -38 0 -50 -29 -47 -33 4 -3 35 -11 45 -25 30z"/>
<path d="M2070 4800 c-25 -25 -25 -42 -2 -63 20 -19 62 -23 62 -7 0 6 -6 10
-13 10 -7 0 -18 5 -25 12 -16 16 3 48 28 48 16 0 20 -7 20 -34 0 -36 17 -57
29 -38 4 6 5 28 3 49 -4 36 -5 38 -43 40 -28 2 -45 -3 -59 -17z"/>
<path d="M250 4675 c0 -9 5 -15 11 -13 6 2 11 8 11 13 0 5 -5 11 -11 13 -6 2
-11 -4 -11 -13z"/>
<path d="M166 4662 c-3 -6 -2 -22 3 -35 9 -22 16 -25 55 -25 55 0 62 15 9 20
-28 2 -41 9 -49 26 -7 13 -15 19 -18 14z"/>
<path d="M130 4560 c0 -5 5 -10 10 -10 6 0 10 5 10 10 0 6 -4 10 -10 10 -5 0
-10 -4 -10 -10z"/>
<path d="M167 4555 c-7 -17 9 -30 18 -15 3 5 28 10 55 10 36 0 52 -5 59 -17
14 -25 25 -9 11 16 -9 18 -20 21 -74 21 -47 0 -65 -4 -69 -15z"/>
<path d="M171 4419 c-10 -17 -28 -37 -40 -45 -33 -23 -27 -58 14 -80 40 -21
39 -19 24 -45 -14 -28 13 -69 45 -69 32 0 56 10 56 23 0 5 18 27 40 47 49 45
51 71 6 116 -18 18 -41 45 -50 59 -24 37 -70 35 -95 -6z m86 -5 c2 -7 -12 -14
-34 -16 -44 -6 -48 -4 -39 17 7 19 67 17 73 -1z m23 -144 c0 -5 -7 -10 -15
-10 -8 0 -15 5 -15 10 0 6 7 10 15 10 8 0 15 -4 15 -10z m-30 -29 c14 -26 13
-29 -10 -41 -23 -12 -60 2 -60 23 0 36 53 49 70 18z"/>
<path d="M256 4132 c-4 -7 -32 -12 -72 -12 -41 0 -63 -4 -59 -10 8 -12 115
-13 134 -1 7 5 11 15 9 22 -3 10 -6 10 -12 1z"/>
<path d="M177 4029 c-8 -11 -12 -30 -9 -42 6 -20 7 -19 12 7 6 37 30 47 30 14
0 -26 17 -48 37 -48 19 0 32 32 26 63 -5 24 -10 27 -44 27 -27 0 -42 -6 -52
-21z m79 -14 c3 -8 3 -19 0 -24 -10 -16 -36 -1 -36 20 0 22 28 26 36 4z"/>
<path d="M112 4019 c2 -7 10 -15 17 -17 8 -3 12 1 9 9 -2 7 -10 15 -17 17 -8
3 -12 -1 -9 -9z"/>
<path d="M130 3910 c0 -5 5 -10 11 -10 5 0 7 5 4 10 -3 6 -8 10 -11 10 -2 0
-4 -4 -4 -10z"/>
<path d="M176 3913 c-3 -4 -6 -13 -6 -22 0 -12 3 -12 12 -3 7 7 29 12 50 12
21 0 38 4 38 9 0 10 -84 13 -94 4z"/>
<path d="M843 3848 c-5 -7 -29 -62 -52 -123 -24 -60 -45 -116 -48 -122 -4 -9
6 -13 31 -13 29 0 39 5 48 25 9 21 18 25 54 25 37 0 45 -4 56 -27 10 -22 20
-27 48 -27 43 1 43 -4 -17 149 -46 115 -49 120 -79 123 -17 2 -35 -3 -41 -10z
m53 -134 c5 -27 3 -31 -15 -29 -30 2 -32 8 -20 44 13 36 26 31 35 -15z"/>
<path d="M1515 3848 c-3 -7 -4 -65 -2 -128 2 -111 3 -115 27 -127 14 -7 44
-13 68 -13 63 0 102 40 102 105 0 35 -6 51 -25 70 -28 29 -72 33 -91 8 -12
-16 -13 -10 -14 40 0 57 0 57 -30 57 -17 0 -33 -6 -35 -12z m125 -139 c17 -31
-5 -79 -36 -79 -22 0 -24 4 -24 43 0 24 3 47 7 50 13 14 43 6 53 -14z"/>
<path d="M1957 3853 c-3 -5 -4 -66 -3 -138 l1 -130 33 -3 32 -3 0 140 0 141
-29 0 c-17 0 -32 -3 -34 -7z"/>
<path d="M2062 3848 c-28 -28 2 -67 37 -48 25 13 26 23 5 44 -19 19 -26 20
-42 4z"/>
<path d="M2177 3843 c-4 -3 -7 -14 -7 -23 0 -13 11 -16 58 -15 49 0 57 3 57
18 0 15 -10 20 -51 23 -28 2 -54 1 -57 -3z"/>
<path d="M125 3830 c-4 -6 5 -10 19 -10 22 0 26 -5 26 -30 0 -34 29 -55 66
-46 30 8 44 33 37 69 -5 26 -7 27 -74 27 -37 0 -71 -4 -74 -10z m132 -26 c3
-8 -1 -23 -10 -32 -21 -21 -67 -2 -67 28 0 16 7 20 35 20 23 0 38 -6 42 -16z"/>
<path d="M1154 3767 c-3 -8 -4 -51 -2 -97 l3 -84 30 0 c30 0 30 0 35 69 l5 70
33 -3 c30 -2 32 0 32 28 0 25 -4 30 -23 30 -13 0 -28 -5 -34 -11 -8 -8 -13 -8
-17 0 -10 15 -56 14 -62 -2z"/>
<path d="M1325 3750 c-43 -45 -42 -101 3 -141 26 -24 41 -29 82 -29 39 0 52 4
60 19 15 30 13 34 -20 27 -34 -6 -80 11 -80 31 0 9 16 13 58 13 32 0 61 3 64
6 11 11 -12 69 -35 86 -12 10 -40 18 -63 18 -32 0 -46 -6 -69 -30z m103 -27
c2 -9 -7 -13 -27 -13 -30 0 -39 9 -24 24 11 10 46 3 51 -11z"/>
<path d="M1769 3751 c-23 -24 -29 -38 -29 -74 0 -38 5 -49 31 -72 27 -22 40
-25 82 -23 39 2 53 8 65 27 l16 24 -39 -5 c-48 -6 -85 6 -85 27 0 12 13 15 65
15 36 0 65 4 65 9 0 29 -26 74 -51 86 -45 24 -87 19 -120 -14z m96 -31 c0 -9
-11 -15 -27 -17 -27 -2 -37 14 -21 31 12 12 48 2 48 -14z"/>
<path d="M2184 3772 c-12 -8 -37 -52 -30 -52 3 0 17 5 31 10 18 7 33 7 46 -1
27 -14 14 -29 -25 -29 -35 0 -76 -34 -76 -63 0 -42 78 -75 107 -46 8 8 13 8
17 0 4 -6 18 -11 32 -11 23 0 24 2 24 79 0 74 -2 81 -26 100 -26 21 -79 28
-100 13z m63 -136 c-4 -9 -16 -16 -27 -16 -25 0 -28 37 -2 43 23 5 36 -8 29
-27z"/>
<path d="M2395 3771 c-49 -20 -72 -74 -55 -126 15 -46 44 -65 98 -65 35 0 49
6 73 29 78 79 -12 204 -116 162z m71 -67 c8 -30 -5 -75 -22 -81 -19 -6 -44 26
-44 56 0 52 54 73 66 25z"/>
<path d="M2050 3674 l0 -95 32 3 32 3 3 93 4 92 -36 0 -35 0 0 -96z"/>
<path d="M612 3439 c3 -38 2 -40 -21 -36 -97 19 -152 -119 -72 -180 20 -15 68
-17 77 -2 4 8 9 8 17 0 6 -6 24 -11 39 -11 l28 0 0 135 0 135 -36 0 -36 0 4
-41z m-4 -128 c4 -48 -6 -65 -31 -55 -38 14 -28 109 11 102 12 -2 18 -15 20
-47z"/>
<path d="M2437 3451 c-4 -16 3 -19 46 -24 50 -6 77 3 77 27 0 7 -22 12 -59 13
-49 2 -60 -1 -64 -16z"/>
<path d="M1713 3440 c-13 -5 -23 -16 -23 -25 0 -8 -6 -25 -12 -36 -10 -17 -10
-23 0 -26 7 -3 12 -24 12 -57 0 -59 13 -81 52 -90 20 -5 32 -1 48 16 l21 23
-21 3 c-24 4 -34 22 -34 66 0 24 5 32 22 34 30 5 32 52 2 52 -15 0 -20 7 -20
25 0 26 -10 30 -47 15z"/>
<path d="M742 3394 c-35 -24 -28 -41 19 -40 25 1 44 -4 46 -11 3 -9 -6 -13
-29 -13 -46 0 -78 -24 -78 -59 0 -46 26 -61 105 -58 l70 2 3 60 c4 83 -3 104
-43 121 -44 18 -65 18 -93 -2z m68 -124 c0 -13 -7 -20 -19 -20 -22 0 -35 15
-26 30 12 19 45 11 45 -10z"/>
<path d="M1025 3388 c-2 -7 -3 -67 -2 -133 l2 -120 33 -3 c31 -3 32 -2 32 37
l0 41 40 0 c59 0 90 33 90 98 0 38 -5 53 -23 70 -25 24 -76 29 -95 10 -9 -9
-12 -9 -12 0 0 16 -59 16 -65 0z m120 -52 c12 -17 13 -30 6 -49 -21 -56 -61
-45 -61 17 0 24 3 46 7 49 13 14 33 7 48 -17z"/>
<path d="M1269 3371 c-79 -79 12 -200 117 -156 40 16 54 41 54 95 0 58 -33 90
-95 90 -38 0 -52 -5 -76 -29z m102 -44 c4 -16 4 -40 -1 -53 -17 -45 -60 -22
-60 31 0 58 47 74 61 22z"/>
<path d="M1470 3305 l0 -95 30 0 30 0 0 65 c0 52 3 66 18 74 30 16 42 -6 42
-76 l0 -63 35 0 35 0 0 73 c0 87 -16 117 -62 117 -17 0 -40 -7 -50 -17 -17
-15 -18 -15 -18 0 0 12 -9 17 -30 17 l-30 0 0 -95z"/>
<path d="M1827 3393 c-4 -3 -7 -37 -7 -75 0 -60 3 -72 25 -93 29 -30 45 -31
79 -4 21 17 26 18 26 5 0 -11 9 -16 29 -16 28 0 30 2 33 48 2 26 1 68 0 95 -4
44 -5 47 -33 47 -29 0 -29 0 -29 -64 0 -67 -15 -94 -45 -82 -11 4 -15 22 -15
76 l0 70 -28 0 c-16 0 -32 -3 -35 -7z"/>
<path d="M2067 3382 c-25 -27 -21 -31 24 -29 53 2 63 -18 13 -26 -44 -7 -74
-32 -74 -63 0 -39 77 -83 94 -55 3 5 24 7 46 4 l40 -6 0 81 c0 72 -2 83 -22
96 -31 22 -101 21 -121 -2z m83 -106 c0 -7 -7 -19 -15 -26 -21 -17 -51 6 -34
26 15 18 49 18 49 0z"/>
<path d="M2280 3387 c-28 -14 -50 -51 -50 -85 0 -45 37 -91 73 -92 17 0 16 -4
-7 -31 -14 -17 -26 -35 -26 -40 0 -19 40 -8 57 17 10 14 31 40 46 57 25 28 29
30 38 15 11 -20 67 -34 81 -20 5 5 27 7 49 5 l39 -6 0 74 c-1 91 -12 109 -75
116 -35 4 -50 1 -65 -12 -30 -27 -24 -36 18 -29 27 4 41 2 50 -9 11 -12 6 -16
-32 -21 -43 -7 -67 -24 -79 -58 -9 -26 -73 -25 -87 1 -16 31 -12 59 12 75 16
11 26 12 41 5 25 -14 37 0 26 29 -7 17 -16 22 -46 22 -21 0 -49 -6 -63 -13z
m236 -108 c3 -6 -1 -18 -9 -27 -13 -13 -19 -13 -32 -2 -12 10 -13 16 -4 26 14
17 35 18 45 3z"/>
<path d="M2651 3386 c-45 -25 -63 -84 -39 -129 22 -42 40 -52 91 -51 43 0 54
5 79 32 30 35 35 66 16 107 -22 49 -96 69 -147 41z m80 -50 c14 -29 4 -75 -16
-83 -36 -13 -58 44 -35 88 15 26 38 24 51 -5z"/>
<path d="M2895 3185 c-75 -12 -222 -69 -352 -138 -52 -27 -179 -150 -225 -217
-18 -27 -36 -50 -41 -50 -9 0 27 72 55 113 11 16 18 30 16 33 -11 10 -80 -109
-83 -141 0 -5 -3 -14 -6 -20 -4 -5 -14 -34 -24 -63 -12 -38 -21 -52 -31 -48
-16 6 -18 -12 -4 -48 6 -16 6 -26 0 -26 -16 0 -40 44 -47 83 -3 20 -10 40 -14
43 -15 9 -10 43 11 84 11 22 16 40 11 40 -17 0 -31 -27 -41 -80 -9 -46 -7 -59
14 -111 15 -39 20 -60 12 -62 -6 -2 7 -12 29 -22 l40 -18 -50 -7 c-57 -8 -98
-27 -145 -67 -24 -19 -42 -26 -66 -25 -26 2 -34 -1 -34 -13 0 -13 10 -16 53
-15 90 4 84 10 92 -87 4 -49 13 -106 20 -128 l14 -40 -5 40 c-3 22 -7 50 -10
63 -4 21 -2 23 18 16 26 -8 88 -53 88 -63 0 -6 64 -41 75 -41 2 0 -1 16 -7 36
-11 41 -5 53 17 34 24 -20 28 -5 9 31 -22 44 -30 155 -15 216 11 41 10 49 -3
59 -9 6 -16 14 -16 18 0 14 123 96 168 110 26 9 88 20 137 25 l90 10 -87 -3
c-49 -2 -88 -2 -88 0 0 2 22 15 49 27 44 22 56 23 142 17 52 -4 111 -15 132
-23 20 -9 37 -12 37 -7 0 16 -94 40 -164 41 l-71 2 75 8 c134 13 293 -27 388
-99 55 -41 67 -34 22 13 -22 23 -29 35 -19 35 26 0 124 -64 134 -88 13 -30 31
-22 27 14 l-3 29 35 -34 36 -35 0 271 0 271 -40 16 c-88 35 -216 43 -355 21z
m159 -157 c-5 -8 -2 -9 10 -5 10 4 23 4 29 0 7 -4 22 -9 35 -11 12 -1 32 -7
45 -13 l22 -10 -22 5 c-13 2 -23 0 -23 -4 0 -14 -110 -1 -126 15 -9 8 -24 15
-35 15 -10 0 -19 5 -19 10 0 6 21 10 46 10 32 0 43 -3 38 -12z m181 -58 c3 -6
-1 -7 -9 -4 -18 7 -21 14 -7 14 6 0 13 -4 16 -10z m11 -105 c10 -8 15 -14 9
-14 -5 0 -19 6 -29 14 -11 8 -15 15 -10 15 6 0 19 -7 30 -15z m20 -86 c3 -6
-5 -3 -20 6 -14 10 -26 19 -26 22 0 7 39 -17 46 -28z"/>
<path d="M2153 2735 c-3 -9 -3 -18 -1 -21 3 -3 8 4 11 16 6 23 -1 27 -10 5z"/>
<path d="M2832 2690 c-18 -29 -15 -48 4 -21 12 17 24 22 45 19 31 -5 39 6 13
16 -28 11 -49 6 -62 -14z"/>
<path d="M2081 2655 c-1 -21 15 -52 23 -45 2 3 -2 19 -9 35 -10 23 -14 25 -14
10z"/>
<path d="M2930 2582 c0 -4 9 -16 21 -25 28 -25 22 -63 -10 -59 -26 2 -54 -15
-45 -29 18 -30 94 19 94 61 0 11 -9 29 -20 40 -20 20 -40 26 -40 12z"/>
<path d="M2866 2558 c-9 -12 -15 -32 -15 -43 1 -20 1 -20 6 0 3 11 12 28 21
38 8 9 13 20 10 23 -3 3 -13 -5 -22 -18z"/>
<path d="M2456 2538 c-9 -12 -16 -27 -16 -32 0 -6 7 0 16 12 9 13 26 27 38 32
l21 9 -22 0 c-12 1 -29 -9 -37 -21z"/>
<path d="M2025 2500 c-3 -6 1 -7 9 -4 18 7 21 14 7 14 -6 0 -13 -4 -16 -10z"/>
<path d="M1770 2420 c20 -13 83 -13 75 0 -3 6 -25 10 -48 10 -31 0 -38 -3 -27
-10z"/>
<path d="M2493 2394 c-20 -41 -12 -61 32 -83 20 -10 33 -11 51 -2 29 13 30 22
4 38 -16 11 -22 10 -39 -8 l-19 -21 -11 20 c-16 30 -14 43 11 69 18 20 19 23
5 23 -10 0 -25 -16 -34 -36z"/>
<path d="M2580 2426 c0 -2 8 -10 18 -17 15 -13 16 -12 3 4 -13 16 -21 21 -21
13z"/>
<path d="M1565 2410 c-13 -6 1 -8 43 -6 35 2 66 7 69 10 10 9 -89 6 -112 -4z"/>
<path d="M1480 2400 l-45 -7 42 -1 c23 -1 45 3 48 8 3 6 5 9 3 8 -2 0 -23 -4
-48 -8z"/>
<path d="M1398 2383 c7 -3 16 -2 19 1 4 3 -2 6 -13 5 -11 0 -14 -3 -6 -6z"/>
<path d="M1247 2359 c-17 -10 -18 -20 -12 -93 11 -142 34 -328 41 -335 3 -3 3
14 0 39 -10 71 -26 280 -26 333 0 34 4 47 14 47 8 0 18 5 21 10 8 13 -15 12
-38 -1z"/>
<path d="M1926 2355 c-10 -7 -16 -17 -15 -22 2 -4 15 2 28 15 26 24 17 30 -13
7z"/>
<path d="M1777 2335 c-4 -8 -2 -17 3 -20 6 -4 10 3 10 14 0 25 -6 27 -13 6z"/>
<path d="M1816 2331 c-10 -11 -16 -26 -13 -33 4 -9 6 -7 6 4 1 9 11 24 23 32
12 9 18 16 12 16 -6 0 -19 -9 -28 -19z"/>
<path d="M1612 2299 c-12 -25 -22 -52 -21 -60 0 -8 11 8 25 36 13 27 23 54 21
59 -2 6 -13 -10 -25 -35z"/>
<path d="M1701 2295 l1 -50 8 40 c5 22 4 44 -1 50 -5 5 -9 -11 -8 -40z"/>
<path d="M1455 2304 c-15 -14 -24 -28 -21 -31 3 -4 12 0 19 9 6 8 23 22 37 32
17 11 19 16 9 16 -9 0 -28 -11 -44 -26z"/>
<path d="M1535 2320 c-3 -5 -2 -10 4 -10 5 0 12 -15 14 -32 l4 -33 1 37 c1 20
8 39 15 41 6 3 2 6 -10 6 -12 1 -25 -3 -28 -9z"/>
<path d="M1868 2307 c-3 -19 -2 -25 4 -19 6 6 8 18 6 28 -3 14 -5 12 -10 -9z"/>
<path d="M1950 2301 c0 -7 -10 -22 -22 -32 l-23 -20 23 11 c24 12 39 36 28 47
-3 4 -6 1 -6 -6z"/>
<path d="M1640 2288 c0 -9 5 -20 10 -23 13 -8 13 5 0 25 -8 13 -10 13 -10 -2z"/>
<path d="M2717 2268 c3 -18 16 -64 29 -103 13 -38 20 -54 17 -35 -4 19 -7 47
-7 62 -1 15 -7 33 -13 40 -7 6 -13 22 -13 34 0 13 -4 26 -10 29 -6 4 -7 -6 -3
-27z"/>
<path d="M1350 2270 c0 -5 4 -10 9 -10 6 0 13 5 16 10 3 6 -1 10 -9 10 -9 0
-16 -4 -16 -10z"/>
<path d="M1507 2264 c3 -10 -7 -26 -28 -44 -19 -16 -29 -29 -23 -30 10 0 74
61 74 72 0 3 -7 8 -14 11 -10 4 -13 1 -9 -9z"/>
<path d="M2805 2232 c-16 -10 -32 -18 -34 -19 -2 -2 -1 -6 2 -9 9 -10 65 15
71 32 7 17 -1 17 -39 -4z"/>
<path d="M1356 2225 c-3 -9 0 -15 9 -15 9 0 12 6 9 15 -4 8 -7 15 -9 15 -2 0
-5 -7 -9 -15z"/>
<path d="M1660 2200 c0 -5 5 -10 11 -10 5 0 7 5 4 10 -3 6 -8 10 -11 10 -2 0
-4 -4 -4 -10z"/>
<path d="M1711 2189 c-13 -11 -21 -23 -17 -27 4 -4 14 1 21 11 13 18 14 17 18
-5 3 -18 5 -15 6 10 1 37 3 37 -28 11z"/>
<path d="M1570 2168 c0 -18 4 -39 9 -47 6 -9 9 2 8 33 0 25 -4 46 -9 46 -4 0
-8 -15 -8 -32z"/>
<path d="M2146 2178 c-9 -12 -16 -35 -16 -51 0 -21 -4 -28 -14 -24 -8 3 -16 1
-18 -4 -7 -22 -181 -81 -235 -80 -29 0 -55 -4 -58 -9 -4 -6 6 -7 25 -4 39 8
38 1 -4 -24 -28 -17 -70 -23 -231 -36 -109 -8 -200 -18 -204 -22 -3 -4 35 -4
84 -1 132 8 138 5 147 -73 4 -36 9 -89 12 -119 3 -45 8 -56 25 -63 19 -6 20
-5 12 11 -6 10 -6 22 -1 27 5 5 6 23 2 39 l-6 30 -6 -35 c-3 -19 -6 18 -6 82
l0 118 45 -2 c25 -1 55 2 66 6 24 8 27 2 67 -104 21 -57 27 -65 49 -64 29 2
272 84 266 91 -3 2 -61 -14 -129 -36 -69 -23 -131 -41 -139 -41 -15 0 -59 117
-59 157 0 20 79 55 345 151 39 13 74 29 80 34 5 5 -10 2 -34 -7 -24 -8 -47
-15 -52 -15 -15 0 -10 44 7 68 8 12 11 22 5 22 -5 0 -17 -10 -25 -22z m-499
-355 c-3 -10 -5 -2 -5 17 0 19 2 27 5 18 2 -10 2 -26 0 -35z"/>
<path d="M2560 2160 c0 -5 5 -10 10 -10 6 0 10 5 10 10 0 6 -4 10 -10 10 -5 0
-10 -4 -10 -10z"/>
<path d="M1651 2144 c0 -11 3 -14 6 -6 3 7 2 16 -1 19 -3 4 -6 -2 -5 -13z"/>
<path d="M2478 2138 c9 -9 15 -9 24 0 9 9 7 12 -12 12 -19 0 -21 -3 -12 -12z"/>
<path d="M2580 2126 c0 -9 5 -16 10 -16 6 0 10 4 10 9 0 6 -4 13 -10 16 -5 3
-10 -1 -10 -9z"/>
<path d="M2405 2120 c-3 -5 -1 -10 4 -10 6 0 11 5 11 10 0 6 -2 10 -4 10 -3 0
-8 -4 -11 -10z"/>
<path d="M1759 2075 l-16 -49 -17 33 c-26 50 -30 30 -5 -22 l23 -46 18 52 c10
29 17 59 16 67 -2 8 -11 -7 -19 -35z"/>
<path d="M2298 2103 c7 -3 16 -2 19 1 4 3 -2 6 -13 5 -11 0 -14 -3 -6 -6z"/>
<path d="M2621 2096 c-20 -7 -30 -15 -24 -19 13 -8 63 12 63 25 0 4 -1 8 -2 7
-2 0 -19 -6 -37 -13z"/>
<path d="M1615 2091 c-22 -9 -33 -42 -27 -84 4 -26 7 -28 49 -26 24 2 47 7 50
12 4 6 -10 8 -35 5 -47 -7 -68 16 -29 32 l22 9 -22 0 c-16 1 -23 7 -23 21 0
14 7 20 23 21 12 0 31 4 42 9 18 8 18 9 -5 9 -14 0 -34 -4 -45 -8z"/>
<path d="M1342 2067 c-12 -13 -22 -27 -22 -31 0 -5 9 3 21 18 24 30 40 32 74
10 15 -10 25 -12 25 -6 0 14 -33 32 -58 32 -10 0 -28 -10 -40 -23z"/>
<path d="M1474 2074 c3 -9 7 -37 7 -62 1 -26 4 -37 6 -24 5 27 7 27 49 1 19
-11 34 -16 34 -11 0 6 -14 19 -31 30 l-31 19 31 11 c34 12 40 26 15 36 -9 4
-13 2 -8 -5 8 -13 -13 -29 -38 -29 -27 0 -23 38 5 43 15 3 12 5 -12 6 -26 1
-32 -2 -27 -15z"/>
<path d="M3216 2025 c-103 -95 -207 -142 -396 -179 -14 -3 9 -3 50 -1 68 3
114 15 178 47 20 10 26 8 52 -23 21 -25 29 -29 30 -17 0 10 -9 22 -20 28 -31
17 -24 33 30 64 48 29 158 131 149 140 -2 2 -35 -25 -73 -59z"/>
<path d="M2440 2070 c0 -5 5 -10 10 -10 6 0 10 5 10 10 0 6 -4 10 -10 10 -5 0
-10 -4 -10 -10z"/>
<path d="M2766 2065 c-3 -8 -1 -15 4 -15 6 0 10 7 10 15 0 8 -2 15 -4 15 -2 0
-6 -7 -10 -15z"/>
<path d="M1810 2060 c0 -5 5 -10 10 -10 6 0 10 5 10 10 0 6 -4 10 -10 10 -5 0
-10 -4 -10 -10z"/>
<path d="M1853 2063 c9 -2 25 -2 35 0 9 3 1 5 -18 5 -19 0 -27 -2 -17 -5z"/>
<path d="M2396 2055 c-9 -26 -7 -32 5 -12 6 10 9 21 6 23 -2 3 -7 -2 -11 -11z"/>
<path d="M2840 2061 c0 -5 7 -11 15 -15 21 -8 76 4 69 15 -7 12 -84 12 -84 0z"/>
<path d="M2250 2025 c-13 -14 -19 -25 -14 -25 8 1 50 50 41 50 -2 0 -14 -11
-27 -25z"/>
<path d="M2510 2040 c0 -5 5 -10 10 -10 6 0 10 5 10 10 0 6 -4 10 -10 10 -5 0
-10 -4 -10 -10z"/>
<path d="M1374 2018 c-3 -4 6 -8 20 -8 31 0 33 -11 8 -33 -24 -22 -31 -21 -59
5 -13 12 -23 16 -23 10 0 -14 40 -42 61 -42 9 0 30 15 47 34 l31 34 -40 4
c-22 2 -43 0 -45 -4z"/>
<path d="M2310 2011 c0 -5 5 -13 10 -16 6 -3 10 -2 10 4 0 5 -4 13 -10 16 -5
3 -10 2 -10 -4z"/>
<path d="M2030 1991 c0 -6 4 -13 10 -16 6 -3 7 1 4 9 -7 18 -14 21 -14 7z"/>
<path d="M2131 1984 c0 -11 3 -14 6 -6 3 7 2 16 -1 19 -3 4 -6 -2 -5 -13z"/>
<path d="M2280 1976 c0 -2 8 -10 18 -17 15 -13 16 -12 3 4 -13 16 -21 21 -21
13z"/>
<path d="M2061 1961 c-7 -5 -12 -13 -10 -18 2 -5 12 -1 22 9 18 19 12 24 -12
9z"/>
<path d="M1912 1908 c-2 -50 7 -59 38 -37 12 8 10 9 -7 4 -20 -5 -22 -2 -26
37 l-4 43 -1 -47z"/>
<path d="M2168 1943 c-10 -2 -18 -8 -18 -13 0 -10 38 -1 46 11 5 9 1 10 -28 2z"/>
<path d="M2389 1945 c-3 -15 -1 -52 4 -65 2 -8 10 -53 16 -100 5 -47 13 -96
16 -110 7 -31 13 -61 20 -120 4 -24 9 -48 12 -54 3 -5 8 -25 10 -45 5 -56 12
-81 24 -81 22 0 19 35 -11 182 -18 84 -34 169 -36 188 -3 19 -7 58 -10 85 -4
28 -11 56 -16 63 -19 23 -3 22 60 -4 34 -13 85 -29 114 -33 80 -14 179 -20
173 -11 -2 4 -40 10 -82 13 -93 6 -201 38 -241 72 -28 23 -51 32 -53 20z"/>
<path d="M2000 1925 c0 -5 5 -17 10 -25 5 -8 10 -10 10 -5 0 6 -5 17 -10 25
-5 8 -10 11 -10 5z"/>
<path d="M1280 1908 c0 -9 24 -8 65 2 25 7 23 8 -17 6 -27 0 -48 -4 -48 -8z"/>
<path d="M2060 1910 c0 -5 5 -10 10 -10 6 0 10 5 10 10 0 6 -4 10 -10 10 -5 0
-10 -4 -10 -10z"/>
<path d="M3225 1909 c-16 -5 -36 -7 -43 -4 -8 3 -10 0 -6 -7 5 -7 2 -9 -9 -5
-9 3 -18 0 -21 -9 -3 -8 -2 -13 3 -10 4 3 23 7 42 10 41 5 114 35 84 35 -11
-1 -33 -5 -50 -10z"/>
<path d="M2178 1883 c-10 -2 -18 -9 -18 -14 0 -6 7 -6 18 -1 9 5 24 12 32 15
13 5 13 5 0 5 -8 0 -23 -2 -32 -5z"/>
<path d="M3215 1830 c-17 -52 -85 -139 -134 -172 -47 -32 -103 -22 -126 22
-12 23 -12 30 0 46 12 16 17 17 34 7 49 -31 120 5 159 78 15 28 17 35 5 20
-40 -54 -95 -101 -117 -101 -24 0 -51 22 -40 33 3 3 3 10 0 16 -4 6 -26 -9
-51 -34 -24 -25 -46 -45 -49 -45 -3 0 -7 28 -9 63 l-3 62 -2 -76 c-2 -71 -4
-79 -38 -123 -57 -72 -34 -65 27 9 30 35 56 65 59 65 3 0 13 -14 22 -30 60
-105 211 -16 274 162 8 22 12 43 10 45 -2 2 -12 -19 -21 -47z"/>
<path d="M2300 1753 c-256 -40 -338 -61 -331 -84 9 -32 61 -317 67 -369 2 -19
11 -75 19 -125 42 -244 42 -252 5 -240 -11 3 -20 2 -20 -3 0 -5 13 -12 29 -15
31 -6 38 -20 46 -81 13 -97 36 -174 55 -179 25 -6 172 9 228 24 47 13 46 10
32 114 -5 38 -7 72 -5 75 2 4 39 1 82 -5 l78 -10 -3 -49 c-7 -90 30 -165 93
-190 18 -6 17 -9 -10 -31 -17 -13 -39 -24 -49 -25 -14 0 -17 -3 -9 -11 7 -7
22 -3 49 13 33 20 53 23 131 23 51 0 93 -3 93 -7 0 -28 -126 -128 -162 -128
-11 0 -16 -4 -13 -10 9 -15 109 -12 160 5 25 9 50 13 56 9 15 -9 0 -85 -22
-110 -26 -28 -24 -34 14 -33 39 0 123 32 120 45 -1 5 24 20 55 32 101 40 125
75 37 55 -42 -10 -45 -9 -40 8 7 21 -11 59 -27 59 -9 0 -9 -3 0 -12 21 -21 14
-63 -17 -90 -16 -15 -30 -30 -32 -35 -2 -6 -21 -13 -43 -16 l-38 -6 6 31 c3
17 6 44 6 60 0 25 7 32 50 52 27 13 47 26 43 29 -3 4 12 26 34 50 23 24 44 54
48 66 3 11 10 21 14 21 5 0 42 -22 82 -49 41 -27 76 -47 79 -44 7 6 -37 39
-102 76 -40 22 -56 37 -52 47 19 52 15 116 -12 185 -7 20 -7 20 14 1 12 -11
22 -24 22 -30 0 -6 11 -21 24 -34 13 -12 41 -44 62 -72 21 -27 40 -48 42 -45
2 2 -38 59 -90 127 -105 136 -161 227 -156 255 2 13 -4 19 -24 21 -31 4 -36
-9 -13 -28 8 -6 17 -22 21 -33 4 -12 18 -35 32 -52 17 -20 20 -31 12 -33 -8
-3 -18 1 -24 9 -6 8 -18 16 -26 17 -8 2 -37 10 -65 17 -50 13 -91 8 -45 -6 95
-26 120 -38 158 -73 77 -71 89 -177 30 -276 -51 -85 -152 -164 -195 -154 -18
5 -24 3 -19 -5 4 -6 -2 -14 -16 -20 -34 -12 -98 -21 -97 -13 0 4 19 21 42 37
42 30 107 108 107 127 0 6 -8 7 -17 3 -30 -11 -111 -18 -129 -11 -16 6 -15 10
11 31 37 30 28 31 -29 3 l-45 -21 -36 28 c-43 32 -74 94 -75 146 0 41 46 118
88 148 36 25 115 51 157 51 39 0 47 15 13 23 -66 16 -178 -37 -229 -108 -18
-25 -38 -44 -43 -42 -6 3 -44 10 -84 17 -75 14 -102 30 -85 53 6 8 5 20 -3 37
-11 20 -14 22 -19 8 -4 -10 -4 -22 -1 -27 4 -6 9 -41 12 -78 3 -37 9 -88 14
-113 6 -31 5 -47 -3 -52 -17 -10 -144 -30 -201 -32 l-50 -1 -13 44 c-14 50
-54 282 -83 484 -11 76 -24 157 -29 180 -5 23 -17 98 -27 165 -15 106 -15 125
-3 133 29 18 212 48 295 49 l51 0 7 -37 c4 -21 9 -135 13 -254 l6 -216 -34
-26 c-19 -14 -59 -37 -89 -50 -32 -15 -47 -26 -35 -26 11 -1 50 14 88 33 65
33 67 33 67 13 1 -47 12 -162 16 -166 12 -12 13 15 6 105 -8 96 -7 99 16 121
17 15 22 28 17 40 -6 16 -8 15 -16 -6 -5 -13 -11 -22 -13 -20 -2 2 -7 99 -10
214 -6 196 -13 266 -30 294 -7 11 -19 12 -66 4z"/>
<path d="M1371 1664 c-100 -27 -175 -79 -253 -175 -41 -51 -80 -124 -71 -133
12 -12 -8 -6 -45 13 -20 10 -48 21 -62 22 -23 4 -25 2 -22 -36 3 -46 12 -105
47 -325 14 -85 25 -162 25 -172 0 -13 -16 -17 -97 -23 -65 -5 -91 -10 -77 -16
12 -4 24 -19 27 -37 11 -55 87 -123 134 -121 10 0 4 5 -14 10 -41 12 -103 84
-103 120 0 27 1 27 73 32 87 5 147 20 129 31 -7 4 -10 17 -6 34 9 37 21 49 36
34 20 -20 31 -14 24 13 -5 20 -3 23 11 18 10 -3 31 -18 46 -32 24 -22 27 -23
21 -6 -11 27 -41 51 -91 72 -47 20 -50 25 -29 42 12 10 24 5 60 -22 25 -20 62
-38 83 -41 88 -15 198 31 248 104 37 54 48 159 20 190 -20 22 -13 53 11 48 9
-2 26 -15 36 -29 16 -21 18 -31 9 -47 -14 -26 -14 -105 -1 -118 10 -10 -16
-89 -51 -154 -37 -68 -69 -190 -69 -261 l0 -68 68 20 c38 12 113 23 175 26 59
3 107 9 107 12 0 3 -9 30 -20 59 -22 57 -26 116 -10 156 9 24 14 26 74 26 71
0 76 -5 76 -67 0 -20 3 -33 7 -29 4 3 6 47 4 96 -3 112 4 127 59 122 38 -4 41
-6 36 -31 -3 -14 -8 -48 -12 -76 -5 -41 -4 -48 7 -38 7 7 14 34 15 60 2 27 6
62 9 79 5 31 5 31 -41 37 -82 9 -94 -3 -94 -93 l0 -45 -60 -3 c-48 -2 -60 1
-60 13 0 8 23 54 50 102 78 135 101 241 69 320 -12 27 -14 36 -17 78 -2 17 -4
18 -12 5 -5 -8 -10 -10 -10 -4 0 6 -18 29 -40 52 -28 29 -38 46 -34 59 6 16 5
16 -10 -2 -16 -18 -17 -18 -12 -2 3 10 6 23 6 28 0 6 5 7 11 3 15 -9 -21 53
-39 68 -7 6 -15 8 -19 4 -4 -3 3 -13 15 -22 26 -18 29 -60 7 -91 -9 -13 -34
-25 -66 -32 -55 -12 -68 -9 -52 11 15 19 23 58 12 58 -5 0 -8 14 -7 32 3 30 1
32 -47 44 -64 17 -126 17 -194 -2z m367 -253 c7 -4 12 -12 11 -17 -3 -13 13
-48 25 -56 8 -5 7 -11 -1 -19 -6 -6 -9 -17 -7 -23 3 -7 -7 -18 -22 -25 -23
-10 -30 -9 -50 10 -13 12 -30 37 -39 56 -15 31 -15 36 -1 59 17 25 58 32 84
15z m-438 -121 c12 -7 12 -12 0 -35 -15 -28 -33 -28 -38 -1 -4 21 4 46 15 46
4 0 15 -4 23 -10z m377 -5 c3 -9 3 -18 1 -21 -9 -9 -38 8 -38 22 0 19 29 18
37 -1z m-517 -36 c0 -5 4 -9 10 -9 5 0 7 7 4 15 -5 12 -2 13 12 8 30 -11 41
-26 36 -45 -2 -10 1 -18 7 -18 6 0 11 8 11 17 0 13 3 14 12 5 6 -6 11 -33 10
-59 0 -26 4 -53 9 -59 26 -32 -25 -96 -65 -81 -28 11 -29 36 -4 70 35 46 38
61 19 90 -14 21 -20 24 -30 14 -10 -10 -12 -9 -9 4 1 8 -10 28 -27 42 -17 15
-22 24 -12 21 9 -3 17 -10 17 -15z m-26 -18 c10 -15 -12 -61 -28 -61 -21 0
-29 17 -22 46 6 24 39 34 50 15z m-94 -66 c0 -8 9 -35 21 -61 l20 -48 -23 -18
c-27 -20 -67 -24 -73 -5 -2 6 -6 35 -9 63 -5 42 -3 55 15 78 17 21 24 24 35
15 8 -6 14 -17 14 -24z m520 0 c0 -19 -4 -35 -10 -35 -11 0 -14 53 -3 63 11
12 13 8 13 -28z m-358 -2 c2 -10 -10 -35 -26 -56 -27 -35 -29 -41 -18 -69 l11
-31 -29 28 c-29 28 -40 65 -20 65 5 0 7 -8 3 -17 -5 -14 -1 -13 18 4 18 18 21
25 11 35 -7 7 -12 21 -11 33 0 20 0 20 9 0 5 -11 9 -15 9 -8 1 7 8 10 18 6 12
-5 15 -2 10 10 -3 9 -2 17 3 17 5 0 10 -8 12 -17z m-92 -37 c0 -3 -4 -8 -10
-11 -5 -3 -10 -1 -10 4 0 6 5 11 10 11 6 0 10 -2 10 -4z"/>
<path d="M2287 1643 c-4 -3 -7 -11 -7 -17 0 -6 5 -5 12 2 6 6 9 14 7 17 -3 3
-9 2 -12 -2z"/>
<path d="M830 1633 c-37 -4 -282 -48 -340 -61 l-35 -8 2 -149 c1 -82 6 -152
10 -156 5 -5 6 61 4 145 l-3 152 50 12 c44 10 186 31 330 48 23 3 40 9 37 15
-4 5 -9 8 -13 7 -4 0 -23 -3 -42 -5z"/>
<path d="M2264 1595 c-8 -19 8 -52 22 -47 11 3 6 43 -7 56 -5 6 -11 2 -15 -9z"/>
<path d="M2120 1571 c5 -11 10 -29 10 -40 0 -26 16 -27 29 -2 8 14 5 23 -13
40 -28 26 -40 27 -26 2z"/>
<path d="M2794 1508 c8 -54 62 -228 77 -248 9 -12 10 -11 4 5 -17 50 -65 242
-65 263 0 12 -5 22 -11 22 -8 0 -9 -14 -5 -42z"/>
<path d="M2240 1510 c0 -6 8 -22 17 -37 16 -24 16 -26 -2 -39 -18 -14 -18 -14
2 -14 32 0 36 15 17 55 -17 37 -34 54 -34 35z"/>
<path d="M2915 1470 c12 -41 82 -198 99 -225 9 -14 22 -25 29 -25 8 0 9 2 1 8
-14 9 -75 130 -99 197 -20 53 -43 89 -30 45z"/>
<path d="M685 1430 c3 -5 8 -10 11 -10 2 0 4 5 4 10 0 6 -5 10 -11 10 -5 0 -7
-4 -4 -10z"/>
<path d="M618 1387 l-27 -22 20 -24 20 -25 -7 27 c-4 20 -1 33 11 47 24 26 17
25 -17 -3z"/>
<path d="M656 1381 c-4 -7 -5 -15 -2 -18 9 -9 19 4 14 18 -4 11 -6 11 -12 0z"/>
<path d="M2253 1363 c-16 -6 -18 -119 -2 -129 18 -11 29 17 27 74 -1 54 -4 62
-25 55z"/>
<path d="M2434 1339 c-3 -6 -1 -16 5 -22 8 -8 11 -5 11 11 0 24 -5 28 -16 11z"/>
<path d="M560 1329 c0 -5 5 -7 10 -4 6 3 10 8 10 11 0 2 -4 4 -10 4 -5 0 -10
-5 -10 -11z"/>
<path d="M747 1333 c-4 -3 -7 -13 -7 -22 0 -13 2 -13 9 -2 5 7 14 11 20 7 7
-5 9 -1 5 8 -7 17 -16 20 -27 9z"/>
<path d="M557 1283 c3 -7 11 -13 19 -13 8 0 14 6 14 13 0 7 -8 13 -19 13 -11
0 -17 -5 -14 -13z"/>
<path d="M528 1260 c-7 -20 11 -57 30 -65 12 -4 13 -3 3 9 -7 8 -16 27 -20 43
-5 19 -9 23 -13 13z"/>
<path d="M600 1240 c0 -5 5 -10 10 -10 6 0 10 5 10 10 0 6 -4 10 -10 10 -5 0
-10 -4 -10 -10z"/>
<path d="M889 1208 c4 -28 6 -29 9 -9 2 13 0 27 -5 32 -6 6 -7 -3 -4 -23z"/>
<path d="M2504 1224 c4 -9 1 -23 -5 -30 -8 -9 -8 -14 -1 -14 6 0 14 5 17 10
15 25 45 9 69 -37 14 -27 25 -40 26 -30 0 25 -26 73 -45 80 -8 4 -15 13 -15
22 0 10 -9 15 -26 15 -20 0 -25 -4 -20 -16z"/>
<path d="M2883 1132 c0 -95 1 -98 4 -24 2 45 8 82 12 82 10 0 2 38 -9 45 -4 3
-7 -44 -7 -103z"/>
<path d="M641 1217 c2 -1 13 -9 24 -17 19 -14 19 -14 6 3 -7 9 -18 17 -24 17
-6 0 -8 -1 -6 -3z"/>
<path d="M3070 1200 c0 -5 5 -10 11 -10 5 0 7 5 4 10 -3 6 -8 10 -11 10 -2 0
-4 -4 -4 -10z"/>
<path d="M810 1193 c8 -3 21 -10 28 -16 9 -7 11 -6 6 7 -3 9 -16 16 -28 15
-14 0 -16 -2 -6 -6z"/>
<path d="M541 1164 c0 -11 3 -14 6 -6 3 7 2 16 -1 19 -3 4 -6 -2 -5 -13z"/>
<path d="M2131 1159 c-1 -9 9 -24 22 -35 22 -19 22 -19 6 1 -9 11 -19 27 -22
35 -5 13 -6 13 -6 -1z"/>
<path d="M590 1143 c0 -15 19 -37 26 -31 3 4 -1 14 -10 23 -9 9 -16 13 -16 8z"/>
<path d="M745 1130 c-15 -17 -16 -20 -3 -20 9 0 18 9 21 20 3 11 4 20 3 20 -2
0 -11 -9 -21 -20z"/>
<path d="M3080 1129 c0 -21 178 -284 186 -276 3 2 -11 27 -30 55 -19 28 -58
92 -86 142 -48 82 -70 107 -70 79z"/>
<path d="M630 1110 c0 -5 5 -10 11 -10 5 0 7 5 4 10 -3 6 -8 10 -11 10 -2 0
-4 -4 -4 -10z"/>
<path d="M2510 1085 c0 -25 14 -33 25 -15 3 6 1 10 -5 10 -7 0 -10 7 -6 15 3
8 1 15 -4 15 -6 0 -10 -11 -10 -25z"/>
<path d="M2596 1075 c-3 -8 -1 -15 4 -15 6 0 10 7 10 15 0 8 -2 15 -4 15 -2 0
-6 -7 -10 -15z"/>
<path d="M665 1059 c-4 -6 -5 -12 -2 -15 2 -3 7 2 10 11 7 17 1 20 -8 4z"/>
<path d="M2533 1037 c-15 -12 -39 -32 -53 -44 -14 -13 -28 -23 -32 -23 -5 0
-8 -4 -8 -10 0 -19 20 -10 61 27 45 41 53 37 64 -27 8 -48 21 -68 35 -54 14
14 -9 142 -27 148 -6 3 -24 -5 -40 -17z"/>
<path d="M670 1010 c0 -5 5 -10 10 -10 6 0 10 5 10 10 0 6 -4 10 -10 10 -5 0
-10 -4 -10 -10z"/>
<path d="M713 983 c-15 -5 -17 -23 -4 -23 5 0 11 7 15 15 3 8 4 15 3 14 -1 0
-8 -3 -14 -6z"/>
<path d="M2945 944 c-20 -20 -16 -48 8 -52 14 -3 17 3 15 32 -2 20 -4 36 -5
36 -1 0 -9 -7 -18 -16z"/>
<path d="M1340 940 c-11 -7 -5 -10 23 -10 20 0 37 5 37 10 0 13 -40 13 -60 0z"/>
<path d="M1208 933 c7 -3 16 -2 19 1 4 3 -2 6 -13 5 -11 0 -14 -3 -6 -6z"/>
<path d="M2766 895 c-4 -10 1 -15 14 -15 11 0 24 -8 29 -19 6 -10 19 -21 30
-24 17 -4 19 -2 10 21 -6 15 -15 32 -21 39 -14 18 -55 16 -62 -2z"/>
<path d="M1980 866 c0 -8 -17 -20 -37 -27 -32 -10 -35 -13 -18 -19 18 -7 17
-8 -8 -15 -27 -7 -27 -9 -21 -59 4 -28 8 -52 9 -53 1 -2 23 4 48 13 32 11 47
21 47 34 0 9 3 32 6 49 5 23 3 31 -8 31 -10 0 -13 -10 -10 -39 4 -36 1 -41
-27 -56 -38 -19 -51 -13 -51 25 0 20 8 35 25 46 14 9 23 20 20 24 -3 4 4 10
15 13 17 4 31 47 15 47 -3 0 -5 -6 -5 -14z"/>
<path d="M2908 866 c-22 -16 -23 -26 -3 -26 8 0 15 5 15 10 0 6 5 10 11 10 7
0 8 -11 3 -32 -6 -29 -5 -31 10 -19 21 17 21 57 0 65 -19 7 -15 8 -36 -8z"/>
<path d="M445 850 c-4 -6 8 -10 29 -10 20 0 36 5 36 10 0 6 -13 10 -29 10 -17
0 -33 -4 -36 -10z"/>
<path d="M755 803 c5 -10 13 -43 20 -73 15 -70 24 -90 41 -90 15 0 19 16 5 24
-4 3 -14 39 -21 81 -11 64 -16 75 -32 75 -15 0 -18 -4 -13 -17z"/>
<path d="M688 803 c6 -2 18 -2 25 0 6 3 1 5 -13 5 -14 0 -19 -2 -12 -5z"/>
<path d="M1100 789 c0 -24 23 -21 28 4 2 10 -3 17 -12 17 -10 0 -16 -9 -16
-21z"/>
<path d="M1210 790 c0 -30 -26 -75 -56 -99 -15 -12 -22 -21 -16 -21 5 0 24 16
42 36 42 48 64 104 40 104 -5 0 -10 -9 -10 -20z"/>
<path d="M638 793 c6 -2 18 -2 25 0 6 3 1 5 -13 5 -14 0 -19 -2 -12 -5z"/>
<path d="M548 783 c-16 -2 -28 -9 -28 -14 0 -11 46 -4 85 12 18 7 17 8 -5 7
-14 -1 -37 -3 -52 -5z"/>
<path d="M2934 744 c-8 -33 21 -68 36 -44 5 8 10 27 10 43 0 37 -37 38 -46 1z"/>
<path d="M15 750 c-8 -13 15 -13 35 0 12 8 11 10 -7 10 -12 0 -25 -4 -28 -10z"/>
<path d="M753 658 c-30 -37 -42 -152 -18 -162 10 -3 12 8 8 53 -4 42 -1 66 11
89 17 33 16 42 -1 20z"/>
<path d="M1057 653 c-10 -10 -8 -45 2 -39 11 7 21 46 12 46 -4 0 -11 -3 -14
-7z"/>
<path d="M1607 649 c-88 -14 -150 -71 -145 -132 3 -34 2 -38 -17 -32 -46 13
-134 25 -188 25 -100 0 -242 -53 -329 -123 -21 -17 -41 -28 -44 -25 -3 4 -11
27 -17 52 -7 25 -15 46 -19 46 -40 0 -48 -1 -48 -10 0 -5 8 -10 19 -10 13 0
21 -9 25 -30 3 -16 9 -44 12 -60 4 -21 1 -36 -9 -48 -34 -37 -57 -109 -60
-185 -2 -68 -4 -74 -20 -65 -30 16 -75 86 -87 138 -13 56 -5 114 29 194 18 41
24 47 43 41 l23 -6 -21 18 c-12 10 -27 27 -33 38 -12 19 -12 18 -7 -4 3 -16
-6 -48 -24 -86 -62 -130 -48 -240 42 -327 54 -52 95 -65 82 -26 -15 50 -5 145
22 204 18 39 28 53 31 42 3 -10 13 -18 23 -18 16 0 18 5 13 35 -6 37 11 53 42
41 12 -4 13 -11 4 -33 -21 -53 -9 -102 24 -103 4 0 7 15 7 33 l1 32 34 -40
c25 -29 33 -34 29 -19 -7 26 11 40 31 24 15 -12 41 -2 83 35 20 17 22 17 16 2
-4 -11 -1 -17 7 -17 19 1 44 21 52 43 4 9 17 17 30 17 13 0 32 9 42 20 23 25
47 25 63 0 17 -28 40 -25 55 8 20 45 36 52 74 31 19 -11 40 -19 47 -19 8 0 16
-6 19 -12 3 -10 9 -10 25 -1 17 10 25 7 60 -28 60 -58 95 -136 89 -196 -3 -26
-8 -60 -12 -74 -4 -18 -2 -26 7 -26 9 0 14 15 16 45 1 25 7 49 14 54 10 6 10
8 1 8 -8 0 -13 14 -13 35 0 49 -49 140 -107 200 l-48 50 40 3 c99 6 224 53
245 91 16 30 12 68 -9 88 -25 23 -125 60 -176 66 -22 2 -62 1 -88 -4z"/>
<path d="M2239 609 c-37 -5 -79 -13 -93 -19 l-27 -10 7 -92 c4 -51 10 -97 15
-102 5 -6 6 32 2 86 -5 79 -3 96 9 101 22 8 242 30 264 25 15 -2 21 -18 30
-73 l11 -70 2 83 1 82 -77 -1 c-43 -1 -108 -5 -144 -10z"/>
<path d="M1140 581 c0 -6 4 -12 9 -15 13 -9 71 5 65 15 -7 12 -74 11 -74 0z"/>
<path d="M1006 566 c-55 -17 -62 -41 -10 -31 40 7 64 21 64 36 0 11 -4 10 -54
-5z"/>
<path d="M2512 550 c-51 -21 -33 -73 24 -68 17 1 39 -4 48 -11 13 -11 19 -12
29 -2 9 10 8 11 -5 6 -12 -5 -18 -2 -18 8 0 12 -10 15 -44 14 -24 -1 -48 2
-53 6 -12 13 27 37 61 38 27 0 28 2 11 9 -25 11 -25 11 -53 0z"/>
<path d="M875 540 c-3 -5 -1 -10 4 -10 6 0 11 5 11 10 0 6 -2 10 -4 10 -3 0
-8 -4 -11 -10z"/>
<path d="M2620 523 c0 -4 5 -15 10 -23 8 -13 10 -13 10 2 0 9 -4 20 -10 23 -5
3 -10 3 -10 -2z"/>
<path d="M2208 383 c7 -3 16 -2 19 1 4 3 -2 6 -13 5 -11 0 -14 -3 -6 -6z"/>
<path d="M2283 379 c7 -4 49 -9 95 -13 63 -5 82 -3 82 6 0 10 -25 13 -94 13
-52 0 -89 -3 -83 -6z"/>
<path d="M2211 261 c-20 -15 -28 -17 -43 -7 -15 9 -21 8 -28 -4 -5 -8 -8 -19
-7 -25 5 -15 100 -17 109 -2 6 9 8 9 8 0 0 -19 18 -16 23 5 4 16 5 16 6 0 1
-17 36 -26 66 -18 6 2 18 3 28 4 9 0 17 6 17 13 0 7 5 13 12 13 9 0 9 3 0 12
-9 9 -15 9 -24 0 -9 -9 -15 -9 -26 0 -11 10 -18 8 -33 -11 l-19 -23 0 26 c0
30 -7 32 -38 10 -19 -13 -22 -13 -22 0 0 8 6 17 13 19 8 4 7 6 -3 6 -8 0 -26
-8 -39 -18z m139 -25 c0 -3 -4 -8 -10 -11 -5 -3 -10 -1 -10 4 0 6 5 11 10 11
6 0 10 -2 10 -4z"/>
<path d="M2590 269 c0 -5 5 -7 10 -4 6 3 10 8 10 11 0 2 -4 4 -10 4 -5 0 -10
-5 -10 -11z"/>
<path d="M2678 258 c5 -20 4 -21 -11 -10 -23 20 -77 6 -77 -19 0 -11 7 -19 16
-19 8 0 12 -4 9 -10 -3 -5 0 -10 9 -10 8 0 16 5 18 11 5 15 59 20 76 7 9 -8
16 -8 24 0 6 6 17 8 24 5 8 -3 14 1 14 11 0 22 17 20 23 -1 3 -11 5 -7 6 10 1
20 -4 27 -18 27 -11 0 -23 -5 -26 -10 -5 -8 -11 -7 -21 1 -11 9 -18 9 -26 1
-18 -18 -28 -14 -28 8 0 11 -4 20 -9 20 -5 0 -7 -10 -3 -22z m-28 -28 c0 -5
-4 -10 -10 -10 -5 0 -10 5 -10 10 0 6 5 10 10 10 6 0 10 -4 10 -10z m90 0 c0
-5 -4 -10 -10 -10 -5 0 -10 5 -10 10 0 6 5 10 10 10 6 0 10 -4 10 -10z"/>
<path d="M1914 256 c-10 -8 -17 -17 -14 -19 3 -3 16 3 29 14 27 22 15 26 -15
5z"/>
<path d="M1359 246 c17 -20 -12 -40 -49 -32 -17 3 -30 1 -30 -4 0 -20 78 -16
99 5 12 11 12 17 1 29 -7 9 -17 16 -22 16 -6 0 -6 -5 1 -14z"/>
<path d="M2416 244 c-10 -27 -7 -34 19 -34 14 0 25 4 25 9 0 20 -13 41 -25 41
-7 0 -16 -7 -19 -16z"/>
<path d="M2499 258 c-1 -2 -3 -14 -4 -26 -2 -20 1 -23 21 -19 12 2 28 0 35 -4
18 -11 35 1 18 12 -12 8 -12 11 1 18 8 6 11 13 7 18 -4 4 -18 1 -30 -6 -15
-10 -22 -10 -25 -2 -3 9 -20 16 -23 9z"/>
<path d="M2831 246 c-16 -19 -6 -36 20 -36 15 0 20 6 17 22 -4 27 -21 33 -37
14z"/>
<path d="M1950 234 c0 -11 -5 -25 -12 -32 -9 -9 -9 -15 1 -24 7 -7 11 -8 10
-3 -1 6 1 23 6 38 4 15 5 31 1 34 -3 4 -6 -3 -6 -13z"/>
<path d="M1853 173 c-10 -15 -22 -32 -28 -36 -6 -5 -2 -6 8 -3 10 3 21 6 23 6
2 0 4 7 4 15 0 7 7 18 16 23 11 6 13 12 6 16 -6 4 -19 -6 -29 -21z"/>
<path d="M1258 128 c-31 -11 -32 -17 -17 -71 6 -21 16 -37 25 -37 8 0 55 16
104 35 49 19 99 35 110 35 38 0 20 19 -32 35 -58 17 -149 19 -190 3z m196 -16
c5 -9 -133 -62 -169 -65 -11 -1 -21 5 -23 16 -2 11 2 16 10 15 7 -2 12 3 10
11 -2 8 2 17 8 21 16 10 158 11 164 2z"/>
<path d="M2036 112 c-3 -6 -16 -8 -29 -5 -21 4 -21 3 3 -11 22 -13 26 -13 33
1 10 16 3 30 -7 15z"/>
<path d="M1893 55 c17 -19 35 -35 40 -35 6 0 -5 16 -24 35 -44 45 -56 45 -16
0z"/>
<path d="M1996 56 c29 -22 7 -33 -27 -14 -16 9 -29 13 -29 7 0 -19 53 -31 78
-18 l23 13 -23 13 c-31 17 -46 16 -22 -1z"/>
</g>
</svg>
