<?xml version="1.0" standalone="no"?>
<!DOCTYPE svg PUBLIC "-//W3C//DTD SVG 20010904//EN"
 "http://www.w3.org/TR/2001/REC-SVG-20010904/DTD/svg10.dtd">
<svg version="1.0" xmlns="http://www.w3.org/2000/svg"
 width="258.000000pt" height="346.000000pt" viewBox="0 0 258.000000 346.000000"
 preserveAspectRatio="xMidYMid meet">

<g transform="translate(0.000000,346.000000) scale(0.100000,-0.100000)"
fill="#000000" stroke="none">
<path d="M1578 3162 c-34 -7 -37 -86 -5 -106 36 -23 67 23 53 79 -6 25 -21 33
-48 27z m27 -53 c0 -24 -5 -34 -15 -34 -16 0 -25 37 -16 62 10 26 31 8 31 -28z"/>
<path d="M1160 3105 c0 -34 4 -55 11 -55 7 0 9 10 7 25 -3 14 -1 25 3 25 5 0
9 -7 9 -15 0 -22 15 -18 28 8 10 20 11 20 11 -12 1 -51 14 -29 17 29 3 59 -17
69 -33 18 l-10 -33 -13 33 c-18 48 -30 39 -30 -23z"/>
<path d="M1277 3108 c-9 -29 -15 -54 -13 -56 2 -2 14 3 25 10 18 11 23 11 31
-2 5 -8 12 -11 15 -8 8 8 -23 108 -34 108 -4 0 -15 -23 -24 -52z m33 -8 c0 -5
-4 -10 -10 -10 -5 0 -10 5 -10 10 0 6 5 10 10 10 6 0 10 -4 10 -10z"/>
<path d="M1362 3108 c3 -51 4 -53 33 -53 29 0 30 2 33 53 2 31 -1 52 -7 52 -6
0 -11 -20 -11 -45 0 -33 -4 -45 -15 -45 -11 0 -15 12 -15 45 0 25 -5 45 -11
45 -6 0 -9 -21 -7 -52z"/>
<path d="M1460 3106 c0 -31 5 -56 10 -56 6 0 10 11 10 25 0 14 4 25 9 25 5 0
12 -11 15 -25 11 -43 23 -27 22 28 -1 51 -2 52 -33 55 l-33 3 0 -55z m50 24
c0 -5 -7 -10 -15 -10 -8 0 -15 5 -15 10 0 6 7 10 15 10 8 0 15 -4 15 -10z"/>
<path d="M1680 3105 c0 -30 5 -55 10 -55 6 0 10 11 10 25 0 18 5 25 20 25 11
0 20 5 20 10 0 6 -9 10 -20 10 -11 0 -20 5 -20 10 0 6 9 10 19 10 11 0 23 5
26 10 4 6 -8 10 -29 10 l-36 0 0 -55z"/>
<path d="M1770 3105 c0 -54 0 -55 30 -55 17 0 30 5 30 10 0 6 -9 10 -20 10
-11 0 -20 7 -20 15 0 8 7 15 15 15 8 0 15 5 15 10 0 6 -7 10 -16 10 -9 0 -14
6 -11 13 2 6 11 11 21 9 9 -2 16 2 16 8 0 5 -13 10 -30 10 -30 0 -30 -1 -30
-55z"/>
<path d="M1859 3151 c-8 -67 -3 -105 13 -95 5 3 7 12 4 20 -10 25 14 25 26 0
17 -39 23 -32 23 27 0 51 0 52 -32 55 -18 2 -34 -2 -34 -7z m51 -21 c0 -5 -9
-10 -20 -10 -11 0 -20 5 -20 10 0 6 9 10 20 10 11 0 20 -4 20 -10z"/>
<path d="M1950 3105 c0 -30 5 -55 10 -55 6 0 10 11 10 25 0 14 5 25 10 25 6 0
15 -11 20 -25 5 -14 14 -25 20 -25 12 0 13 10 1 29 -6 9 -6 22 0 32 15 29 0
49 -37 49 l-34 0 0 -55z m60 25 c0 -5 -9 -10 -20 -10 -11 0 -20 5 -20 10 0 6
9 10 20 10 11 0 20 -4 20 -10z"/>
<path d="M2050 3105 l0 -55 35 0 c19 0 35 5 35 10 0 6 -11 10 -25 10 -16 0
-25 6 -25 15 0 8 9 15 20 15 11 0 20 5 20 10 0 6 -9 10 -20 10 -20 0 -29 19
-10 21 6 1 14 2 19 3 28 4 19 16 -12 16 l-37 0 0 -55z"/>
<path d="M2140 3105 c0 -30 5 -55 10 -55 6 0 10 25 10 55 0 30 -4 55 -10 55
-5 0 -10 -25 -10 -55z"/>
<path d="M2190 3106 c0 -31 5 -56 10 -56 6 0 10 11 10 25 0 14 4 25 10 25 5 0
12 -11 16 -25 10 -42 21 -28 20 28 -1 51 -2 52 -33 55 l-33 3 0 -55z m50 24
c0 -5 -7 -10 -15 -10 -8 0 -15 5 -15 10 0 6 7 10 15 10 8 0 15 -4 15 -10z"/>
<path d="M2292 3115 c-16 -62 -15 -67 8 -53 17 11 22 10 30 -2 5 -8 12 -11 16
-7 9 9 -18 99 -32 104 -5 2 -15 -17 -22 -42z m25 -17 c-3 -8 -6 -5 -6 6 -1 11
2 17 5 13 3 -3 4 -12 1 -19z"/>
<path d="M992 2855 c0 -66 3 -95 11 -95 8 0 12 23 11 73 -3 110 -3 117 -13
117 -5 0 -9 -43 -9 -95z"/>
<path d="M305 2919 c-4 -12 -3 -24 3 -28 5 -3 18 -34 27 -68 11 -38 23 -63 31
-63 8 0 14 3 14 7 0 18 -55 173 -61 173 -4 0 -11 -10 -14 -21z"/>
<path d="M1965 2911 c-6 -11 9 -23 19 -14 9 9 7 23 -3 23 -6 0 -12 -4 -16 -9z"/>
<path d="M1887 2893 c-11 -17 -6 -122 6 -131 9 -8 12 7 14 64 2 65 -6 90 -20
67z"/>
<path d="M430 2781 c0 -54 4 -91 10 -91 6 0 11 16 11 35 5 115 3 139 -8 143
-10 3 -13 -19 -13 -87z"/>
<path d="M494 2857 c14 -10 17 -23 14 -55 -2 -23 0 -42 4 -42 10 0 28 35 28
54 0 19 -35 56 -52 56 -6 0 -4 -6 6 -13z"/>
<path d="M570 2816 c0 -38 4 -56 13 -56 8 0 12 17 12 52 0 32 -5 53 -12 55
-10 3 -13 -11 -13 -51z"/>
<path d="M615 2860 c3 -5 10 -10 16 -10 5 0 9 5 9 10 0 6 -7 10 -16 10 -8 0
-12 -4 -9 -10z"/>
<path d="M667 2852 c-20 -22 -22 -63 -5 -80 19 -19 30 -14 18 7 -17 33 -11 41
30 41 46 0 55 22 18 41 -19 9 -21 9 -10 -2 19 -20 15 -29 -14 -29 -21 0 -25 4
-21 20 6 25 4 25 -16 2z"/>
<path d="M784 2815 c0 -40 4 -55 14 -55 10 0 12 14 10 52 -4 70 -23 73 -24 3z"/>
<path d="M844 2857 c14 -10 17 -23 14 -55 -2 -30 0 -42 9 -42 8 0 13 14 13 39
0 53 -8 71 -33 71 -20 0 -20 -1 -3 -13z"/>
<path d="M927 2852 c-21 -23 -22 -66 -1 -83 14 -11 15 -9 9 23 -4 21 -2 45 4
57 14 26 9 27 -12 3z"/>
<path d="M1066 2854 c-28 -28 -15 -94 18 -94 6 0 5 5 -2 12 -7 7 -12 20 -12
30 0 14 8 18 40 18 43 0 49 9 24 34 -20 21 -23 20 -17 -4 4 -16 0 -20 -21 -20
-24 0 -25 2 -16 20 13 24 7 26 -14 4z"/>
<path d="M1182 2815 c-1 -42 2 -55 13 -55 11 0 14 12 12 52 -3 71 -23 73 -25
3z"/>
<path d="M1230 2861 c0 -6 5 -13 10 -16 6 -3 10 1 10 9 0 9 -4 16 -10 16 -5 0
-10 -4 -10 -9z"/>
<path d="M1347 2852 c-20 -22 -22 -63 -5 -80 19 -19 30 -14 18 8 -15 28 -5 40
36 40 21 0 34 5 34 13 0 15 -20 37 -34 37 -6 0 -5 -5 2 -12 19 -19 14 -28 -14
-28 -21 0 -25 4 -21 20 6 25 4 25 -16 2z"/>
<path d="M1532 2784 c4 -116 23 -122 23 -7 0 62 -4 88 -13 91 -10 3 -12 -16
-10 -84z"/>
<path d="M1606 2845 c13 -20 14 -31 6 -55 -11 -31 -5 -39 16 -18 17 17 15 49
-4 76 -21 30 -38 28 -18 -3z"/>
<path d="M1671 2816 c3 -72 24 -76 24 -4 0 33 -5 53 -13 56 -9 3 -12 -11 -11
-52z"/>
<path d="M1720 2860 c0 -5 5 -10 10 -10 6 0 10 5 10 10 0 6 -4 10 -10 10 -5 0
-10 -4 -10 -10z"/>
<path d="M1808 2864 c7 -3 12 -25 12 -54 0 -43 9 -67 21 -55 3 2 2 28 -1 57
-4 43 -9 53 -25 55 -11 2 -14 0 -7 -3z"/>
<path d="M1965 2815 c0 -43 3 -55 15 -55 13 0 15 10 10 52 -7 70 -25 72 -25 3z"/>
<path d="M2208 2862 c7 -5 11 -24 9 -50 -2 -24 2 -47 8 -52 18 -15 21 -5 15
52 -4 43 -9 53 -25 56 -14 2 -16 0 -7 -6z"/>
<path d="M2285 2815 c0 -38 4 -55 13 -55 9 0 12 14 10 52 -4 70 -23 73 -23 3z"/>
<path d="M2330 2860 c0 -5 5 -10 10 -10 6 0 10 5 10 10 0 6 -4 10 -10 10 -5 0
-10 -4 -10 -10z"/>
<path d="M268 2812 c-9 -29 -13 -52 -8 -52 4 0 10 14 14 30 4 22 11 30 28 31
16 1 18 3 6 6 -9 2 -18 12 -20 20 -2 9 -10 -7 -20 -35z"/>
<path d="M1760 2845 c0 -8 5 -15 10 -15 6 0 10 7 10 15 0 8 -4 15 -10 15 -5 0
-10 -7 -10 -15z"/>
<path d="M2036 2844 c-10 -25 -7 -59 6 -72 17 -17 33 -15 18 3 -8 9 -10 29 -7
50 6 35 -6 48 -17 19z"/>
<path d="M2100 2845 c0 -8 5 -15 10 -15 6 0 10 7 10 15 0 8 -4 15 -10 15 -5 0
-10 -7 -10 -15z"/>
<path d="M2160 2845 c0 -8 5 -15 10 -15 6 0 10 7 10 15 0 8 -4 15 -10 15 -5 0
-10 -7 -10 -15z"/>
<path d="M1768 2809 c-10 -5 -18 -16 -18 -23 0 -18 28 -41 38 -31 4 4 1 10 -5
12 -19 7 -16 30 5 42 9 6 13 10 7 10 -5 0 -18 -4 -27 -10z"/>
<path d="M2168 2809 c-23 -13 -23 -45 -2 -53 22 -9 32 3 14 14 -12 8 -13 13
-2 30 14 23 13 23 -10 9z"/>
<path d="M1440 2664 c-19 -19 -31 -34 -27 -34 12 0 87 54 87 63 0 16 -27 3
-60 -29z"/>
<path d="M1753 2684 c-7 -18 11 -39 26 -30 17 11 13 46 -4 46 -9 0 -18 -7 -22
-16z"/>
<path d="M1590 2642 c0 -15 5 -33 10 -38 7 -7 2 -10 -17 -9 -15 1 -20 0 -11
-2 15 -4 18 -20 20 -106 l3 -102 35 -2 c30 -2 32 -1 13 7 -22 9 -23 15 -23
104 l0 95 28 4 27 4 -27 2 c-25 1 -28 5 -28 36 0 24 -5 35 -15 35 -10 0 -15
-10 -15 -28z"/>
<path d="M296 2589 c-32 -25 -35 -73 -6 -108 38 -45 130 -9 130 51 0 29 -30
68 -52 68 -10 0 -10 -2 0 -9 8 -4 16 -26 19 -48 6 -44 -13 -73 -47 -73 -42 0
-55 85 -18 120 29 26 8 26 -26 -1z"/>
<path d="M790 2603 c0 -2 6 -11 14 -19 22 -21 20 -147 -2 -167 -28 -24 -58
-29 -75 -13 -8 8 -17 12 -21 9 -3 -3 -1 9 4 27 11 40 10 39 57 56 l38 15 -35
-6 c-50 -8 -84 -36 -88 -73 -2 -23 2 -34 19 -42 26 -14 89 -6 101 12 7 10 11
9 22 -4 7 -10 20 -18 28 -18 17 0 38 20 38 35 0 5 -5 2 -11 -7 -5 -9 -15 -15
-22 -13 -8 4 -11 30 -9 91 2 52 -1 90 -8 98 -11 14 -50 28 -50 19z"/>
<path d="M1997 2599 c7 -7 15 -10 18 -7 3 3 -2 9 -12 12 -14 6 -15 5 -6 -5z"/>
<path d="M425 2590 c-3 -5 -4 -10 -1 -10 2 0 11 -3 20 -6 11 -4 16 -1 16 10 0
18 -25 22 -35 6z"/>
<path d="M500 2593 c25 -4 25 -5 24 -103 -1 -90 0 -100 16 -100 16 0 19 11 22
83 5 124 3 127 -46 126 -25 -1 -31 -4 -16 -6z"/>
<path d="M608 2593 c6 -2 12 -11 12 -19 0 -8 7 -14 15 -14 8 0 15 9 15 20 0
15 -6 20 -27 19 -16 0 -22 -3 -15 -6z"/>
<path d="M706 2579 c-16 -23 -11 -52 8 -46 6 2 10 15 10 28 -1 13 4 27 10 31
8 6 8 8 -1 8 -6 0 -19 -10 -27 -21z"/>
<path d="M933 2593 c16 -4 18 -15 15 -104 -3 -89 -1 -99 15 -99 14 0 17 10 17
66 0 36 5 74 10 85 7 11 7 19 1 19 -5 0 -12 -6 -14 -12 -3 -7 -3 2 0 20 5 31
4 32 -28 31 -19 -1 -26 -3 -16 -6z"/>
<path d="M1009 2583 c-13 -16 -12 -17 3 -5 9 8 27 12 40 10 22 -3 23 -7 26
-100 2 -88 5 -98 22 -98 16 0 19 9 22 83 3 70 0 85 -16 105 -24 27 -77 30 -97
5z"/>
<path d="M1149 2583 c-13 -15 -12 -15 9 -2 16 10 26 11 40 3 26 -17 31 -173 5
-193 -17 -13 -17 -13 0 -7 10 3 25 6 33 6 18 0 20 180 2 198 -18 18 -73 15
-89 -5z"/>
<path d="M1358 2589 c-20 -11 -24 -44 -8 -54 18 -11 31 5 20 25 -8 15 -6 21 7
29 10 6 14 10 8 10 -5 0 -18 -4 -27 -10z"/>
<path d="M1442 2590 c13 -8 17 -26 17 -90 0 -78 -1 -80 -29 -95 -37 -19 -34
-19 -66 10 l-26 24 30 31 c36 36 17 41 -22 5 -29 -27 -33 -56 -10 -79 20 -20
73 -21 101 -1 18 13 22 13 33 0 16 -20 34 -19 51 3 12 15 12 16 -2 5 -9 -7
-19 -10 -22 -6 -4 3 -7 45 -7 93 0 90 -8 110 -44 110 -19 -1 -19 -2 -4 -10z"/>
<path d="M1735 2593 c19 -3 20 -10 17 -103 -3 -95 -2 -100 17 -100 20 0 21 6
21 105 l0 105 -37 -1 c-21 -1 -29 -4 -18 -6z"/>
<path d="M1923 2588 c-32 -15 -56 -73 -49 -117 8 -51 55 -91 104 -90 l37 1
-39 8 c-42 8 -53 19 -62 68 -9 44 3 99 27 123 21 21 16 23 -18 7z"/>
<path d="M2144 2574 c-15 -21 -15 -27 -4 -34 20 -12 32 -2 24 22 -4 13 -1 24
7 29 10 6 10 9 2 9 -7 0 -20 -12 -29 -26z"/>
<path d="M2240 2585 c12 -15 16 -148 4 -167 -9 -14 -52 -28 -69 -22 -34 14
-29 79 8 94 19 7 19 9 4 9 -20 1 -77 -50 -77 -68 0 -21 40 -51 68 -51 15 0 38
7 51 16 22 16 24 16 33 0 10 -18 43 -22 53 -6 3 6 -2 10 -12 10 -16 0 -18 8
-15 87 3 74 1 89 -14 100 -10 7 -24 13 -32 13 -12 0 -12 -3 -2 -15z"/>
<path d="M2026 2564 c-8 -32 10 -57 24 -34 13 21 12 36 -4 49 -11 9 -15 6 -20
-15z"/>
<path d="M1418 2503 c7 -3 16 -2 19 1 4 3 -2 6 -13 5 -11 0 -14 -3 -6 -6z"/>
<path d="M2218 2503 c7 -3 16 -2 19 1 4 3 -2 6 -13 5 -11 0 -14 -3 -6 -6z"/>
<path d="M259 2444 c-19 -23 2 -49 37 -47 16 0 23 -1 16 -4 -6 -2 -10 -9 -7
-13 3 -5 16 -5 30 0 33 13 87 4 102 -15 16 -23 -2 -69 -33 -84 -39 -17 -91
-14 -114 9 -19 19 -18 40 3 68 15 20 -8 14 -26 -6 -24 -26 -21 -47 11 -72 40
-32 126 -24 159 14 28 33 30 69 3 96 -16 16 -33 20 -94 20 -79 0 -103 13 -71
37 11 7 14 13 8 13 -6 0 -16 -7 -24 -16z"/>
<path d="M2036 2412 l-19 -27 24 22 c12 12 21 24 18 27 -2 2 -13 -8 -23 -22z"/>
<path d="M1351 2101 c-2 -32 23 -197 31 -206 5 -5 12 -5 19 2 8 8 7 25 -5 65
-8 29 -22 76 -30 103 -8 28 -15 44 -15 36z"/>
<path d="M1488 2030 c-7 -24 -3 -38 8 -28 3 4 4 17 2 30 l-3 23 -7 -25z"/>
<path d="M1156 1987 c-3 -12 -6 -41 -6 -63 0 -33 5 -45 25 -58 14 -10 27 -30
31 -51 3 -20 14 -40 24 -45 10 -5 22 -24 25 -42 6 -26 3 -35 -14 -49 l-21 -18
35 -26 c32 -25 44 -53 29 -68 -3 -3 -26 10 -51 29 -50 39 -56 40 -73 19 -15
-18 -4 -35 47 -66 21 -13 32 -27 29 -35 -9 -23 7 -16 48 21 21 19 43 32 47 29
19 -11 8 -46 -20 -61 l-28 -17 14 -43 c11 -31 20 -43 35 -43 26 0 58 -18 58
-33 0 -10 -25 -10 -122 1 -68 7 -127 17 -132 22 -14 14 1 39 34 58 16 9 30 22
30 27 0 6 -19 21 -41 35 -44 27 -74 72 -66 100 3 13 -1 16 -20 12 -13 -2 -22
-7 -19 -9 12 -12 -40 -52 -75 -58 -21 -4 -41 -10 -44 -15 -3 -4 3 -6 14 -3 22
5 88 -26 114 -54 17 -20 14 -53 -5 -53 -22 0 -118 -66 -118 -81 0 -24 9 -28
41 -17 18 6 31 19 35 35 6 22 11 24 37 19 17 -3 33 -8 36 -11 6 -6 -57 -73
-82 -86 -28 -15 -96 7 -109 37 -15 32 2 65 54 100 44 31 51 64 13 64 -31 0
-67 -38 -59 -63 5 -16 2 -17 -30 -12 -26 5 -36 4 -36 -5 0 -14 -38 -50 -52
-50 -4 0 -8 -4 -8 -8 0 -5 25 -14 55 -21 30 -7 57 -17 61 -22 3 -6 20 -19 38
-30 21 -13 25 -19 14 -19 -10 0 -18 -5 -18 -11 0 -6 -6 -9 -12 -6 -7 2 -12 11
-10 21 2 13 -6 16 -42 16 -27 0 -51 -6 -60 -16 -20 -20 -20 -25 1 -17 10 4 14
2 10 -4 -4 -6 4 -14 19 -17 25 -7 26 -8 9 -26 -31 -34 5 -24 73 20 60 39 92
50 92 30 0 -6 -12 -20 -26 -33 -14 -12 -32 -34 -40 -49 l-15 -28 48 0 c27 0
59 -3 73 -7 l24 -6 -22 28 c-42 53 -22 149 38 180 40 20 79 19 118 -5 18 -11
46 -20 62 -20 34 0 41 -19 10 -27 -16 -4 -20 -14 -20 -48 0 -27 -7 -51 -20
-68 -11 -14 -20 -40 -20 -59 0 -19 -6 -40 -12 -47 -11 -11 -9 -13 9 -8 26 6
107 -43 124 -75 12 -23 4 -68 -13 -68 -6 0 -44 20 -86 45 -83 50 -87 51 -96
29 -12 -30 -6 -39 27 -42 17 -1 50 -8 72 -16 31 -11 41 -20 43 -40 3 -23 0
-26 -20 -21 -73 16 -114 24 -123 24 -20 0 91 -39 113 -39 17 0 22 -6 22 -25 0
-24 -2 -25 -65 -25 -80 0 -86 -18 -7 -22 55 -3 57 -4 55 -30 -2 -40 20 -41 56
-2 18 19 37 34 41 34 5 0 20 16 34 36 26 39 30 37 39 -16 6 -33 4 -37 -42 -67
-41 -27 -48 -35 -44 -57 7 -33 -6 -33 -74 1 -40 20 -53 33 -53 49 0 27 -8 30
-93 39 -37 4 -70 11 -72 15 -7 11 26 80 37 80 4 0 8 -5 8 -11 0 -5 4 -8 9 -5
5 3 28 -1 51 -9 24 -8 45 -13 48 -10 3 2 -4 8 -14 11 -10 4 -43 18 -73 31 -52
23 -53 25 -48 58 5 32 69 137 107 175 16 16 14 16 -34 12 -28 -3 -52 -9 -54
-13 -2 -5 -38 -6 -79 -2 -57 5 -74 3 -69 -6 4 -6 12 -9 17 -5 16 10 -20 -70
-39 -86 -12 -10 -18 -31 -19 -68 -1 -29 -6 -59 -12 -66 -9 -11 -8 -14 5 -12
18 1 26 -24 26 -86 0 -45 12 -49 32 -10 16 30 105 126 112 119 2 -2 -3 -21
-11 -41 -15 -36 -13 -76 4 -76 5 0 14 -13 21 -30 14 -34 19 -36 45 -16 17 12
22 11 45 -13 14 -15 36 -34 49 -44 42 -28 16 -30 -29 -2 -30 19 -49 25 -67 20
l-26 -6 22 -23 c12 -12 18 -26 14 -29 -3 -4 -1 -7 5 -7 7 0 12 -12 12 -26 0
-23 -3 -25 -25 -20 -87 22 -173 14 -167 -16 2 -12 -10 -17 -48 -20 -28 -3 -53
-8 -57 -12 -4 -4 -6 -22 -5 -42 3 -37 -18 -55 -41 -35 -8 6 -17 7 -23 2 -5 -5
-22 -11 -38 -13 -38 -4 -45 -25 -12 -38 35 -13 86 -2 86 19 1 11 5 8 14 -9
l14 -24 4 24 c3 22 9 25 51 28 46 3 52 9 48 47 -1 16 82 5 95 -13 6 -9 27 -16
47 -16 41 -1 87 -36 87 -65 0 -23 29 -36 35 -16 3 8 7 21 9 29 6 17 52 26 141
26 89 0 105 -5 105 -36 0 -31 27 -32 32 -2 2 13 11 24 23 27 11 2 24 9 28 17
4 8 21 14 37 14 21 0 30 5 30 16 0 12 6 15 23 11 12 -4 55 -11 95 -18 61 -10
72 -15 72 -32 0 -13 5 -17 16 -13 9 3 20 6 25 6 5 0 9 9 9 20 0 15 -9 22 -30
26 -16 4 -27 10 -24 15 3 5 -6 9 -20 9 -14 0 -25 3 -25 8 4 22 -5 34 -41 52
-21 11 -46 20 -54 20 -23 0 -31 22 -13 35 17 12 25 41 9 31 -19 -11 -92 -23
-92 -15 0 5 7 9 16 9 14 0 15 2 3 17 -12 15 -12 16 6 9 16 -6 18 -5 8 5 -7 7
-13 26 -13 41 0 15 -2 28 -5 28 -3 0 -27 -15 -54 -33 -43 -27 -49 -36 -44 -58
4 -24 3 -25 -26 -21 -30 4 -31 6 -31 53 0 27 0 52 -1 56 -2 18 19 11 30 -9 11
-22 11 -22 7 5 -2 21 0 27 11 23 8 -3 17 2 20 12 11 28 33 44 52 39 14 -3 20
2 24 19 2 13 1 25 -3 26 -4 2 -4 12 1 23 7 18 8 18 8 2 1 -10 5 -16 11 -12 15
9 42 -40 36 -66 -4 -18 5 -36 39 -73 24 -28 47 -48 49 -45 3 2 11 26 18 52 15
58 4 83 -35 79 -21 -2 -30 6 -51 40 -14 23 -22 46 -19 52 11 17 12 57 2 51 -5
-4 -25 6 -44 21 l-35 27 -21 -24 c-11 -12 -18 -28 -15 -35 15 -40 17 -82 3
-87 -10 -4 -18 6 -26 34 -11 35 -15 39 -45 39 -19 0 -40 8 -49 18 -17 19 -35
132 -21 132 5 1 23 12 39 26 l30 26 -57 -4 c-43 -4 -59 -1 -63 10 -3 7 -5 61
-5 119 0 94 2 104 18 101 13 -2 18 -15 20 -51 l3 -48 42 1 c62 3 67 1 67 -15
0 -12 -13 -15 -56 -15 l-55 0 3 -32 3 -33 60 0 c51 0 60 -3 63 -20 3 -11 14
-26 25 -35 12 -8 46 -36 75 -63 37 -33 59 -46 70 -42 10 4 32 9 50 12 36 6 38
11 18 38 -8 11 -12 24 -11 30 14 48 14 65 1 65 -9 0 -20 -9 -26 -19 -13 -25
-13 -61 0 -61 6 0 10 -7 10 -15 0 -24 -22 -17 -61 19 -63 58 -57 86 22 109 39
12 50 12 72 0 24 -12 27 -20 27 -63 0 -61 13 -70 35 -24 18 39 19 38 -39 97
-21 22 -15 22 -203 -23 -25 -6 -35 -4 -49 11 -16 18 -16 22 -1 54 9 19 21 35
27 35 5 0 10 6 10 13 0 7 21 30 46 51 51 43 53 57 3 27 -43 -27 -118 -28 -145
-3 -24 21 -44 65 -44 97 0 31 35 70 85 95 22 10 34 19 27 20 -7 0 -22 -5 -33
-11 -51 -27 -87 -12 -105 43 -8 25 21 102 55 148 l26 35 -24 -16 c-14 -8 -32
-30 -42 -49 -30 -56 -34 -55 -79 24 -24 42 -47 76 -51 76 -4 0 -11 19 -15 43
-5 33 -8 38 -14 22 -6 -17 -9 -13 -19 20 -6 22 -11 54 -11 70 0 19 -7 35 -19
42 -16 10 -20 9 -25 -10z m-141 -957 c3 -5 -1 -20 -10 -34 -19 -28 -27 -98
-13 -107 13 -8 -31 -69 -49 -69 -15 0 -16 19 -3 114 7 55 14 74 32 88 26 20
34 22 43 8z m295 -400 c0 -11 -4 -20 -9 -20 -5 0 -7 9 -4 20 3 11 7 20 9 20 2
0 4 -9 4 -20z m120 -40 c0 -5 -4 -10 -10 -10 -5 0 -10 5 -10 10 0 6 5 10 10
10 6 0 10 -4 10 -10z"/>
<path d="M1246 1977 c-10 -40 -7 -67 8 -61 8 3 21 -5 30 -18 15 -22 16 -20 16
36 0 33 -3 56 -6 53 -4 -3 -15 -2 -24 3 -14 8 -19 5 -24 -13z"/>
<path d="M1515 1960 c-9 -14 40 -68 51 -57 4 4 1 13 -8 20 -9 6 -20 20 -25 31
-8 14 -12 15 -18 6z"/>
<path d="M995 1909 c-10 -15 1 -23 20 -15 9 3 13 10 10 16 -8 13 -22 13 -30
-1z"/>
<path d="M897 1863 c-14 -13 -6 -22 21 -25 21 -2 33 -14 54 -53 31 -56 35 -73
13 -55 -12 10 -15 10 -15 -1 0 -15 -62 -69 -79 -69 -17 0 -13 -11 11 -32 23
-19 23 -19 38 3 8 13 22 32 32 43 16 21 16 21 37 2 23 -21 41 -15 23 7 -7 8
-9 33 -6 63 l6 49 -50 38 c-48 36 -71 44 -85 30z"/>
<path d="M1607 1855 c-13 -13 -11 -19 18 -50 40 -42 45 -43 45 -10 0 15 -6 25
-15 25 -9 0 -12 6 -8 15 3 10 0 15 -8 13 -8 -2 -13 3 -11 10 3 16 -3 15 -21
-3z"/>
<path d="M1076 1823 c-7 -17 13 -26 51 -21 16 2 29 10 31 20 3 14 -4 17 -37
16 -25 0 -42 -6 -45 -15z"/>
<path d="M1380 1831 c-8 -6 -18 -7 -22 -5 -11 7 -10 -7 1 -25 6 -9 17 -11 32
-7 36 9 52 22 45 35 -9 13 -36 14 -56 2z"/>
<path d="M1545 1806 c-14 -10 -25 -11 -38 -5 -13 7 -19 6 -23 -6 -8 -20 -7
-21 33 -28 28 -6 32 -3 42 23 12 34 11 35 -14 16z"/>
<path d="M1065 1750 c-10 -17 5 -30 34 -30 29 0 57 21 44 33 -10 11 -71 8 -78
-3z"/>
<path d="M1180 1749 c0 -15 18 -19 23 -6 3 8 -1 14 -9 14 -8 0 -14 -4 -14 -8z"/>
<path d="M1695 1729 c-4 -5 1 -19 10 -29 14 -15 21 -17 36 -7 10 6 21 18 24
25 2 7 0 10 -5 7 -6 -3 -10 -1 -10 4 0 14 -47 14 -55 0z"/>
<path d="M1444 1679 c-17 -19 -17 -23 -3 -47 18 -34 56 -52 91 -45 21 4 28 11
30 37 2 25 -3 36 -26 54 -37 28 -67 28 -92 1z"/>
<path d="M1589 1611 c-36 -36 -43 -59 -20 -66 11 -3 31 -17 46 -31 26 -24 28
-24 52 -9 24 16 26 16 56 -12 l30 -28 -22 32 c-36 52 -36 79 -2 113 41 41 13
38 -40 -5 -47 -37 -64 -44 -56 -20 4 8 2 17 -4 20 -5 4 -7 10 -4 15 13 21 -13
15 -36 -9z"/>
<path d="M1900 1630 c0 -23 37 -114 48 -118 5 -1 12 4 16 13 3 9 2 13 -4 10
-6 -3 -10 0 -10 8 0 8 -11 35 -25 58 -14 24 -25 37 -25 29z"/>
<path d="M860 1585 c0 -14 -9 -30 -19 -37 -15 -9 -17 -16 -10 -30 6 -12 6 -18
-1 -18 -16 0 -12 -20 6 -27 23 -9 40 12 25 31 -10 12 -8 20 13 43 31 33 32 39
6 53 -18 9 -20 8 -20 -15z"/>
<path d="M1801 1487 c-1 -74 0 -77 18 -67 11 5 38 10 60 10 30 0 41 4 41 15 0
11 -8 13 -30 9 -19 -4 -30 -2 -30 5 0 6 -8 19 -19 30 -10 10 -23 31 -29 47 -9
25 -11 18 -11 -49z"/>
<path d="M1487 1490 c-14 -11 -28 -29 -32 -39 -8 -27 10 -67 40 -87 24 -16 28
-16 65 1 61 27 65 90 8 129 -30 21 -50 20 -81 -4z"/>
<path d="M700 1461 c0 -6 5 -13 10 -16 6 -4 8 -15 5 -25 -3 -10 -1 -21 5 -25
6 -3 8 -11 5 -16 -3 -5 0 -6 8 -3 8 3 21 23 30 44 14 37 14 38 -7 44 -32 9
-56 7 -56 -3z"/>
<path d="M1208 1441 c-21 -16 -34 -31 -31 -35 6 -6 103 -9 103 -2 0 12 -23 66
-28 65 -4 0 -24 -13 -44 -28z"/>
<path d="M1644 1392 c-8 -13 -6 -20 9 -33 20 -16 20 -16 -2 -48 -22 -30 -22
-33 -6 -57 9 -14 19 -24 22 -21 2 3 18 1 34 -3 36 -11 38 -6 30 50 -6 37 -4
49 13 68 l20 22 -50 -2 c-40 -3 -49 0 -49 14 0 25 -9 29 -21 10z"/>
<path d="M1858 1384 c-5 -4 -7 -44 -7 -88 l1 -81 9 60 c10 66 8 121 -3 109z"/>
<path d="M2004 1327 c-8 -21 1 -47 16 -47 19 0 23 31 7 48 -15 14 -17 14 -23
-1z"/>
<path d="M1096 1289 c-41 -48 -34 -109 15 -134 52 -27 109 16 109 82 0 29 -3
33 -25 33 -26 0 -34 15 -12 23 9 4 8 8 -3 16 -27 19 -58 12 -84 -20z"/>
<path d="M1571 1219 c-13 -17 -21 -32 -19 -35 4 -4 67 14 76 22 6 4 -18 44
-26 44 -5 0 -18 -14 -31 -31z"/>
<path d="M1742 1209 c2 -7 24 -20 49 -29 42 -17 45 -17 46 -1 1 11 -10 22 -31
29 -41 15 -69 15 -64 1z"/>
<path d="M872 1144 c-25 -17 -30 -39 -6 -30 12 4 14 1 9 -14 -4 -11 -2 -20 3
-20 8 0 25 70 19 77 -2 1 -13 -4 -25 -13z"/>
<path d="M1961 1054 c0 -11 3 -14 6 -6 3 7 2 16 -1 19 -3 4 -6 -2 -5 -13z"/>
<path d="M805 1019 l-70 -40 65 6 c95 9 97 11 92 45 -2 17 -7 30 -11 30 -3 -1
-37 -19 -76 -41z"/>
<path d="M1798 1016 c-23 -21 -25 -26 -13 -36 8 -7 15 -18 15 -25 0 -7 7 -15
15 -19 21 -8 19 6 -5 32 -23 24 -10 38 20 22 17 -9 19 -8 13 7 -5 15 -3 16 8
6 15 -14 39 -17 39 -5 0 7 -53 43 -62 42 -1 0 -15 -11 -30 -24z"/>
<path d="M1446 1001 c-17 -18 -26 -36 -23 -45 9 -23 28 -19 67 14 34 29 34 30
15 44 -27 20 -27 20 -59 -13z"/>
<path d="M1703 948 c-22 -11 -31 -42 -15 -52 12 -7 72 34 72 50 0 16 -26 17
-57 2z"/>
<path d="M1946 885 c-3 -8 -1 -15 4 -15 6 0 10 7 10 15 0 8 -2 15 -4 15 -2 0
-6 -7 -10 -15z"/>
<path d="M1718 877 c-16 -6 -28 -19 -28 -29 0 -21 -1 -21 39 -7 20 7 31 18 31
30 0 21 -3 22 -42 6z"/>
<path d="M1757 823 c-10 -9 -9 -23 2 -23 5 0 11 7 15 15 5 15 -5 20 -17 8z"/>
<path d="M730 811 c0 -14 51 -52 61 -45 16 10 9 23 -21 39 -34 17 -40 18 -40
6z"/>
<path d="M810 774 c0 -17 28 -49 36 -41 4 4 -2 17 -14 30 -12 12 -22 17 -22
11z"/>
<path d="M1027 754 c-4 -4 -7 -20 -7 -35 0 -22 4 -26 20 -22 23 6 24 10 7 41
-7 12 -16 19 -20 16z"/>
<path d="M877 735 c3 -8 9 -12 14 -9 12 7 11 11 -5 17 -10 4 -13 1 -9 -8z"/>
<path d="M1775 718 c-21 -12 -36 -30 -30 -36 5 -5 63 26 70 38 8 13 -15 12
-40 -2z"/>
<path d="M819 700 c17 -14 27 -18 34 -11 14 14 9 18 -28 26 l-30 6 24 -21z"/>
<path d="M1040 640 c0 -12 -7 -20 -17 -20 -13 0 -14 -3 -5 -12 9 -9 15 -8 25
6 12 16 14 16 26 2 7 -8 10 -20 6 -26 -3 -5 -1 -10 4 -10 6 0 11 5 11 12 0 9
3 9 12 0 19 -19 26 -14 20 16 -5 32 -27 52 -59 52 -16 0 -23 -6 -23 -20z"/>
<path d="M706 518 c-20 -28 -16 -31 28 -23 36 7 50 25 20 25 -8 0 -12 5 -9 10
13 20 -24 9 -39 -12z"/>
<path d="M81 514 c0 -11 3 -14 6 -6 3 7 2 16 -1 19 -3 4 -6 -2 -5 -13z"/>
<path d="M790 510 c-13 -8 -12 -10 3 -10 9 0 17 5 17 10 0 12 -1 12 -20 0z"/>
<path d="M2080 234 c-14 -35 -2 -82 23 -98 14 -8 20 -8 27 4 6 10 10 11 10 3
0 -7 9 -13 20 -13 11 0 20 6 20 13 0 8 4 7 10 -3 7 -11 10 -6 10 22 0 20 -5
38 -11 40 -7 2 -7 12 0 31 8 21 8 27 -4 27 -19 0 -28 -35 -15 -60 6 -12 9 -26
7 -33 -3 -7 -8 0 -12 15 -5 19 -11 25 -23 21 -16 -6 -15 -6 3 40 4 8 -1 14 -9
14 -21 0 -30 -32 -16 -57 6 -12 9 -26 7 -33 -3 -7 -8 0 -12 15 -4 17 -12 25
-21 21 -17 -6 -18 1 -3 29 6 11 8 22 5 25 -3 3 -10 -7 -16 -23z"/>
<path d="M2240 168 c0 -40 14 -51 23 -18 3 10 -1 27 -9 37 -12 16 -13 14 -14
-19z"/>
<path d="M2277 189 c7 -7 15 -10 18 -7 3 3 -2 9 -12 12 -14 6 -15 5 -6 -5z"/>
<path d="M2310 160 c0 -16 5 -30 10 -30 6 0 10 14 10 30 0 17 -4 30 -10 30 -5
0 -10 -13 -10 -30z"/>
<path d="M2360 166 c0 -14 5 -28 10 -31 6 -4 10 7 10 24 0 17 -4 31 -10 31 -5
0 -10 -11 -10 -24z"/>
<path d="M2400 165 c0 -15 4 -24 10 -20 6 3 10 12 10 20 0 8 -4 17 -10 20 -6
4 -10 -5 -10 -20z"/>
<path d="M866 94 c-4 -10 -2 -22 3 -27 7 -7 13 -5 17 7 4 10 2 22 -3 27 -7 7
-13 5 -17 -7z"/>
</g>
</svg>
