<?xml version="1.0" standalone="no"?>
<!DOCTYPE svg PUBLIC "-//W3C//DTD SVG 20010904//EN"
 "http://www.w3.org/TR/2001/REC-SVG-20010904/DTD/svg10.dtd">
<svg version="1.0" xmlns="http://www.w3.org/2000/svg"
 width="332.000000pt" height="499.000000pt" viewBox="0 0 332.000000 499.000000"
 preserveAspectRatio="xMidYMid meet">

<g transform="translate(0.000000,499.000000) scale(0.100000,-0.100000)"
fill="#000000" stroke="none">
<path d="M370 4880 c0 -5 7 -10 15 -10 8 0 15 5 15 10 0 6 -7 10 -15 10 -8 0
-15 -4 -15 -10z"/>
<path d="M2656 4881 c-3 -4 6 -6 19 -3 14 2 25 6 25 8 0 8 -39 4 -44 -5z"/>
<path d="M520 4870 c-12 -8 -12 -10 3 -16 20 -7 47 1 47 16 0 12 -30 13 -50 0z"/>
<path d="M602 4868 c3 -9 34 -13 104 -14 75 0 81 0 24 3 -41 2 -79 8 -84 13
-15 15 -48 12 -44 -2z"/>
<path d="M728 4873 c12 -2 30 -2 40 0 9 3 -1 5 -23 4 -22 0 -30 -2 -17 -4z"/>
<path d="M3072 4860 c-8 -13 -8 -20 -2 -20 6 0 13 7 17 15 9 24 -1 27 -15 5z"/>
<path d="M218 4863 c7 -3 16 -2 19 1 4 3 -2 6 -13 5 -11 0 -14 -3 -6 -6z"/>
<path d="M268 4863 c12 -2 30 -2 40 0 9 3 -1 5 -23 4 -22 0 -30 -2 -17 -4z"/>
<path d="M3110 4863 c0 -5 41 -8 90 -8 50 0 90 3 90 8 0 4 -40 7 -90 7 -49 0
-90 -3 -90 -7z"/>
<path d="M848 4853 c17 -2 47 -2 65 0 17 2 3 4 -33 4 -36 0 -50 -2 -32 -4z"/>
<path d="M3070 4815 c0 -17 37 -20 60 -5 11 7 5 8 -19 3 -25 -4 -32 -3 -27 5
4 7 2 12 -3 12 -6 0 -11 -7 -11 -15z"/>
<path d="M3260 4819 c0 -4 -8 -10 -17 -12 -10 -3 -3 -5 15 -6 20 -1 32 4 32
12 0 8 -7 14 -15 14 -8 0 -15 -4 -15 -8z"/>
<path d="M461 4794 c0 -11 3 -14 6 -6 3 7 2 16 -1 19 -3 4 -6 -2 -5 -13z"/>
<path d="M3173 4783 c-43 -20 -42 -29 4 -27 24 2 41 -4 50 -14 14 -20 17 -36
4 -28 -5 3 -15 -1 -22 -10 -10 -13 -10 -17 2 -24 8 -6 15 -6 17 0 2 6 9 7 14
4 7 -4 8 -2 4 5 -4 6 -2 19 5 28 11 13 9 19 -12 37 -15 13 -28 28 -30 34 -3 8
-14 6 -36 -5z"/>
<path d="M202 4714 c3 -3 40 -5 82 -6 42 0 76 -4 76 -9 0 -5 21 -8 48 -7 l47
1 -45 7 c-42 7 -40 7 25 8 42 1 65 -2 57 -7 -9 -5 1 -8 27 -8 34 0 39 2 30 13
-9 11 -50 14 -182 14 -94 0 -168 -3 -165 -6z"/>
<path d="M587 4713 c-14 -14 -6 -22 23 -21 36 1 42 28 7 28 -13 0 -27 -3 -30
-7z"/>
<path d="M650 4699 c0 -5 5 -7 10 -4 6 3 10 8 10 11 0 2 -4 4 -10 4 -5 0 -10
-5 -10 -11z"/>
<path d="M853 4703 c9 -2 25 -2 35 0 9 3 1 5 -18 5 -19 0 -27 -2 -17 -5z"/>
<path d="M743 4693 c9 -2 25 -2 35 0 9 3 1 5 -18 5 -19 0 -27 -2 -17 -5z"/>
<path d="M3140 4680 c0 -5 7 -10 16 -10 8 0 12 5 9 10 -3 6 -10 10 -16 10 -5
0 -9 -4 -9 -10z"/>
<path d="M3081 4613 c-12 -27 -12 -27 6 -10 11 9 23 14 28 10 4 -5 6 -2 3 6
-8 25 -24 23 -37 -6z"/>
<path d="M3174 4604 c4 -15 2 -32 -5 -40 -7 -8 -7 -14 -1 -14 9 0 42 58 42 74
0 3 -9 6 -21 6 -18 0 -20 -4 -15 -26z"/>
<path d="M3130 4606 c0 -2 7 -6 15 -10 8 -3 15 -1 15 4 0 6 -7 10 -15 10 -8 0
-15 -2 -15 -4z"/>
<path d="M3064 4549 c-3 -6 -1 -16 5 -22 8 -8 11 -5 11 11 0 24 -5 28 -16 11z"/>
<path d="M3212 4534 c-5 -11 -17 -37 -26 -59 l-17 -39 26 24 c14 13 25 32 25
42 0 29 14 21 32 -20 29 -65 31 -100 5 -114 -12 -7 -25 -12 -29 -13 -3 0 -10
-3 -14 -7 -4 -5 11 -8 34 -8 l41 0 -4 77 c-4 69 -8 81 -34 107 -27 27 -30 27
-39 10z"/>
<path d="M3125 4529 c-4 -6 -5 -12 -2 -15 2 -3 7 2 10 11 7 17 1 20 -8 4z"/>
<path d="M3057 4478 c-10 -17 -14 -35 -9 -40 4 -4 14 9 22 29 11 33 14 36 21
18 8 -19 9 -19 6 -1 -3 31 -21 28 -40 -6z"/>
<path d="M3110 4452 c0 -5 7 -13 16 -16 10 -4 14 -1 12 6 -5 15 -28 23 -28 10z"/>
<path d="M2650 4419 c0 -5 5 -7 10 -4 6 3 10 8 10 11 0 2 -4 4 -10 4 -5 0 -10
-5 -10 -11z"/>
<path d="M3015 4410 c3 -5 8 -10 11 -10 2 0 4 5 4 10 0 6 -5 10 -11 10 -5 0
-7 -4 -4 -10z"/>
<path d="M3031 4368 c-1 -13 7 -18 27 -19 15 -1 54 -2 87 -4 47 -2 54 -1 35 7
-14 5 -37 7 -52 4 -15 -3 -30 -1 -34 5 -3 6 -17 9 -30 6 -13 -2 -25 1 -28 7
-2 6 -5 3 -5 -6z"/>
<path d="M1791 4034 c0 -11 3 -14 6 -6 3 7 2 16 -1 19 -3 4 -6 -2 -5 -13z"/>
<path d="M1515 4030 c-3 -5 -1 -10 4 -10 6 0 11 5 11 10 0 6 -2 10 -4 10 -3 0
-8 -4 -11 -10z"/>
<path d="M1850 4030 c0 -5 5 -10 11 -10 5 0 7 5 4 10 -3 6 -8 10 -11 10 -2 0
-4 -4 -4 -10z"/>
<path d="M2495 4030 c-3 -5 -1 -10 4 -10 6 0 11 5 11 10 0 6 -2 10 -4 10 -3 0
-8 -4 -11 -10z"/>
<path d="M1385 3880 c3 -5 8 -10 11 -10 2 0 4 5 4 10 0 6 -5 10 -11 10 -5 0
-7 -4 -4 -10z"/>
<path d="M3265 3809 c-4 -13 -12 -18 -21 -15 -8 3 -13 2 -9 -3 3 -5 -1 -12 -7
-15 -9 -3 -6 -11 11 -25 12 -12 27 -18 32 -15 11 6 12 -7 1 -23 -4 -7 -16 -12
-27 -12 -33 1 -56 -7 -64 -20 -4 -6 -15 -9 -25 -5 -12 5 -19 1 -23 -15 -3 -11
-9 -18 -14 -15 -5 3 -9 -2 -9 -10 0 -25 16 -19 29 11 l13 28 19 -39 c10 -22
26 -47 34 -56 8 -9 15 -20 15 -23 0 -13 -23 -7 -35 9 -11 15 -15 13 -40 -19
-23 -29 -31 -33 -46 -24 -12 7 -27 7 -50 1 l-34 -10 48 -8 c40 -6 47 -10 42
-24 -4 -9 -9 -34 -12 -54 -3 -21 -10 -38 -14 -38 -5 0 -9 -9 -9 -20 0 -11 -4
-20 -10 -20 -5 0 -10 7 -10 15 0 8 -6 15 -12 16 -83 6 -107 5 -102 -2 3 -5 16
-9 30 -9 19 0 25 -5 22 -17 -2 -10 -11 -17 -20 -17 -26 2 -9 -34 20 -41 l27
-8 -29 -12 c-29 -12 -29 -13 -8 -24 11 -6 30 -11 41 -11 54 0 15 -44 -58 -66
l-36 -11 48 -1 c68 -2 88 -19 92 -80 4 -50 3 -51 -38 -76 -71 -41 -184 -52
-162 -16 6 9 9 9 15 0 6 -9 11 -7 19 8 6 11 28 26 48 33 21 6 44 18 51 26 17
17 11 17 -24 -2 -16 -8 -36 -15 -45 -15 -25 0 -103 -41 -118 -62 -10 -15 -15
-17 -21 -7 -6 9 -16 6 -40 -14 -35 -30 -46 -32 -84 -17 -32 12 -33 7 -4 -20
26 -24 56 -26 87 -3 20 14 29 14 58 4 23 -9 38 -9 46 -2 13 10 67 9 105 -3 15
-5 22 -3 22 6 0 7 14 29 31 48 l30 35 -7 -48 c-4 -31 -2 -52 6 -62 10 -11 5
-17 -25 -29 -20 -9 -39 -15 -43 -14 -4 1 -20 -4 -35 -10 -16 -7 -31 -12 -35
-12 -4 0 -18 -9 -32 -20 -25 -19 -25 -20 -3 -20 12 0 30 8 40 19 10 10 31 21
48 25 l29 7 -19 -21 c-28 -31 -68 -50 -105 -50 -16 0 -30 -5 -30 -11 0 -8 16
-9 53 -5 28 4 62 8 74 9 12 1 25 5 29 10 13 12 24 8 24 -10 0 -9 12 -29 27
-45 24 -26 25 -28 7 -34 -10 -3 -36 -12 -57 -20 -20 -8 -46 -14 -57 -14 -11 0
-20 -5 -20 -10 0 -6 19 -8 48 -5 52 6 104 6 110 1 2 -2 -1 -12 -7 -23 -5 -10
-12 -30 -15 -44 -4 -20 -15 -29 -48 -39 -24 -7 -37 -15 -30 -17 6 -3 12 -11
12 -19 0 -20 7 -18 38 11 31 29 45 32 40 8 -2 -10 -10 -17 -16 -16 -7 2 -12
-4 -12 -12 0 -8 -5 -15 -11 -15 -6 0 -8 -9 -4 -20 4 -11 2 -20 -4 -20 -6 0
-11 6 -11 12 0 7 -14 -5 -32 -26 -27 -33 -32 -36 -40 -21 -8 13 -13 14 -24 4
-8 -6 -23 -9 -34 -6 -11 3 -23 1 -26 -5 -4 -7 -9 -6 -14 2 -6 9 -13 9 -31 -1
-25 -13 -98 -13 -112 0 -4 4 6 18 23 31 38 29 38 42 0 29 -16 -6 -30 -17 -30
-25 0 -8 -3 -14 -8 -14 -4 0 -8 18 -8 40 -1 26 3 40 11 40 7 0 15 7 18 15 4 8
21 21 39 29 37 18 66 35 86 53 7 7 23 19 34 28 35 24 12 29 -27 6 -41 -24 -56
-26 -52 -8 1 8 -13 12 -45 12 -45 0 -47 1 -41 25 3 14 10 29 14 35 16 16 10
23 -28 36 -57 19 -141 15 -193 -8 -56 -25 -115 -89 -129 -140 -13 -47 -14
-127 -2 -171 8 -25 7 -32 -4 -32 -8 0 -19 8 -24 18 -10 16 -10 15 -12 -3 -3
-65 -19 -105 -41 -105 -6 0 -31 -23 -57 -50 l-47 -50 -80 0 c-88 -1 -74 9
-153 -107 -24 -35 -47 -63 -52 -63 -5 0 -9 13 -9 28 0 20 24 60 80 135 44 59
80 109 80 113 0 3 11 19 25 36 14 16 25 41 25 54 0 32 -42 74 -74 74 -33 0
-66 -36 -191 -215 -59 -82 -112 -159 -120 -169 -10 -14 -18 -16 -27 -9 -25 18
-96 36 -125 30 -15 -4 -22 -4 -15 -1 21 9 13 26 -9 19 -14 -5 -28 0 -46 17
l-25 23 7 -24 c5 -15 4 -21 -3 -17 -15 9 -54 -45 -49 -66 3 -11 0 -18 -8 -18
-7 0 -22 -3 -32 -6 -15 -6 -16 -4 -5 7 18 20 15 39 -8 39 -11 0 -20 -7 -20
-16 0 -8 -4 -13 -10 -9 -6 3 -5 15 2 31 9 19 18 24 35 21 17 -3 30 4 49 26 33
39 24 45 -23 16 -20 -13 -53 -24 -73 -24 -39 -2 -118 -36 -167 -73 -25 -19
-36 -21 -52 -13 -11 6 -23 20 -26 31 -3 11 -11 20 -16 20 -5 0 -9 7 -9 15 0
11 -11 15 -36 15 -20 0 -47 8 -61 19 -19 16 -36 19 -78 16 -60 -4 -81 -13
-109 -44 -11 -12 -25 -21 -33 -21 -7 0 -13 -7 -13 -15 0 -8 -5 -15 -11 -15 -6
0 -9 9 -6 20 4 17 2 19 -21 13 -31 -7 -42 -20 -42 -47 0 -15 -3 -16 -14 -7
-12 10 -17 8 -26 -9 -6 -12 -10 -24 -7 -26 8 -8 57 7 57 17 0 5 12 6 26 3 21
-5 31 -1 54 26 20 24 33 30 48 26 19 -6 34 10 36 39 1 8 105 30 111 23 2 -2 6
-13 10 -26 6 -22 5 -23 -28 -17 -45 9 -63 -1 -42 -21 24 -24 18 -44 -12 -44
-15 0 -37 -9 -49 -21 l-21 -20 4 24 c7 37 -15 43 -45 13 -25 -25 -26 -26 -5
-26 11 0 24 -7 27 -16 5 -13 1 -15 -21 -9 -16 3 -32 14 -37 22 -7 13 -10 13
-17 2 -4 -8 -3 -19 3 -26 8 -10 5 -13 -11 -13 -11 0 -21 -4 -21 -8 0 -12 29
-49 30 -37 0 6 26 16 57 24 52 12 58 11 70 -5 7 -9 10 -21 7 -25 -3 -5 0 -9 5
-9 6 0 2 -9 -9 -20 -25 -25 -36 -25 -49 -3 -15 27 -24 8 -17 -32 6 -32 10 -35
42 -35 19 0 33 4 30 9 -3 5 2 19 12 31 15 19 24 22 48 15 16 -5 31 -8 34 -7 3
0 4 -15 2 -33 -3 -24 2 -42 16 -60 11 -14 18 -34 15 -45 -3 -11 6 -39 21 -64
14 -25 26 -56 26 -69 0 -14 7 -30 15 -37 9 -7 14 -19 11 -27 -3 -7 -1 -25 5
-39 7 -21 6 -31 -6 -44 -8 -9 -15 -21 -15 -26 0 -6 -16 -25 -35 -44 -34 -33
-45 -60 -25 -60 6 0 14 10 19 23 5 12 21 33 35 46 14 14 26 30 26 38 0 19 17
16 32 -6 8 -11 26 -23 40 -26 34 -9 68 -46 85 -93 17 -49 16 -81 -2 -88 -8 -4
-15 -13 -15 -20 0 -12 4 -12 25 2 14 9 32 14 40 10 8 -3 43 -8 78 -12 34 -3
80 -14 102 -24 117 -53 145 -62 145 -49 0 5 -8 12 -17 15 -21 7 -116 47 -123
52 -3 2 4 10 14 18 12 8 44 14 82 14 35 0 66 5 69 10 4 6 -8 10 -28 10 -19 0
-49 5 -67 12 -26 9 -35 9 -38 0 -6 -19 -39 -14 -80 11 -20 13 -52 29 -69 36
-39 16 -103 84 -103 109 0 10 -21 40 -47 67 -38 38 -43 47 -26 43 17 -5 23 -2
23 10 0 14 2 15 9 3 8 -12 12 -12 25 -2 16 14 22 51 9 51 -7 0 -10 20 -14 88
-2 32 34 79 97 130 89 71 146 96 238 102 60 5 74 8 55 14 -32 9 -128 3 -154
-11 -11 -6 -44 -21 -72 -34 -29 -12 -53 -26 -53 -31 0 -5 -9 -6 -20 -3 -11 4
-20 2 -20 -4 0 -6 -7 -11 -15 -11 -8 0 -15 6 -15 14 0 8 -5 18 -10 21 -7 4 -9
-2 -4 -19 7 -28 -4 -34 -25 -13 -10 10 -11 9 -6 -3 3 -9 -3 -20 -15 -28 -23
-14 -40 -8 -40 14 0 8 4 13 9 10 11 -7 111 86 111 103 0 7 4 9 10 6 5 -3 25 6
45 20 36 28 55 26 55 -4 0 -12 -13 -22 -37 -30 -43 -13 -89 -48 -79 -58 4 -4
10 -2 14 4 4 6 24 15 45 21 21 6 54 25 74 43 29 25 32 30 13 24 -14 -5 -20 -3
-16 3 3 6 3 17 0 26 -6 17 -3 18 -112 -30 -23 -10 -40 -24 -38 -30 5 -14 -39
-56 -87 -82 -32 -17 -35 -21 -22 -32 8 -7 15 -16 15 -21 0 -16 -25 -9 -37 11
-11 16 -9 25 8 55 13 22 27 34 35 31 8 -3 13 0 11 6 -1 6 4 13 12 16 9 3 11 0
6 -9 -4 -8 8 2 27 22 35 38 169 109 206 109 11 0 23 4 26 8 10 16 71 -1 94
-25 12 -13 22 -28 22 -32 0 -10 31 -24 37 -17 2 2 -10 18 -27 36 -35 36 -34
44 4 34 17 -4 26 -13 26 -25 0 -22 12 -24 41 -8 20 10 20 11 3 30 -9 10 -23
19 -31 19 -7 0 -13 5 -13 10 0 14 13 13 28 -2 9 -9 12 -9 12 0 0 7 5 12 10 12
6 0 10 -9 10 -20 0 -11 6 -20 14 -20 25 0 96 -80 94 -106 -3 -28 -12 -29 -51
-9 -15 8 -34 12 -42 9 -20 -8 -28 -40 -15 -64 9 -17 7 -24 -12 -40 -13 -11
-29 -19 -36 -20 -7 0 -10 -5 -6 -11 3 -6 19 -9 34 -5 22 4 29 1 33 -14 4 -16
0 -20 -19 -20 -24 0 -33 -23 -14 -35 6 -3 10 -1 10 6 0 7 10 3 23 -9 14 -13
36 -22 54 -22 39 0 54 -19 61 -77 4 -36 2 -44 -8 -38 -10 6 -11 3 -5 -16 32
-90 -26 -274 -92 -294 -39 -11 -43 -32 -8 -45 19 -7 25 -17 25 -40 0 -17 -5
-30 -13 -30 -7 0 -18 -9 -25 -20 -7 -12 -16 -19 -20 -16 -4 2 -9 -7 -10 -21
-2 -20 1 -24 16 -18 23 10 64 7 76 -5 6 -6 17 -10 26 -10 8 0 21 -9 28 -21 13
-20 11 -20 -25 -17 -29 2 -38 -1 -38 -12 0 -18 51 -26 69 -11 10 8 33 2 90
-24 71 -32 96 -55 61 -55 -9 0 -18 -7 -21 -15 -4 -8 -14 -15 -23 -15 -22 -1
-51 -24 -66 -54 -21 -41 -5 -38 48 9 71 62 97 70 139 41 22 -14 36 -34 42 -59
5 -20 13 -37 16 -37 8 0 19 58 25 123 2 21 16 64 33 95 161 307 155 294 157
357 1 33 6 68 10 77 8 19 -2 41 -15 33 -5 -3 -9 -13 -8 -23 0 -9 -4 -29 -9
-44 -7 -22 -11 -25 -24 -15 -9 7 -28 31 -42 54 -29 46 -52 62 -93 65 -28 3
-48 36 -38 63 4 8 1 15 -5 15 -6 0 -11 -7 -11 -16 0 -8 -4 -12 -10 -9 -5 3
-10 1 -10 -4 0 -6 -4 -11 -10 -11 -5 0 -10 11 -10 25 0 18 7 26 25 31 14 3 31
2 38 -4 16 -13 108 -32 154 -32 39 0 83 12 148 41 57 25 100 35 91 20 -23 -36
34 13 71 62 20 27 21 36 16 177 l-6 149 66 68 c44 46 80 73 108 83 29 10 48
25 59 45 31 60 77 120 95 124 11 2 32 17 47 33 20 22 33 28 48 23 15 -5 28 2
49 24 16 17 36 31 45 31 10 0 16 9 16 23 1 21 1 21 11 3 9 -14 8 -20 -2 -26
-10 -7 -10 -11 0 -24 11 -13 11 -22 1 -46 -7 -17 -15 -29 -17 -26 -3 2 1 14 7
27 11 19 10 21 -4 16 -11 -4 -16 -1 -16 10 0 11 -9 5 -25 -18 -14 -19 -32 -34
-40 -34 -8 0 -23 -11 -32 -25 -10 -14 -30 -36 -45 -48 -16 -13 -28 -31 -28
-39 0 -9 -6 -13 -13 -10 -8 3 -14 0 -15 -6 -1 -7 -4 -24 -8 -39 -5 -21 -3 -28
9 -28 8 0 17 4 19 10 2 5 17 12 33 14 32 4 92 27 136 51 24 13 28 13 33 0 3
-9 0 -15 -10 -15 -8 0 -19 -12 -25 -27 -5 -15 -28 -45 -50 -67 -21 -22 -39
-48 -39 -57 0 -10 -7 -25 -16 -34 -25 -24 -12 -27 34 -7 46 19 56 37 18 30
-22 -5 -23 -3 -13 19 8 17 13 20 18 11 6 -9 12 -3 20 20 8 24 17 32 35 32 28
0 43 -25 25 -43 -6 -6 -11 -15 -11 -20 0 -5 7 -1 16 7 20 20 34 20 34 1 0 -9
-11 -21 -25 -27 -26 -11 -61 -56 -51 -65 2 -3 17 7 32 22 15 15 34 25 43 22
12 -3 17 2 17 14 -1 10 4 17 9 16 6 -1 9 -7 9 -14 -1 -6 5 -9 12 -6 28 10 13
-19 -33 -68 -30 -31 -55 -49 -70 -49 -12 0 -23 -4 -23 -9 0 -4 15 -8 34 -7 35
1 67 26 101 79 9 15 23 27 29 27 11 0 -47 -134 -72 -165 -22 -29 -43 -67 -39
-71 2 -3 27 21 56 51 41 45 51 52 51 36 0 -24 -70 -105 -115 -132 -16 -11 -23
-19 -15 -19 13 0 13 -1 0 -10 -9 -6 -17 -5 -22 3 -4 6 -10 8 -13 5 -11 -11 5
-28 24 -28 18 0 107 79 103 92 -1 3 5 12 13 18 12 10 15 9 15 -3 0 -9 -4 -19
-10 -22 -11 -7 -33 -45 -26 -45 14 0 84 104 80 118 -5 15 -4 15 5 1 7 -11 4
-28 -14 -64 -14 -27 -25 -44 -25 -39 0 4 -7 -2 -16 -14 -8 -12 -12 -27 -9 -33
4 -5 -1 -19 -10 -29 -10 -11 -15 -26 -11 -36 6 -16 9 -15 23 6 9 12 24 43 34
69 14 36 18 40 19 21 0 -20 2 -22 10 -10 8 13 10 13 10 -2 0 -9 -8 -22 -17
-28 -17 -11 -17 -11 0 -6 10 3 21 6 23 6 2 0 4 7 4 15 0 14 29 71 56 110 8 11
14 29 14 40 0 18 -2 18 -13 -4 -6 -14 -18 -26 -25 -27 -7 -1 -8 0 -2 3 6 3 15
16 20 29 6 15 15 22 25 18 10 -4 15 0 15 14 0 13 -8 21 -24 24 -17 3 -23 1
-19 -8 4 -11 -53 -32 -62 -22 -2 1 3 18 10 35 13 30 16 32 41 23 54 -21 54
-22 54 262 l0 263 -25 15 -25 16 25 26 c18 19 25 38 25 65 l0 38 -31 -33 c-17
-18 -35 -30 -40 -27 -9 6 49 84 64 85 10 0 9 40 -2 40 -5 0 -11 -7 -15 -15 -7
-20 -26 -19 -26 0 0 9 11 21 25 27 16 7 25 19 25 35 0 29 -14 30 -34 2 -8 -12
-19 -18 -25 -14 -15 9 17 63 41 71 15 4 18 17 18 85 0 51 -4 79 -11 79 -6 0
-9 -9 -6 -20 7 -26 -9 -36 -21 -13 -13 25 4 67 23 59 12 -4 15 3 15 36 0 32
-7 49 -26 69 -28 30 -26 50 5 42 18 -4 19 1 20 55 0 53 -3 62 -25 76 -31 21
-31 34 1 42 l25 6 0 279 c0 269 -1 279 -19 279 -11 0 -23 -9 -26 -21z m-125
-423 c0 -2 -7 -7 -16 -10 -8 -3 -12 -2 -9 4 6 10 25 14 25 6z m107 -12 c-4 -4
-21 -8 -38 -9 -22 -2 -27 0 -18 6 16 10 66 12 56 3z m-197 -39 c17 -20 -3 -45
-30 -38 -27 7 -28 53 -1 53 10 0 24 -7 31 -15z m248 -327 c-6 -18 -28 -21 -28
-4 0 9 7 16 16 16 9 0 14 -5 12 -12z m-450 -60 c-2 -6 -10 -14 -16 -16 -7 -2
-10 2 -6 12 7 18 28 22 22 4z m127 2 c-3 -5 -13 -10 -21 -10 -8 0 -12 5 -9 10
3 6 13 10 21 10 8 0 12 -4 9 -10z m191 -59 c-10 -10 -27 -21 -39 -24 -20 -5
-19 -3 6 19 33 28 58 32 33 5z m-86 -29 c0 -16 -32 -52 -46 -52 -13 0 -12 4 1
30 14 27 45 42 45 22z m213 -45 c-3 -14 -12 -23 -24 -24 -11 -1 -18 1 -16 5 2
4 7 15 10 25 10 26 35 22 30 -6z m-134 -144 c-34 -40 -51 -53 -67 -53 -21 0
-11 16 33 49 50 37 66 39 34 4z m81 -40 c-1 -10 -50 -46 -50 -37 0 11 32 44
42 44 4 0 8 -3 8 -7z m-520 -38 c0 -8 -4 -15 -10 -15 -5 0 -10 7 -10 15 0 8 5
15 10 15 6 0 10 -7 10 -15z m396 -119 c20 -20 18 -26 -8 -26 -30 0 -52 15 -44
29 10 15 35 14 52 -3z m104 -31 c-24 -25 -52 -45 -62 -45 -10 0 -31 -7 -46
-16 l-27 -16 25 19 c13 10 47 37 75 60 67 56 91 55 35 -2z m-665 -78 c0 -20
-4 -35 -10 -34 -5 2 -9 14 -7 26 2 12 -2 29 -9 38 -11 13 -10 15 6 12 15 -3
20 -13 20 -42z m-43 1 c-6 -6 -15 -8 -19 -4 -4 4 -1 11 7 16 19 12 27 3 12
-12z m-495 -35 c7 -9 9 -21 6 -26 -4 -7 -8 -7 -11 2 -3 9 -11 6 -28 -10 -26
-24 -45 -19 -24 6 10 12 10 19 2 27 -7 7 -12 16 -12 21 0 14 53 -2 67 -20z
m526 -42 c20 -12 37 -24 37 -26 0 -10 -40 11 -70 36 -36 32 -31 30 33 -10z
m466 -19 c-15 -24 -68 -56 -77 -47 -4 3 1 11 11 16 9 6 29 21 45 34 31 27 39
26 21 -3z m-748 -29 c-8 -15 -10 -15 -11 -2 0 17 10 32 18 25 2 -3 -1 -13 -7
-23z m107 -44 c16 -13 38 -29 48 -35 11 -7 15 -15 11 -20 -20 -20 -108 66
-106 105 0 11 3 10 9 -5 4 -11 21 -32 38 -45z m637 21 c-3 -5 -11 -10 -16 -10
-6 0 -7 5 -4 10 3 6 11 10 16 10 6 0 7 -4 4 -10z m175 -10 c0 -5 -5 -10 -11
-10 -5 0 -7 5 -4 10 3 6 8 10 11 10 2 0 4 -4 4 -10z m-275 -29 c-3 -6 -10 -9
-15 -6 -5 3 -11 1 -15 -5 -7 -12 -25 -13 -25 -2 0 8 52 31 59 26 1 -2 0 -8 -4
-13z m-695 -73 c8 -42 19 -60 52 -90 23 -21 48 -38 55 -38 7 0 13 -4 13 -10 0
-5 -7 -6 -17 -3 -11 4 -14 3 -9 -5 4 -7 2 -12 -3 -12 -6 0 -11 6 -11 13 0 6
-18 24 -39 39 -47 34 -75 87 -66 128 4 17 8 30 10 30 2 0 8 -24 15 -52z m900
32 c0 -5 -4 -10 -10 -10 -5 0 -10 5 -10 10 0 6 5 10 10 10 6 0 10 -4 10 -10z
m-2318 -62 c-9 -9 -15 -9 -24 0 -9 9 -7 12 12 12 19 0 21 -3 12 -12z m198 -13
c0 -8 -4 -15 -9 -15 -5 0 -11 7 -15 15 -3 9 0 15 9 15 8 0 15 -7 15 -15z
m1125 5 c3 -5 -1 -10 -10 -10 -9 0 -13 5 -10 10 3 6 8 10 10 10 2 0 7 -4 10
-10z m-1070 -10 c3 -6 -1 -13 -10 -16 -19 -8 -30 0 -20 15 8 14 22 14 30 1z
m2175 -10 c0 -5 -2 -10 -4 -10 -3 0 -8 5 -11 10 -3 6 -1 10 4 10 6 0 11 -4 11
-10z m-1556 -16 c4 -9 4 -19 2 -21 -8 -8 -26 8 -26 23 0 19 16 18 24 -2z m446
-47 c0 -24 7 -53 16 -65 9 -13 14 -26 11 -29 -3 -2 -13 6 -22 20 -20 30 -34
134 -17 123 7 -4 12 -26 12 -49z m-1143 28 c3 -9 3 -18 1 -21 -9 -9 -38 8 -38
22 0 19 29 18 37 -1z m220 -10 c-4 -8 -11 -15 -17 -15 -14 0 -13 27 3 33 16 6
21 1 14 -18z m63 15 c0 -5 -2 -10 -4 -10 -3 0 -8 5 -11 10 -3 6 -1 10 4 10 6
0 11 -4 11 -10z m1950 -21 c0 -11 -4 -17 -10 -14 -5 3 -10 13 -10 21 0 8 5 14
10 14 6 0 10 -9 10 -21z m-1473 -45 c-10 -10 -47 26 -47 45 0 11 7 8 27 -11
15 -15 24 -31 20 -34z m-817 36 c0 -5 -4 -10 -10 -10 -5 0 -10 5 -10 10 0 6 5
10 10 10 6 0 10 -4 10 -10z m330 -10 c0 -5 -5 -10 -11 -10 -5 0 -7 5 -4 10 3
6 8 10 11 10 2 0 4 -4 4 -10z m1983 -10 c-3 -11 -10 -23 -16 -27 -7 -4 -8 0
-4 11 4 10 7 22 7 27 0 5 4 9 9 9 5 0 7 -9 4 -20z m-2295 -12 c15 0 22 -6 22
-19 0 -20 -15 -26 -24 -10 -3 5 -22 12 -41 15 -19 4 -35 12 -35 18 0 6 10 8
28 3 15 -3 37 -7 50 -7z m202 -7 c0 -10 -7 -24 -15 -31 -16 -13 -18 -8 -9 28
8 27 24 29 24 3z m66 -8 c-10 -10 -19 5 -10 18 6 11 8 11 12 0 2 -7 1 -15 -2
-18z m1205 17 c5 0 9 -4 9 -10 0 -5 -16 -10 -35 -10 -19 0 -35 4 -35 9 0 12
21 21 38 15 8 -2 18 -4 23 -4z m-247 -16 c3 -8 2 -12 -4 -9 -6 3 -10 10 -10
16 0 14 7 11 14 -7z m1126 8 c0 -13 -12 -22 -22 -16 -10 6 -1 24 13 24 5 0 9
-4 9 -8z m-2420 -23 c0 -14 -17 -10 -23 5 -4 10 -1 13 9 9 7 -3 14 -9 14 -14z
m210 -3 c0 -3 -4 -8 -10 -11 -5 -3 -10 -1 -10 4 0 6 5 11 10 11 6 0 10 -2 10
-4z m2114 -31 c-9 -14 -18 -25 -21 -25 -5 0 5 18 20 38 17 22 18 13 1 -13z
m-2224 5 c0 -5 -4 -10 -10 -10 -5 0 -10 5 -10 10 0 6 5 10 10 10 6 0 10 -4 10
-10z m189 7 c-2 -1 -13 -9 -24 -17 -19 -14 -19 -14 -6 3 7 9 18 17 24 17 6 0
8 -1 6 -3z m-273 -34 c-7 -7 -26 7 -26 19 0 6 6 6 15 -2 9 -7 13 -15 11 -17z
m194 20 c-1 -14 -30 -47 -36 -41 -6 7 17 48 28 48 5 0 8 -3 8 -7z m-50 -17 c0
-3 -4 -8 -10 -11 -5 -3 -10 -1 -10 4 0 6 5 11 10 11 6 0 10 -2 10 -4z m651
-63 c5 -15 8 -36 6 -47 -3 -20 -4 -19 -14 4 -6 14 -13 35 -17 48 -10 32 12 28
25 -5z m-691 -37 c0 -3 -4 -8 -10 -11 -5 -3 -10 -1 -10 4 0 6 5 11 10 11 6 0
10 -2 10 -4z m218 -27 c-9 -5 -24 -16 -32 -24 -17 -17 -32 -19 -41 -5 -6 10
76 52 85 43 3 -2 -3 -9 -12 -14z m-128 -12 c0 -8 -11 -19 -25 -25 -20 -9 -25
-9 -25 1 0 17 20 37 37 37 7 0 13 -6 13 -13z m623 -16 c3 -14 1 -18 -9 -14 -8
3 -14 11 -14 19 0 21 17 17 23 -5z m-605 -18 c-13 -29 -55 -82 -63 -79 -5 1
-10 16 -10 32 0 21 5 28 16 26 9 -1 22 5 29 13 13 15 34 21 28 8z m1305 -40
c-7 -2 -19 -2 -25 0 -7 3 -2 5 12 5 14 0 19 -2 13 -5z m-1273 -22 c0 -5 -7
-11 -14 -14 -10 -4 -13 -1 -9 9 6 15 23 19 23 5z m-39 -81 c10 -6 19 -16 19
-22 0 -9 -3 -9 -12 0 -7 7 -23 12 -36 12 -13 0 -20 4 -17 10 8 13 21 13 46 0z
m7 -57 c2 -7 -3 -13 -12 -13 -9 0 -16 -4 -16 -9 0 -13 49 -51 65 -51 12 0 25
-21 25 -41 0 -12 -37 -12 -60 1 -23 13 -64 96 -56 116 7 18 47 15 54 -3z m909
-89 c-9 -9 -28 6 -21 18 4 6 10 6 17 -1 6 -6 8 -13 4 -17z m-701 -186 c3 -5
14 -8 25 -8 10 0 19 -6 19 -14 0 -10 -14 -13 -55 -11 -62 2 -70 6 -71 43 0 15
-5 36 -9 46 -7 15 2 12 39 -14 26 -19 50 -38 52 -42z"/>
<path d="M3150 3750 c19 -13 30 -13 30 0 0 6 -10 10 -22 10 -19 0 -20 -2 -8
-10z"/>
<path d="M3103 3732 c-8 -5 -9 -13 -3 -22 9 -13 10 -13 10 0 0 12 2 12 9 1 5
-8 11 -9 15 -3 8 13 -17 33 -31 24z"/>
<path d="M3195 3730 c-3 -5 -1 -10 4 -10 6 0 11 5 11 10 0 6 -2 10 -4 10 -3 0
-8 -4 -11 -10z"/>
<path d="M1837 3693 c-4 -3 -7 -11 -7 -17 0 -6 5 -5 12 2 6 6 9 14 7 17 -3 3
-9 2 -12 -2z"/>
<path d="M1160 3680 c0 -6 7 -10 15 -10 8 0 15 2 15 4 0 2 -7 6 -15 10 -8 3
-15 1 -15 -4z"/>
<path d="M1970 3680 c0 -5 5 -10 11 -10 5 0 7 5 4 10 -3 6 -8 10 -11 10 -2 0
-4 -4 -4 -10z"/>
<path d="M1518 3673 c7 -3 16 -2 19 1 4 3 -2 6 -13 5 -11 0 -14 -3 -6 -6z"/>
<path d="M2720 3649 c0 -5 5 -7 10 -4 6 3 10 8 10 11 0 2 -4 4 -10 4 -5 0 -10
-5 -10 -11z"/>
<path d="M2095 3520 c3 -5 8 -10 11 -10 2 0 4 5 4 10 0 6 -5 10 -11 10 -5 0
-7 -4 -4 -10z"/>
<path d="M2228 3523 c6 -2 18 -2 25 0 6 3 1 5 -13 5 -14 0 -19 -2 -12 -5z"/>
<path d="M2957 3495 c-11 -8 -38 -13 -68 -11 -27 1 -49 -2 -49 -6 0 -9 95 -10
128 -2 12 4 22 13 22 20 0 18 -10 17 -33 -1z"/>
<path d="M1221 3374 c0 -11 3 -14 6 -6 3 7 2 16 -1 19 -3 4 -6 -2 -5 -13z"/>
<path d="M2875 3380 c-3 -5 3 -10 14 -10 12 0 21 5 21 10 0 6 -6 10 -14 10 -8
0 -18 -4 -21 -10z"/>
<path d="M1140 3365 c0 -5 5 -17 10 -25 5 -8 10 -10 10 -5 0 6 -5 17 -10 25
-5 8 -10 11 -10 5z"/>
<path d="M2271 3354 c0 -11 3 -14 6 -6 3 7 2 16 -1 19 -3 4 -6 -2 -5 -13z"/>
<path d="M1741 3334 c0 -11 3 -14 6 -6 3 7 2 16 -1 19 -3 4 -6 -2 -5 -13z"/>
<path d="M1230 3336 c0 -9 39 -13 51 -5 10 6 4 9 -18 9 -18 0 -33 -2 -33 -4z"/>
<path d="M1450 3330 c0 -5 7 -10 16 -10 8 0 12 5 9 10 -3 6 -10 10 -16 10 -5
0 -9 -4 -9 -10z"/>
<path d="M1565 3330 c3 -5 8 -10 11 -10 2 0 4 5 4 10 0 6 -5 10 -11 10 -5 0
-7 -4 -4 -10z"/>
<path d="M1885 3330 c3 -5 8 -10 11 -10 2 0 4 5 4 10 0 6 -5 10 -11 10 -5 0
-7 -4 -4 -10z"/>
<path d="M2126 3325 c4 -8 8 -15 10 -15 2 0 4 7 4 15 0 8 -4 15 -10 15 -5 0
-7 -7 -4 -15z"/>
<path d="M1990 3319 c0 -5 5 -7 10 -4 6 3 10 8 10 11 0 2 -4 4 -10 4 -5 0 -10
-5 -10 -11z"/>
<path d="M2238 3323 c7 -3 16 -2 19 1 4 3 -2 6 -13 5 -11 0 -14 -3 -6 -6z"/>
<path d="M1966 3295 c-9 -26 -7 -32 5 -12 6 10 9 21 6 23 -2 3 -7 -2 -11 -11z"/>
<path d="M2916 3269 c-14 -14 -16 -19 -5 -19 24 0 45 18 34 28 -6 6 -17 3 -29
-9z"/>
<path d="M2762 3258 c-6 -8 -9 -18 -5 -21 3 -4 -1 -7 -11 -7 -10 0 -14 -5 -10
-11 8 -14 48 24 42 41 -3 9 -7 8 -16 -2z"/>
<path d="M2810 3250 c0 -5 9 -10 20 -10 11 0 20 5 20 10 0 6 -9 10 -20 10 -11
0 -20 -4 -20 -10z"/>
<path d="M3295 3250 c-3 -5 -1 -10 4 -10 6 0 11 5 11 10 0 6 -2 10 -4 10 -3 0
-8 -4 -11 -10z"/>
<path d="M1150 3141 c0 -28 5 -51 10 -51 6 0 10 12 10 28 l1 27 13 -30 13 -30
16 35 15 35 1 -32 c1 -18 5 -33 10 -33 4 0 8 23 8 50 -1 35 -5 50 -14 50 -8 0
-16 -8 -19 -17 -15 -45 -17 -47 -23 -18 -4 17 -13 31 -24 33 -14 3 -17 -4 -17
-47z"/>
<path d="M1268 3165 c-22 -49 25 -98 60 -63 13 13 16 47 6 72 -10 26 -53 20
-66 -9z m62 -24 c-1 -17 -20 -33 -34 -28 -19 8 -21 38 -4 55 10 10 15 9 25 -5
7 -9 13 -19 13 -22z"/>
<path d="M1367 3143 c-9 -26 -13 -50 -10 -53 3 -3 8 1 10 8 3 6 13 12 23 12
10 0 20 -6 23 -12 2 -7 7 -10 11 -7 10 10 -17 99 -30 99 -6 0 -19 -21 -27 -47z
m29 -10 c-10 -10 -19 5 -10 18 6 11 8 11 12 0 2 -7 1 -15 -2 -18z"/>
<path d="M1448 3165 c-16 -35 3 -75 36 -75 14 0 28 5 31 11 11 17 -3 23 -21 9
-13 -12 -17 -11 -25 1 -5 8 -8 23 -7 34 2 15 10 20 31 18 24 -2 27 0 17 13
-19 22 -49 17 -62 -11z"/>
<path d="M1530 3182 c0 -5 7 -17 15 -28 8 -10 15 -29 15 -41 0 -13 5 -23 10
-23 6 0 10 10 10 23 0 13 7 32 15 43 17 22 19 34 6 34 -5 0 -13 -9 -16 -20 -3
-11 -10 -20 -15 -20 -5 0 -12 9 -15 20 -6 19 -25 28 -25 12z"/>
<path d="M1627 3183 c-11 -10 -8 -93 3 -93 6 0 10 9 10 20 0 11 4 20 9 20 5 0
13 -9 16 -20 3 -11 9 -20 13 -20 12 0 10 85 -2 92 -14 10 -41 10 -49 1z m41
-24 c-2 -6 -8 -10 -13 -10 -5 0 -11 4 -13 10 -2 6 4 11 13 11 9 0 15 -5 13
-11z"/>
<path d="M1759 3174 c-12 -14 -10 -19 15 -39 29 -23 23 -40 -11 -29 -17 6 -17
6 -2 -11 14 -14 21 -15 38 -6 28 16 27 39 -4 53 -30 14 -33 33 -4 25 13 -3 19
-1 16 6 -6 19 -33 19 -48 1z"/>
<path d="M1840 3171 c-15 -29 -12 -56 9 -75 20 -19 51 -12 51 11 0 13 -3 13
-15 3 -21 -17 -38 -1 -33 31 2 19 8 24 31 22 24 -2 27 0 17 13 -17 20 -47 17
-60 -5z"/>
<path d="M2057 3183 c-2 -5 -10 -25 -16 -46 -15 -45 -35 -38 -26 9 3 21 2 34
-5 34 -5 0 -10 -20 -10 -45 0 -37 3 -45 18 -45 10 0 24 6 30 12 10 10 17 10
32 0 27 -16 50 -15 50 3 0 22 28 18 35 -5 4 -11 11 -18 16 -14 6 4 6 11 -1 19
-8 10 -8 20 1 36 10 19 9 25 -7 36 -32 23 -49 12 -52 -35 -4 -53 -18 -54 -32
-2 -10 39 -25 57 -33 43z m108 -22 c7 -12 -12 -24 -25 -16 -11 7 -4 25 10 25
5 0 11 -4 15 -9z m-90 -20 c3 -5 1 -12 -5 -16 -5 -3 -10 1 -10 9 0 18 6 21 15
7z"/>
<path d="M1920 3136 c0 -44 10 -56 46 -56 21 0 17 17 -6 23 -15 4 -20 14 -20
41 0 20 -4 36 -10 36 -5 0 -10 -20 -10 -44z"/>
<path d="M2738 3150 l-18 -31 36 7 c23 4 39 3 43 -5 5 -7 19 -5 46 9 22 11 48
21 60 21 11 1 -7 5 -40 9 -33 4 -71 10 -85 14 -21 5 -28 1 -42 -24z"/>
<path d="M2755 3090 c4 -6 11 -8 16 -5 14 9 11 15 -7 15 -8 0 -12 -5 -9 -10z"/>
<path d="M2690 3066 c0 -2 7 -9 15 -16 9 -7 15 -8 15 -2 0 5 -7 12 -15 16 -8
3 -15 4 -15 2z"/>
<path d="M705 2980 c-10 -16 7 -31 23 -21 10 6 10 10 -2 20 -10 9 -16 9 -21 1z"/>
<path d="M2640 2969 c0 -5 5 -7 10 -4 6 3 10 8 10 11 0 2 -4 4 -10 4 -5 0 -10
-5 -10 -11z"/>
<path d="M3000 2910 c-9 -6 -10 -10 -3 -10 6 0 15 5 18 10 8 12 4 12 -15 0z"/>
<path d="M2738 2816 c-24 -18 -23 -26 3 -26 18 0 20 -4 15 -25 -4 -15 -2 -25
5 -25 6 0 13 9 16 21 3 11 11 18 18 15 8 -3 16 2 19 10 9 23 8 24 -13 24 -11
0 -23 5 -26 10 -8 13 -16 12 -37 -4z"/>
<path d="M2671 2793 c-7 -8 -11 -16 -8 -19 2 -2 10 2 17 11 17 20 9 27 -9 8z"/>
<path d="M222 2594 c-7 -8 -12 -20 -9 -27 2 -7 9 -2 16 11 15 28 11 36 -7 16z"/>
<path d="M3280 2460 c0 -5 7 -7 15 -4 8 4 15 8 15 10 0 2 -7 4 -15 4 -8 0 -15
-4 -15 -10z"/>
<path d="M2886 2434 c-11 -8 -16 -14 -10 -14 13 0 39 18 34 24 -3 2 -14 -2
-24 -10z"/>
<path d="M248 2359 c-14 -6 -29 -17 -32 -25 -3 -9 -3 -14 1 -12 5 3 23 11 41
18 17 8 32 18 32 22 0 10 -8 9 -42 -3z"/>
<path d="M313 2363 c-8 -3 -2 -13 15 -28 l27 -24 -32 -1 c-29 0 -33 -4 -39
-36 -6 -31 -10 -35 -31 -31 -17 3 -32 -4 -53 -25 -17 -17 -35 -26 -42 -22 -13
8 29 46 75 67 32 14 30 33 -3 29 -12 -2 -26 2 -30 8 -11 18 -47 -5 -66 -43
-16 -30 -16 -31 0 -18 9 8 20 11 24 7 4 -4 -1 -13 -10 -20 -16 -12 -15 -56 1
-56 4 0 7 -10 8 -22 2 -20 0 -19 -17 7 -11 17 -20 24 -20 18 0 -7 -7 -13 -16
-13 -11 0 -15 -6 -11 -20 3 -11 1 -23 -4 -26 -5 -3 -6 -16 -3 -30 4 -14 2 -24
-4 -24 -6 0 -14 -9 -17 -20 -4 -11 -11 -17 -17 -14 -7 5 -9 -4 -6 -25 4 -28 2
-32 -14 -28 -19 6 -18 1 15 -45 11 -14 16 -31 13 -37 -11 -17 -22 -13 -34 12
-10 20 -10 18 -7 -13 2 -23 8 -34 16 -32 18 4 77 61 91 86 9 17 7 18 -21 13
-26 -6 -31 -3 -31 13 0 12 5 17 14 14 7 -3 30 2 51 10 47 20 81 20 89 1 6 -17
36 -21 36 -5 0 6 -3 10 -7 10 -5 0 -14 4 -21 8 -29 19 25 152 61 152 6 0 25
-11 43 -25 40 -31 44 -31 44 -1 0 29 55 76 87 76 11 0 32 -9 45 -20 25 -19 25
-19 47 4 25 26 27 56 6 96 -20 39 -59 56 -120 55 -27 -1 -66 4 -85 10 -19 7
-40 10 -47 8z m187 -48 c0 -8 -4 -17 -10 -20 -6 -4 -10 5 -10 20 0 15 4 24 10
20 6 -3 10 -12 10 -20z"/>
<path d="M83 2189 c1 -10 6 -18 11 -16 16 5 18 24 2 30 -10 4 -14 0 -13 -14z"/>
<path d="M2780 2190 c-8 -5 -12 -12 -9 -15 4 -3 12 1 19 10 14 17 11 19 -10 5z"/>
<path d="M474 2154 c3 -9 6 -20 6 -26 0 -7 5 -6 14 2 18 14 10 40 -11 40 -10
0 -13 -6 -9 -16z"/>
<path d="M40 2119 c0 -5 5 -7 10 -4 6 3 10 8 10 11 0 2 -4 4 -10 4 -5 0 -10
-5 -10 -11z"/>
<path d="M290 2100 c0 -5 5 -10 10 -10 6 0 10 5 10 10 0 6 -4 10 -10 10 -5 0
-10 -4 -10 -10z"/>
<path d="M2896 2079 c-23 -27 -15 -35 9 -9 10 11 16 22 14 25 -3 2 -13 -5 -23
-16z"/>
<path d="M50 2065 c-7 -9 -11 -18 -8 -20 3 -3 11 1 18 10 7 9 11 18 8 20 -3 3
-11 -1 -18 -10z"/>
<path d="M2834 2066 c-10 -8 -16 -17 -13 -20 3 -3 14 1 25 8 10 8 16 17 13 20
-3 3 -14 -1 -25 -8z"/>
<path d="M518 2053 c7 -3 16 -2 19 1 4 3 -2 6 -13 5 -11 0 -14 -3 -6 -6z"/>
<path d="M800 2030 c0 -5 5 -10 10 -10 6 0 10 5 10 10 0 6 -4 10 -10 10 -5 0
-10 -4 -10 -10z"/>
<path d="M583 1958 c-30 -15 -29 -38 1 -38 22 0 36 16 36 41 0 11 -9 11 -37
-3z"/>
<path d="M1627 1953 c-12 -11 -7 -23 7 -17 8 3 20 -3 27 -13 20 -26 43 -29 27
-4 -7 11 -16 17 -20 15 -5 -3 -11 2 -14 10 -7 17 -16 20 -27 9z"/>
<path d="M2970 1935 c-8 -9 -27 -22 -44 -30 -31 -13 -31 -13 -5 -14 25 -1 79
43 67 54 -3 3 -11 -2 -18 -10z"/>
<path d="M440 1930 c0 -5 5 -10 11 -10 5 0 7 5 4 10 -3 6 -8 10 -11 10 -2 0
-4 -4 -4 -10z"/>
<path d="M3014 1915 c-10 -8 -14 -14 -9 -15 15 0 40 18 34 24 -3 3 -14 -1 -25
-9z"/>
<path d="M770 1899 c0 -5 5 -7 10 -4 6 3 10 8 10 11 0 2 -4 4 -10 4 -5 0 -10
-5 -10 -11z"/>
<path d="M366 1885 c4 -8 8 -15 10 -15 2 0 4 7 4 15 0 8 -4 15 -10 15 -5 0 -7
-7 -4 -15z"/>
<path d="M775 1870 c3 -5 11 -10 16 -10 6 0 7 5 4 10 -3 6 -11 10 -16 10 -6 0
-7 -4 -4 -10z"/>
<path d="M2972 1868 c1 -7 -6 -26 -16 -41 -10 -15 -15 -31 -11 -35 4 -4 10 -1
12 6 6 16 29 39 45 44 10 4 10 8 -1 21 -16 20 -33 22 -29 5z"/>
<path d="M840 1811 c0 -9 30 -24 36 -18 2 1 -6 8 -16 15 -11 7 -20 8 -20 3z"/>
<path d="M630 1795 c0 -8 7 -15 15 -15 8 0 15 4 15 9 0 5 -7 11 -15 15 -9 3
-15 0 -15 -9z"/>
<path d="M2987 1793 c-4 -3 -7 -11 -7 -17 0 -6 5 -5 12 2 6 6 9 14 7 17 -3 3
-9 2 -12 -2z"/>
<path d="M857 1773 c-4 -3 -7 -11 -7 -17 0 -6 5 -5 12 2 6 6 9 14 7 17 -3 3
-9 2 -12 -2z"/>
<path d="M2955 1760 c-4 -6 -16 -15 -26 -18 -17 -7 -16 -9 10 -25 29 -17 30
-17 50 5 12 12 21 25 21 30 0 14 -20 9 -26 -7 -4 -8 -13 -15 -21 -15 -13 0
-13 3 -3 15 7 9 10 18 7 21 -3 3 -8 0 -12 -6z"/>
<path d="M1350 1741 c-19 -11 -44 -24 -55 -30 -14 -7 -15 -10 -5 -10 8 0 26 6
40 14 28 16 130 20 130 5 0 -13 27 -13 36 1 10 17 -8 27 -61 33 -39 5 -58 2
-85 -13z"/>
<path d="M3279 1730 c-15 -19 -43 -67 -62 -105 -37 -74 -126 -215 -159 -249
-32 -34 -79 -118 -171 -302 -31 -61 -72 -134 -91 -162 -19 -28 -57 -91 -86
-139 -57 -98 -117 -186 -130 -191 -7 -3 -36 82 -59 173 -24 96 -57 195 -64
189 -4 -4 -7 -29 -7 -56 0 -26 -4 -48 -9 -48 -11 0 -33 -88 -25 -101 8 -14 -6
-89 -17 -89 -18 0 -22 33 -6 45 20 14 23 36 5 32 -13 -2 -16 45 -7 85 2 9 0
17 -6 17 -5 1 -10 -7 -10 -17 -1 -10 -8 -38 -17 -62 -21 -59 -28 -123 -19
-188 7 -52 7 -54 -23 -77 -42 -32 -86 -48 -100 -36 -11 9 -84 51 -89 51 -2 0
-3 -9 -3 -20 0 -13 6 -20 16 -18 23 3 60 -12 60 -24 0 -7 -17 -9 -50 -5 -29 4
-52 2 -56 -4 -3 -6 -20 -9 -38 -8 -17 2 -37 0 -43 -4 -6 -4 -14 -3 -18 3 -3 5
-33 10 -65 10 -33 0 -70 5 -84 11 -19 9 -29 9 -39 1 -11 -9 -23 -4 -56 21 -28
21 -37 33 -27 35 13 3 13 7 3 23 -14 23 -27 25 -27 4 0 -8 -4 -15 -9 -15 -15
0 -10 68 5 81 8 6 14 21 14 32 0 20 0 20 -21 1 -20 -18 -20 -16 3 26 14 25 30
44 35 43 5 -1 14 7 21 18 7 11 8 19 2 19 -5 0 -10 -6 -10 -12 -1 -7 -7 -2 -14
11 -13 23 -13 23 -40 -23 -32 -55 -56 -120 -56 -151 0 -12 -6 -28 -14 -34 -11
-9 -17 -6 -27 19 -17 36 -32 40 -23 5 5 -22 3 -25 -20 -25 -21 0 -26 5 -26 25
0 14 -4 25 -10 25 -5 0 -10 -7 -10 -15 0 -8 -7 -15 -15 -15 -9 0 -15 -9 -15
-25 0 -14 -4 -25 -10 -25 -5 0 -10 5 -10 10 0 6 -5 10 -11 10 -7 0 -9 -10 -4
-27 5 -22 4 -25 -8 -15 -11 10 -17 9 -27 -3 -10 -12 -10 -15 4 -15 9 0 16 -4
16 -10 0 -5 -4 -10 -10 -10 -5 0 -7 -7 -4 -15 4 -8 3 -15 -1 -15 -9 0 -48 48
-55 68 -5 12 -8 12 -18 -1 -10 -12 -10 -18 3 -30 8 -9 15 -22 15 -29 0 -8 -4
-7 -11 4 -5 10 -14 18 -20 18 -14 0 -137 100 -143 116 -7 19 -26 18 -26 -1 0
-8 36 -51 80 -96 62 -62 80 -87 80 -109 0 -15 7 -30 15 -34 8 -3 15 -12 15
-19 0 -8 7 -20 15 -27 18 -15 20 -80 3 -80 -18 -1 -51 -48 -43 -61 4 -5 1 -16
-5 -24 -7 -8 -10 -22 -6 -30 3 -9 0 -15 -9 -15 -8 0 -15 -9 -15 -20 0 -20 7
-20 370 -20 328 0 370 2 370 16 0 8 -5 12 -10 9 -5 -3 -10 -1 -10 5 0 8 9 10
28 4 15 -4 37 -8 50 -8 12 -1 22 -5 22 -9 0 -5 5 -5 10 -2 6 3 10 1 10 -4 0
-6 13 -11 29 -11 30 0 30 0 26 51 -3 28 -7 55 -10 60 -4 5 -3 14 1 20 7 12 43
-55 44 -82 0 -9 8 -23 18 -32 17 -16 18 -14 14 20 -3 21 -12 44 -20 53 -14 13
-14 15 2 18 9 2 30 -1 46 -6 25 -9 31 -7 53 18 14 15 31 30 39 33 10 4 10 7
-2 16 -11 8 -16 7 -18 -3 -4 -20 -32 -28 -48 -15 -11 9 -15 7 -20 -5 -3 -9
-14 -16 -23 -16 -14 0 -14 2 -1 10 13 9 13 11 0 20 -8 5 -22 10 -31 10 -24 0
-32 40 -11 58 15 12 15 13 0 9 -25 -8 -29 3 -8 25 12 13 23 17 32 12 7 -5 21
-7 30 -6 15 3 17 -1 8 -22 -6 -17 -6 -26 0 -26 6 0 10 7 10 15 0 9 10 15 26
15 20 0 25 -4 20 -17 -4 -9 -1 -20 6 -25 20 -12 27 -9 21 11 -3 10 0 22 6 25
7 4 11 -1 11 -13 0 -12 5 -21 11 -21 22 0 82 88 77 113 -4 16 22 77 33 77 5 0
9 -4 9 -10 0 -5 -4 -10 -8 -10 -5 0 -14 -11 -20 -25 -6 -14 -8 -25 -4 -25 15
0 30 16 36 38 4 12 11 22 16 22 5 0 7 6 4 13 -2 7 6 29 18 48 13 19 32 50 42
69 10 19 35 56 54 82 20 26 37 55 38 64 3 22 95 154 106 154 13 0 0 -39 -23
-72 -11 -14 -19 -29 -19 -33 0 -4 -13 -27 -30 -52 -16 -24 -30 -47 -30 -52 0
-4 -11 -18 -25 -31 -14 -13 -23 -25 -21 -28 6 -5 46 35 68 67 10 15 23 26 29
26 7 0 13 8 15 17 3 27 70 141 93 162 12 11 21 24 21 29 0 6 12 26 28 46 49
64 73 103 67 109 -3 3 -5 0 -5 -6 0 -7 -5 -12 -12 -12 -7 0 -29 -17 -50 -37
-47 -46 -63 -36 -17 11 28 29 58 46 90 50 4 1 23 21 43 44 55 66 43 37 -31
-79 -36 -57 -85 -138 -107 -179 -23 -42 -51 -79 -64 -85 -12 -5 -27 -25 -33
-43 -6 -19 -28 -59 -48 -90 -21 -32 -42 -64 -47 -74 -5 -9 -24 -32 -41 -52
-18 -19 -33 -40 -33 -46 0 -5 -5 -9 -11 -7 -6 1 -12 -8 -14 -20 -1 -12 -18
-45 -37 -75 -20 -29 -52 -78 -71 -108 -20 -30 -60 -86 -90 -125 -30 -38 -51
-71 -47 -73 15 -6 61 42 108 113 25 39 50 72 54 73 4 2 8 9 8 16 0 7 9 21 20
31 11 10 20 23 20 30 0 7 9 23 21 36 47 54 88 115 174 257 27 45 56 82 62 82
17 0 16 -21 -1 -45 -7 -11 -27 -45 -44 -75 -88 -157 -121 -209 -165 -253 -30
-31 -47 -58 -47 -73 0 -35 -1 -38 -21 -52 -23 -16 -25 -42 -4 -42 8 0 15 4 15
9 0 4 11 20 24 34 16 17 22 33 19 47 -3 11 -2 20 3 19 22 -4 34 2 34 16 0 20
12 19 49 -2 24 -14 33 -15 43 -5 9 9 7 12 -15 12 -17 0 -27 5 -27 15 0 9 9 15
23 15 12 0 40 14 61 30 30 23 42 27 53 19 20 -17 16 -29 -11 -29 -13 0 -34 -9
-47 -20 -24 -20 -24 -20 -5 -35 27 -20 52 -19 76 5 29 29 27 77 -4 91 -16 8
-29 8 -42 1 -13 -7 -26 -6 -46 4 l-27 14 36 70 c29 57 40 69 55 64 15 -4 18 0
18 27 0 31 -1 32 -16 13 -14 -18 -15 -18 -4 4 6 12 15 22 19 22 5 0 19 21 31
46 15 29 27 43 36 40 10 -4 14 3 14 20 0 23 -3 25 -30 19 -25 -5 -29 -4 -24 9
4 9 13 15 22 14 8 -2 17 3 20 11 3 8 0 11 -7 7 -18 -12 -13 -1 35 78 48 80 72
106 59 65 -5 -13 -9 -35 -11 -48 -3 -27 -24 -54 -24 -31 0 10 -8 6 -20 -10
-11 -14 -19 -34 -19 -45 0 -11 3 -14 6 -7 8 19 21 14 26 -10 3 -22 4 -22 15 5
6 15 16 27 22 27 6 0 8 5 5 10 -4 6 12 29 34 52 23 22 41 47 41 54 0 8 5 14
10 14 6 0 10 6 10 13 0 6 7 25 16 42 10 19 13 42 9 62 -5 26 -2 33 10 33 8 0
15 9 15 21 0 11 5 30 12 42 11 21 11 21 18 2 4 -12 -1 -36 -11 -60 -10 -22
-18 -51 -18 -65 0 -21 3 -19 19 15 10 22 28 70 40 108 12 37 26 67 31 67 4 0
6 6 3 14 -5 14 28 40 38 30 3 -3 8 4 11 16 3 11 1 18 -4 14 -5 -3 -9 1 -9 9 0
18 -27 30 -35 17 -4 -6 -10 -10 -16 -10 -10 0 23 56 74 125 22 30 27 34 22 15
-4 -14 -19 -42 -31 -62 -28 -44 -29 -54 -9 -62 10 -4 19 2 26 17 7 17 9 11 6
-28 -2 -27 -16 -75 -30 -105 -27 -57 -35 -57 -16 -1 15 44 4 51 -15 9 -34 -74
-45 -109 -40 -123 4 -8 1 -15 -5 -15 -6 0 -11 -5 -11 -11 0 -9 -16 -46 -61
-144 l-19 -40 25 30 c14 17 25 36 25 43 0 23 48 109 80 144 28 29 50 63 85
129 5 11 13 19 17 19 5 0 8 9 8 21 0 13 -4 18 -12 13 -8 -5 -9 -2 -3 12 9 19
19 383 13 484 l-3 55 -26 -35z m6 -238 c-3 -3 -5 1 -5 9 0 12 -2 12 -10 -1 -5
-8 -13 -11 -17 -6 -4 5 -2 11 5 13 6 3 12 12 13 21 0 11 3 9 10 -7 5 -13 7
-26 4 -29z m-10 -22 c-3 -5 -12 -10 -18 -10 -7 0 -6 4 3 10 19 12 23 12 15 0z
m-45 -20 c0 -5 -4 -10 -10 -10 -5 0 -10 5 -10 10 0 6 5 10 10 10 6 0 10 -4 10
-10z m-80 -45 c-13 -14 -28 -25 -33 -25 -6 0 3 11 19 25 37 32 44 32 14 0z
m-20 -165 c-6 -11 -13 -20 -16 -20 -2 0 0 9 6 20 6 11 13 20 16 20 2 0 0 -9
-6 -20z m44 -25 c-4 -8 -11 -15 -16 -15 -6 0 -5 6 2 15 7 8 14 15 16 15 2 0 1
-7 -2 -15z m-64 -9 c0 -3 -4 -8 -10 -11 -5 -3 -10 -1 -10 4 0 6 5 11 10 11 6
0 10 -2 10 -4z m-15 -128 c-4 -14 -18 -37 -31 -51 -14 -15 -22 -32 -19 -37 3
-5 -3 -18 -14 -29 -11 -11 -18 -27 -15 -34 3 -8 -2 -20 -11 -27 -8 -7 -15 -24
-15 -39 0 -14 -5 -33 -10 -41 -7 -11 -10 0 -10 39 0 56 21 104 80 181 15 19
30 44 34 54 9 26 18 14 11 -16z m-275 -203 c-7 -9 -15 -13 -17 -11 -7 7 7 26
19 26 6 0 6 -6 -2 -15z m-266 -352 c-15 -35 -34 -64 -34 -51 0 10 28 73 36 81
14 13 13 7 -2 -30z m-1054 -13 c0 -5 -5 -10 -11 -10 -5 0 -7 5 -4 10 3 6 8 10
11 10 2 0 4 -4 4 -10z m30 -21 c0 -6 -4 -7 -10 -4 -5 3 -10 11 -10 16 0 6 5 7
10 4 6 -3 10 -11 10 -16z m75 -31 c1 -14 7 -33 14 -42 8 -10 9 -16 3 -16 -6 0
-17 9 -25 20 -9 13 -20 18 -31 14 -21 -8 -21 11 2 35 22 25 37 21 37 -11z
m755 22 c0 -5 -5 -10 -11 -10 -5 0 -7 5 -4 10 3 6 8 10 11 10 2 0 4 -4 4 -10z
m-835 -41 c4 -5 4 -22 0 -36 l-6 -26 -15 27 c-14 28 -11 46 6 46 5 0 12 -5 15
-11z m-79 -42 c-2 -7 -5 -4 -5 6 -1 10 -5 15 -11 12 -11 -7 -14 8 -3 19 9 9
26 -22 19 -37z m737 -74 c-7 -44 -10 -50 -22 -37 -13 13 -1 74 15 74 9 0 11
-10 7 -37z m537 -13 c0 -13 -38 -32 -51 -25 -14 10 9 35 32 35 11 0 19 -4 19
-10z m78 -47 c-2 -10 -13 -19 -26 -21 -24 -4 -29 7 -10 26 18 18 40 15 36 -5z
m-1128 -77 c0 -11 -19 -15 -25 -6 -3 5 1 10 9 10 9 0 16 -2 16 -4z m15 -26 c3
-5 1 -10 -4 -10 -6 0 -11 5 -11 10 0 6 2 10 4 10 3 0 8 -4 11 -10z m462 -32
c-2 -12 -8 -23 -14 -25 -13 -5 -13 30 1 39 16 11 16 10 13 -14z m-480 -10 c-3
-8 -6 -5 -6 6 -1 11 2 17 5 13 3 -3 4 -12 1 -19z m110 -30 c-3 -8 -6 -5 -6 6
-1 11 2 17 5 13 3 -3 4 -12 1 -19z m-387 -8 c9 -16 7 -25 -10 -42 -18 -19 -22
-20 -30 -8 -14 21 -12 30 5 30 8 0 15 7 15 15 0 9 -6 12 -17 8 -11 -4 -14 -3
-9 5 11 18 34 14 46 -8z m510 -12 c0 -6 -7 -5 -15 2 -8 7 -15 17 -15 22 0 6 7
5 15 -2 8 -7 15 -17 15 -22z m-203 -15 c-3 -3 -14 0 -24 6 -17 10 -17 10 0 11
9 0 18 6 18 13 1 6 3 4 6 -6 3 -10 2 -21 0 -24z m462 30 c0 -5 -4 -17 -9 -28
-8 -18 -9 -17 -9 8 -1 15 4 27 9 27 6 0 10 -3 9 -7z m-74 -14 c11 -16 1 -19
-13 -3 -7 8 -8 14 -3 14 5 0 13 -5 16 -11z m-565 -39 c0 -5 -2 -10 -4 -10 -3
0 -8 5 -11 10 -3 6 -1 10 4 10 6 0 11 -4 11 -10z"/>
<path d="M865 1727 c-10 -8 -15 -19 -11 -26 10 -15 22 -7 29 19 6 24 6 24 -18
7z"/>
<path d="M430 1706 c0 -31 6 -34 13 -6 3 11 1 23 -4 26 -5 3 -9 -6 -9 -20z"/>
<path d="M605 1690 c3 -5 11 -10 16 -10 6 0 7 5 4 10 -3 6 -11 10 -16 10 -6 0
-7 -4 -4 -10z"/>
<path d="M1339 1679 c-21 -18 -21 -20 -4 -13 11 4 41 9 67 12 56 5 55 22 -1
22 -25 0 -47 -7 -62 -21z"/>
<path d="M2876 1655 c4 -8 11 -15 16 -15 6 0 5 6 -2 15 -7 8 -14 15 -16 15 -2
0 -1 -7 2 -15z"/>
<path d="M3060 1649 c0 -5 5 -7 10 -4 6 3 10 8 10 11 0 2 -4 4 -10 4 -5 0 -10
-5 -10 -11z"/>
<path d="M3078 1620 c-21 -22 -33 -42 -27 -46 13 -8 34 10 58 52 27 45 15 43
-31 -6z"/>
<path d="M820 1610 c-17 -20 -34 -30 -55 -31 -16 -1 -41 -5 -55 -9 -17 -5 -4
-7 42 -6 36 0 64 4 62 8 -3 4 6 14 20 23 13 9 27 23 30 31 10 25 -18 15 -44
-16z"/>
<path d="M2473 1593 c-3 -10 -13 -26 -21 -35 -8 -10 -11 -18 -6 -18 17 0 54
31 54 45 0 22 -20 28 -27 8z"/>
<path d="M3095 1580 c3 -5 8 -10 11 -10 2 0 4 5 4 10 0 6 -5 10 -11 10 -5 0
-7 -4 -4 -10z"/>
<path d="M586 1564 c-3 -9 -6 -23 -5 -32 0 -12 3 -10 9 6 5 12 14 22 20 22 5
0 10 5 10 10 0 16 -27 11 -34 -6z"/>
<path d="M1632 1568 c-16 -16 -15 -28 3 -28 8 0 15 9 15 20 0 23 -2 24 -18 8z"/>
<path d="M1533 1563 c-24 -9 -13 -19 22 -20 30 -1 34 1 24 13 -12 14 -24 16
-46 7z"/>
<path d="M883 1531 c26 -17 47 -38 47 -47 0 -17 21 -15 27 3 4 12 -61 58 -97
68 -16 4 -7 -4 23 -24z"/>
<path d="M782 1538 c-18 -18 -14 -27 8 -21 21 6 26 18 12 27 -5 3 -14 0 -20
-6z"/>
<path d="M140 1508 c-14 -6 -20 -12 -13 -15 7 -2 23 3 35 11 25 18 15 20 -22
4z"/>
<path d="M2470 1518 c0 -16 23 -68 31 -68 5 0 3 12 -3 28 -12 27 -28 51 -28
40z"/>
<path d="M1230 1480 c0 -5 7 -10 15 -10 8 0 15 5 15 10 0 6 -7 10 -15 10 -8 0
-15 -4 -15 -10z"/>
<path d="M748 1446 c-4 -17 -1 -23 9 -19 14 6 18 43 4 43 -5 0 -11 -11 -13
-24z"/>
<path d="M1616 1431 c10 -17 20 -28 23 -26 2 3 10 0 18 -6 10 -9 13 -6 13 14
0 29 -3 31 -43 41 l-29 7 18 -30z"/>
<path d="M1480 1419 c0 -5 5 -7 10 -4 6 3 10 8 10 11 0 2 -4 4 -10 4 -5 0 -10
-5 -10 -11z"/>
<path d="M1225 1410 c3 -5 8 -10 11 -10 2 0 4 5 4 10 0 6 -5 10 -11 10 -5 0
-7 -4 -4 -10z"/>
<path d="M436 1371 c-3 -5 1 -14 9 -21 8 -7 15 -19 15 -26 0 -16 16 -19 25 -5
3 6 -3 15 -14 21 -12 6 -18 16 -15 25 7 16 -11 21 -20 6z"/>
<path d="M858 1349 c8 -21 24 -28 29 -12 2 4 -6 14 -17 20 -17 11 -18 11 -12
-8z"/>
<path d="M355 1323 c-11 -3 -24 -10 -30 -15 -12 -13 35 0 50 13 5 5 7 8 5 8
-3 -1 -14 -3 -25 -6z"/>
<path d="M771 1274 c0 -11 3 -14 6 -6 3 7 2 16 -1 19 -3 4 -6 -2 -5 -13z"/>
<path d="M900 1275 c0 -8 2 -15 4 -15 2 0 6 7 10 15 3 8 1 15 -4 15 -6 0 -10
-7 -10 -15z"/>
<path d="M2454 1255 c-10 -41 0 -46 24 -10 22 34 22 35 2 35 -13 0 -22 -9 -26
-25z"/>
<path d="M636 1044 c-9 -22 -8 -24 9 -18 8 4 15 12 15 20 0 19 -16 18 -24 -2z"/>
<path d="M636 955 c4 -8 12 -15 20 -15 19 0 18 16 -2 24 -22 9 -24 8 -18 -9z"/>
<path d="M1087 963 c-4 -3 -7 -16 -6 -27 0 -19 1 -19 10 3 10 24 8 36 -4 24z"/>
<path d="M690 931 c0 -6 5 -13 10 -16 6 -3 10 1 10 9 0 9 -4 16 -10 16 -5 0
-10 -4 -10 -9z"/>
<path d="M3060 870 c-6 -11 -8 -20 -6 -20 3 0 10 9 16 20 6 11 8 20 6 20 -3 0
-10 -9 -16 -20z"/>
<path d="M3010 760 c-6 -11 -7 -20 -2 -20 6 0 12 9 15 20 3 11 3 20 1 20 -2 0
-8 -9 -14 -20z"/>
<path d="M670 736 c0 -9 5 -16 10 -16 6 0 10 4 10 9 0 6 -4 13 -10 16 -5 3
-10 -1 -10 -9z"/>
<path d="M2967 700 c-10 -16 -16 -30 -13 -30 2 0 14 14 26 30 12 17 18 30 13
30 -5 0 -17 -13 -26 -30z"/>
<path d="M1070 683 c0 -19 22 -63 32 -63 13 0 10 13 -12 45 -11 17 -20 25 -20
18z"/>
<path d="M446 655 c4 -8 16 -15 28 -15 21 1 21 1 2 15 -25 19 -37 19 -30 0z"/>
<path d="M668 663 c7 -3 16 -2 19 1 4 3 -2 6 -13 5 -11 0 -14 -3 -6 -6z"/>
<path d="M892 640 c14 -22 24 -19 15 5 -4 8 -11 15 -17 15 -6 0 -6 -7 2 -20z"/>
<path d="M530 565 c49 -33 80 -44 80 -27 -1 24 -65 62 -105 62 -25 0 -22 -3
25 -35z"/>
<path d="M1220 591 c0 -5 7 -15 17 -22 15 -13 15 -12 4 9 -12 23 -21 28 -21
13z"/>
<path d="M2871 591 c-8 -5 -9 -11 -3 -15 5 -3 12 1 16 9 6 17 6 18 -13 6z"/>
<path d="M640 565 c0 -2 9 -9 20 -15 16 -9 20 -8 20 5 0 8 -9 15 -20 15 -11 0
-20 -2 -20 -5z"/>
<path d="M838 519 c-8 -6 1 -9 25 -9 20 0 37 2 37 4 0 9 -50 12 -62 5z"/>
<path d="M1357 489 c4 -13 8 -18 11 -10 2 7 -1 18 -6 23 -8 8 -9 4 -5 -13z"/>
<path d="M724 482 c10 -10 20 -10 52 2 l39 15 -52 -2 c-42 -2 -50 -4 -39 -15z"/>
<path d="M1150 490 c0 -5 5 -10 10 -10 6 0 10 5 10 10 0 6 -4 10 -10 10 -5 0
-10 -4 -10 -10z"/>
<path d="M2220 490 c-12 -8 -10 -10 8 -10 13 0 20 4 17 10 -7 12 -6 12 -25 0z"/>
<path d="M607 473 c-3 -3 -3 -11 0 -19 3 -9 -2 -14 -16 -14 -12 0 -21 -4 -21
-10 0 -5 -14 -10 -31 -10 -17 0 -37 -7 -45 -15 -9 -8 -29 -15 -45 -15 -32 0
-99 -54 -84 -68 4 -4 10 -1 12 6 5 14 66 42 91 42 8 0 51 18 96 39 44 22 94
43 109 47 20 5 25 9 16 15 -8 4 -19 3 -27 -3 -10 -9 -18 -9 -32 0 -10 6 -20 8
-23 5z"/>
<path d="M2770 459 c0 -5 5 -7 10 -4 6 3 10 8 10 11 0 2 -4 4 -10 4 -5 0 -10
-5 -10 -11z"/>
<path d="M886 403 c-3 -26 -5 -57 -4 -68 1 -11 1 -41 0 -67 -2 -56 -12 -59
-68 -26 -23 14 -35 17 -33 9 3 -8 23 -23 44 -35 22 -11 42 -22 45 -24 2 -2 4
-19 5 -40 0 -45 30 -59 37 -18 5 27 -9 307 -16 313 -2 3 -6 -17 -10 -44z"/>
<path d="M2545 370 c-3 -5 -1 -10 4 -10 6 0 11 5 11 10 0 6 -2 10 -4 10 -3 0
-8 -4 -11 -10z"/>
<path d="M80 263 c0 -11 7 -38 16 -59 17 -43 86 -184 89 -184 6 0 -9 51 -16
56 -12 7 -11 34 1 34 5 0 12 -11 16 -24 3 -14 15 -33 26 -42 16 -16 21 -16 28
-4 12 19 12 30 2 30 -5 0 -23 17 -39 38 l-31 39 36 -2 c21 -1 43 3 51 9 12 9
13 7 7 -9 -9 -23 -9 -24 -7 -45 0 -8 13 2 27 23 14 21 24 39 22 41 -41 25 -60
29 -68 16 -12 -20 -49 -1 -110 56 -41 39 -50 43 -50 27z"/>
<path d="M1295 250 c-3 -5 -1 -10 4 -10 6 0 11 5 11 10 0 6 -2 10 -4 10 -3 0
-8 -4 -11 -10z"/>
<path d="M170 230 c0 -5 7 -10 16 -10 8 0 12 5 9 10 -3 6 -10 10 -16 10 -5 0
-9 -4 -9 -10z"/>
<path d="M735 230 c3 -5 8 -10 11 -10 2 0 4 5 4 10 0 6 -5 10 -11 10 -5 0 -7
-4 -4 -10z"/>
<path d="M2429 213 c-13 -16 -12 -17 4 -4 9 7 17 15 17 17 0 8 -8 3 -21 -13z"/>
<path d="M782 178 c2 -6 10 -14 16 -16 7 -2 10 2 6 12 -7 18 -28 22 -22 4z"/>
<path d="M2790 180 c0 -5 5 -10 11 -10 5 0 7 5 4 10 -3 6 -8 10 -11 10 -2 0
-4 -4 -4 -10z"/>
<path d="M620 176 c0 -2 8 -10 18 -17 15 -13 16 -12 3 4 -13 16 -21 21 -21 13z"/>
<path d="M2470 139 c0 -5 5 -7 10 -4 6 3 10 8 10 11 0 2 -4 4 -10 4 -5 0 -10
-5 -10 -11z"/>
<path d="M705 130 c3 -5 11 -10 16 -10 6 0 7 5 4 10 -3 6 -11 10 -16 10 -6 0
-7 -4 -4 -10z"/>
<path d="M1252 104 c-12 -8 -20 -20 -17 -25 10 -15 21 -10 33 16 14 29 13 30
-16 9z"/>
<path d="M880 73 c0 -10 -3 -28 -6 -40 -5 -18 -2 -23 13 -23 17 0 20 6 18 37
-3 37 -25 61 -25 26z"/>
<path d="M700 71 c0 -18 47 -61 65 -61 16 0 16 3 -6 26 -29 31 -59 49 -59 35z"/>
<path d="M1155 40 c-3 -5 -1 -10 4 -10 6 0 11 5 11 10 0 6 -2 10 -4 10 -3 0
-8 -4 -11 -10z"/>
<path d="M640 20 c0 -5 7 -10 15 -10 8 0 15 5 15 10 0 6 -7 10 -15 10 -8 0
-15 -4 -15 -10z"/>
<path d="M2045 20 c-3 -5 1 -10 10 -10 9 0 13 5 10 10 -3 6 -8 10 -10 10 -2 0
-7 -4 -10 -10z"/>
<path d="M2278 23 c7 -3 16 -2 19 1 4 3 -2 6 -13 5 -11 0 -14 -3 -6 -6z"/>
</g>
</svg>
