<?xml version="1.0" standalone="no"?>
<!DOCTYPE svg PUBLIC "-//W3C//DTD SVG 20010904//EN"
 "http://www.w3.org/TR/2001/REC-SVG-20010904/DTD/svg10.dtd">
<svg version="1.0" xmlns="http://www.w3.org/2000/svg"
 width="323.000000pt" height="499.000000pt" viewBox="0 0 323.000000 499.000000"
 preserveAspectRatio="xMidYMid meet">

<g transform="translate(0.000000,499.000000) scale(0.100000,-0.100000)"
fill="#000000" stroke="none">
<path d="M10 2495 l0 -2485 1605 0 1605 0 0 2485 0 2485 -1605 0 -1605 0 0
-2485z m558 1603 c-3 -7 -14 -14 -26 -16 -29 -4 -30 -42 -2 -42 11 0 20 -7 20
-15 0 -9 -9 -15 -21 -15 -30 0 -22 -44 9 -48 22 -3 29 -16 13 -26 -5 -3 -23
-3 -40 0 l-31 7 0 77 c0 42 3 80 7 83 12 13 75 8 71 -5z m122 -63 c0 -68 2
-75 20 -75 11 0 20 -4 20 -9 0 -16 -20 -23 -46 -17 -23 6 -24 10 -24 91 0 69
3 85 15 85 12 0 15 -15 15 -75z m155 -13 c0 -111 -19 -107 -23 4 -2 67 0 85
10 82 9 -3 13 -29 13 -86z m163 76 c17 -17 15 -38 -3 -38 -8 0 -15 5 -15 10 0
6 -7 10 -15 10 -22 0 -19 -11 16 -53 35 -43 34 -81 -3 -93 -27 -8 -66 32 -48
50 8 8 14 6 21 -6 11 -20 29 -24 29 -8 0 6 -13 29 -30 51 -16 23 -28 44 -26
48 1 3 6 14 9 24 7 20 47 23 65 5z m175 -3 c-1 -5 -11 -11 -23 -13 -27 -4 -26
-38 1 -45 23 -6 17 -27 -7 -27 -8 0 -14 -10 -14 -25 0 -20 5 -25 25 -25 14 0
25 -5 25 -10 0 -16 -27 -23 -55 -16 -24 6 -25 9 -25 92 l0 85 38 -3 c20 -2 36
-7 35 -13z m119 -57 c2 -40 8 -73 13 -73 6 0 11 33 13 73 2 55 6 72 17 72 22
0 21 -142 -1 -164 -41 -42 -74 1 -74 96 0 53 3 68 15 68 11 0 15 -17 17 -72z
m330 23 c10 -61 16 -61 24 -2 5 41 10 51 25 51 17 0 19 -9 19 -84 0 -47 -4
-88 -10 -91 -6 -4 -10 9 -10 31 0 40 -16 37 -22 -4 -5 -35 -21 -28 -34 15
l-12 38 -1 -37 c-1 -20 -5 -40 -11 -43 -6 -4 -10 27 -10 85 0 81 2 91 17 88
12 -2 20 -17 25 -47z m238 -23 c16 -103 16 -101 3 -105 -6 -2 -14 5 -18 16 -8
27 -21 27 -36 0 -19 -37 -30 -7 -19 57 17 99 19 104 39 104 16 0 21 -12 31
-72z m168 63 c8 -5 14 -19 13 -32 -1 -37 0 -51 2 -91 2 -46 -17 -56 -21 -10
-2 19 -9 32 -17 32 -8 0 -15 -13 -17 -32 -2 -18 -7 -33 -13 -33 -10 0 -20 138
-11 162 6 15 44 17 64 4z m187 0 c3 -6 -1 -13 -9 -18 -10 -6 -16 -29 -18 -76
-4 -91 -22 -91 -26 1 -2 55 -6 72 -17 72 -8 0 -15 7 -15 15 0 11 11 15 39 15
22 0 42 -4 46 -9z m113 -76 c-2 -48 -7 -85 -13 -85 -6 0 -11 37 -13 85 -2 72
0 85 13 85 13 0 15 -13 13 -85z m137 55 c4 -16 11 -30 16 -30 5 0 9 14 9 30 0
17 5 30 10 30 7 0 10 -32 8 -87 -2 -49 -7 -88 -12 -88 -5 0 -17 23 -27 50
l-17 50 -3 -50 c-6 -80 -24 -53 -27 40 -3 79 -1 85 17 85 13 0 21 -9 26 -30z
m213 3 c2 -13 -1 -23 -7 -23 -6 0 -11 5 -11 10 0 6 -7 10 -15 10 -22 0 -18
-24 9 -49 32 -30 38 -57 17 -82 -21 -26 -57 -19 -66 12 -9 29 4 38 21 15 11
-15 17 -17 26 -8 8 8 3 20 -21 47 -33 38 -39 63 -19 83 21 21 63 10 66 -15z
m-2074 -371 c9 -11 17 -36 19 -58 2 -36 0 -39 -23 -39 -20 0 -26 6 -30 30 -4
22 -11 30 -25 30 -19 0 -20 -7 -20 -115 0 -112 1 -115 23 -118 20 -3 22 1 22
38 0 39 1 41 28 38 25 -3 27 -6 25 -47 -3 -56 -27 -83 -77 -84 -25 -1 -43 6
-59 21 -20 21 -22 32 -22 151 0 113 2 132 19 150 25 28 95 29 120 3z m186 -2
c18 -18 20 -33 20 -146 0 -69 -4 -134 -10 -144 -5 -10 -23 -23 -40 -28 -36
-13 -86 1 -100 28 -6 10 -10 75 -10 144 0 116 2 127 22 146 29 27 91 27 118 0z
m145 -65 l20 -80 3 83 c3 78 4 82 26 82 28 0 31 -20 31 -210 l0 -125 -30 -3
-31 -3 -22 93 c-34 139 -44 143 -39 16 l5 -108 -29 0 -29 0 0 171 0 170 37 -3
37 -3 21 -80z m265 61 c0 -19 -6 -25 -27 -28 l-28 -3 -2 -130 c-1 -71 -2 -136
-2 -142 -1 -7 -12 -13 -26 -13 l-24 0 -3 143 -3 142 -27 3 c-22 3 -28 9 -28
28 0 24 2 24 85 24 83 0 85 0 85 -24z m124 7 c6 -23 46 -286 46 -307 0 -10 -9
-16 -25 -16 -20 0 -27 6 -31 30 -6 25 -11 30 -35 30 -25 0 -30 -5 -35 -30 -5
-23 -12 -30 -30 -30 -30 0 -30 -1 1 180 14 80 25 148 25 153 0 4 18 7 39 7 29
0 41 -5 45 -17z m200 6 c37 -17 49 -86 21 -126 -13 -18 -13 -22 0 -33 10 -8
15 -32 15 -71 0 -81 -19 -99 -100 -99 l-60 0 0 170 0 170 50 0 c27 0 60 -5 74
-11z m126 -159 l0 -170 -30 0 -30 0 0 170 0 170 30 0 30 0 0 -170z m90 25 l0
-145 46 0 c41 0 45 -2 42 -22 -3 -21 -9 -23 -75 -26 l-73 -3 0 171 0 170 30 0
30 0 0 -145z m160 -25 l0 -170 -25 0 -25 0 0 170 0 170 25 0 25 0 0 -170z
m178 150 c20 -19 22 -30 22 -150 0 -160 -6 -170 -100 -170 l-60 0 0 170 0 170
58 0 c45 0 63 -5 80 -20z m175 13 c3 -5 15 -73 27 -153 12 -80 24 -153 26
-162 4 -14 -1 -18 -25 -18 -25 0 -30 5 -36 30 -5 25 -12 30 -35 30 -24 0 -29
-5 -32 -27 -2 -22 -9 -29 -32 -31 -28 -3 -29 -2 -22 29 8 40 46 289 46 300 0
11 77 12 83 2z m207 -3 c28 -15 40 -65 40 -167 0 -98 -14 -145 -45 -157 -9 -3
-41 -6 -71 -6 l-54 0 0 170 0 170 56 0 c30 0 64 -4 74 -10z m210 -14 c0 -22
-5 -25 -42 -28 -43 -3 -43 -3 -46 -45 l-3 -43 35 0 c25 0 36 -4 36 -15 0 -8 0
-18 0 -22 1 -5 -14 -10 -32 -13 -31 -5 -33 -7 -36 -52 l-3 -48 45 0 c42 0 46
-2 46 -25 0 -24 -2 -25 -75 -25 l-75 0 0 163 c0 90 3 167 7 170 3 4 37 7 75 7
65 0 68 -1 68 -24z m-1541 -443 c37 -28 51 -60 51 -121 l0 -53 -42 3 -43 3 -3
45 c-2 26 -10 50 -18 57 -17 12 -44 7 -56 -11 -4 -6 -8 -88 -8 -183 0 -165 1
-172 22 -187 36 -26 57 -5 60 62 l3 57 43 3 42 3 0 -63 c0 -77 -24 -122 -77
-145 -53 -22 -109 -12 -147 26 l-31 31 -3 203 c-3 224 0 235 58 275 42 28 106
26 149 -5z m587 12 c36 -15 73 -76 74 -122 0 -21 -5 -23 -45 -23 -43 0 -45 1
-45 30 0 53 -63 64 -76 14 -11 -42 5 -74 75 -148 76 -80 97 -126 87 -190 -9
-54 -30 -85 -71 -102 -44 -18 -79 -18 -119 1 -42 20 -66 63 -66 119 l0 46 40
0 c39 0 40 -1 40 -34 0 -46 34 -73 65 -52 14 10 20 24 19 50 -1 30 -13 48 -71
110 -79 82 -98 124 -91 197 10 97 91 143 184 104z m584 -3 c62 -30 70 -62 70
-267 0 -205 -8 -236 -70 -268 -43 -22 -111 -18 -148 10 -45 34 -53 80 -50 273
3 146 6 180 21 208 32 58 111 78 177 44z m293 4 c40 -16 64 -51 73 -105 l7
-41 -47 0 c-44 0 -46 1 -46 30 0 53 -63 64 -76 14 -11 -42 5 -72 70 -142 73
-78 96 -117 96 -167 0 -80 -43 -132 -118 -142 -81 -11 -142 45 -142 131 l0 46
40 0 c39 0 40 -1 40 -33 0 -38 15 -57 46 -57 32 0 47 24 40 64 -5 25 -26 55
-75 104 -77 77 -96 119 -89 193 10 96 91 143 181 105z m-1983 -16 c18 -18 20
-33 20 -150 0 -120 -2 -131 -22 -150 -17 -15 -35 -20 -80 -20 l-58 0 0 170 0
170 60 0 c47 0 64 -4 80 -20z m200 -5 c0 -23 -4 -25 -45 -25 l-45 0 0 -45 c0
-45 0 -45 35 -45 31 0 35 -3 35 -25 0 -22 -4 -25 -35 -25 l-35 0 0 -50 0 -50
45 0 c42 0 45 -2 45 -25 0 -26 -1 -26 -72 -23 l-73 3 -3 168 -2 167 75 0 c73
0 75 -1 75 -25z m504 -204 c1 -213 2 -224 21 -237 18 -12 24 -11 43 2 22 15
22 20 22 240 l0 224 45 0 45 0 0 -222 c0 -199 -3 -228 -20 -266 -45 -99 -201
-93 -237 9 -8 22 -12 111 -12 257 l-1 223 46 -3 47 -3 1 -224z m766 189 l0
-40 -45 0 -45 0 0 -235 0 -235 -45 0 -45 0 0 235 0 235 -45 0 -45 0 0 40 0 40
135 0 135 0 0 -40z m-1180 -700 c0 -5 -4 -10 -10 -10 -5 0 -10 5 -10 10 0 6 5
10 10 10 6 0 10 -4 10 -10z m1000 -20 c25 -25 25 -31 -1 -59 -15 -15 -27 -20
-42 -15 -26 8 -23 4 -31 31 -5 15 -1 28 13 42 26 26 36 26 61 1z m-1000 -50
c0 -5 -4 -10 -10 -10 -5 0 -10 5 -10 10 0 6 5 10 10 10 6 0 10 -4 10 -10z
m1070 -15 c14 -17 40 -20 40 -5 0 22 31 21 49 -1 16 -20 21 -22 35 -10 19 16
32 7 38 -24 3 -15 10 -19 32 -17 25 3 27 0 24 -25 -2 -22 3 -30 25 -41 21 -10
26 -17 18 -25 -16 -16 -14 -44 4 -51 8 -3 15 -12 15 -20 0 -7 -7 -16 -15 -20
-17 -6 -21 -36 -5 -36 19 0 10 -38 -11 -43 -18 -5 -20 -11 -14 -36 6 -29 5
-31 -24 -31 -25 0 -30 -4 -33 -27 -3 -28 -8 -30 -40 -18 -13 5 -20 0 -28 -19
-11 -30 -17 -32 -42 -9 -17 15 -19 15 -39 -3 -20 -18 -21 -18 -38 5 -15 20
-21 22 -39 12 -18 -10 -23 -8 -34 16 -9 20 -21 28 -38 28 -21 0 -25 4 -22 26
1 17 -3 29 -14 33 -21 8 -22 7 -24 -29 -4 -63 14 -88 59 -79 36 8 61 -25 36
-46 -8 -7 -15 -19 -15 -26 0 -21 38 -54 54 -48 8 3 19 -3 26 -16 10 -18 8 -25
-14 -45 -14 -13 -26 -29 -26 -35 0 -13 37 -50 50 -50 23 0 9 -41 -17 -51 -47
-18 -55 -47 -22 -78 17 -16 19 -23 9 -41 -8 -14 -17 -19 -30 -15 -12 4 -26 -2
-39 -16 -24 -26 -25 -32 -9 -59 10 -16 10 -23 -5 -37 -13 -13 -20 -14 -29 -5
-29 29 -86 -8 -75 -48 8 -29 -28 -47 -52 -26 -33 30 -81 14 -81 -26 0 -10 -4
-18 -9 -18 -5 0 -16 -3 -24 -6 -10 -3 -18 2 -22 15 -9 30 -40 44 -65 31 -25
-14 -26 -30 -1 -37 21 -5 35 -42 25 -66 -3 -8 -15 -17 -26 -20 -45 -12 -82 31
-53 63 16 17 15 19 -4 30 -12 6 -21 19 -21 28 0 38 -42 54 -79 30 -25 -15 -51
4 -44 31 3 11 -1 29 -7 41 -10 18 -18 21 -46 17 -27 -5 -36 -2 -45 15 -8 14
-8 23 0 31 15 15 14 50 -1 65 -7 7 -22 12 -34 12 -24 0 -38 32 -21 49 6 6 23
11 37 11 19 0 31 10 51 43 25 41 30 44 80 50 30 4 71 7 91 7 32 0 37 3 43 31
8 35 -22 86 -89 151 -34 33 -43 38 -72 32 -29 -5 -34 -3 -48 24 -14 27 -14 31
2 45 13 12 22 13 36 5 30 -17 66 5 66 41 0 40 24 59 48 37 32 -28 68 -21 86
18 12 26 21 33 36 29 10 -3 22 -14 25 -24 6 -19 46 -35 63 -26 4 3 17 24 28
46 21 44 28 48 89 43 34 -3 45 -9 59 -34 14 -23 21 -27 30 -18 8 9 5 16 -11
27 -28 19 -29 31 -5 49 14 11 15 16 5 33 -18 29 -16 38 8 44 16 4 20 12 17 34
-3 24 1 28 27 33 22 4 31 11 33 28 3 18 9 22 30 20 20 -2 29 3 37 20 11 26 18
27 35 7z m-890 -285 c8 -5 15 -19 15 -32 0 -18 6 -23 25 -23 14 0 31 -4 38 -8
17 -11 15 -46 -3 -53 -19 -8 -20 -34 -1 -34 8 0 17 -7 20 -16 9 -24 -12 -54
-39 -54 -18 0 -25 -5 -25 -20 0 -11 -4 -20 -10 -20 -14 0 -13 33 2 48 7 7 20
12 30 12 22 0 23 16 4 36 -19 19 -26 18 -26 -5 0 -29 -48 -71 -82 -71 -39 0
-85 25 -93 50 -5 17 -10 19 -21 9 -18 -15 -18 -43 0 -36 20 8 56 -21 56 -44 0
-23 13 -25 30 -4 14 17 50 20 50 5 0 -5 -5 -10 -12 -10 -6 0 -19 -7 -29 -16
-23 -20 -57 -10 -61 19 -2 16 -11 23 -31 25 -38 5 -54 37 -31 63 17 19 17 21
-3 41 -18 17 -19 25 -11 44 6 13 16 24 22 23 27 -3 37 2 35 19 -3 32 1 41 22
47 13 4 27 1 39 -10 20 -18 40 -13 40 11 0 16 27 18 50 4z m108 -247 c2 -8 -6
-13 -22 -13 -25 0 -33 10 -19 24 10 10 36 3 41 -11z m-626 -155 c19 -16 31
-48 18 -48 -6 0 -10 -6 -10 -14 0 -21 -39 -27 -61 -8 -23 20 -24 40 -2 64 19
21 33 23 55 6z m338 -344 c0 -16 -16 -19 -25 -4 -8 13 4 32 16 25 5 -4 9 -13
9 -21z m1025 6 c3 -5 19 -7 35 -4 22 5 33 1 51 -20 12 -14 28 -26 34 -26 16 0
47 -39 39 -51 -3 -6 1 -18 9 -27 22 -26 28 -53 16 -68 -6 -8 -9 -23 -6 -35 7
-26 -12 -69 -30 -69 -7 0 -13 -8 -13 -18 0 -22 -38 -55 -56 -48 -7 3 -20 -1
-28 -9 -19 -20 -66 -30 -66 -15 0 8 -10 10 -34 6 -32 -6 -65 12 -50 27 12 12
-30 67 -51 67 -39 0 -84 87 -55 105 5 3 7 19 4 35 -5 23 -1 34 20 53 14 13 26
29 26 34 0 17 38 45 50 38 6 -4 20 2 31 14 20 22 63 28 74 11z m-568 -82 c60
-30 50 -137 -16 -166 -84 -37 -175 71 -121 143 33 44 79 52 137 23z m92 -252
c28 -52 -46 -96 -77 -45 -11 17 -11 25 3 45 20 31 58 32 74 0z m-271 -174 c2
-7 -6 -12 -17 -12 -21 0 -27 11 -14 24 9 9 26 2 31 -12z m-618 -222 l0 -170
-170 0 -170 0 0 170 0 170 170 0 170 0 0 -170z m1010 -2 l0 -173 -477 2 -478
3 -3 170 -2 170 480 0 480 0 0 -172z m945 92 c8 -25 -1 -41 -20 -34 -20 8 -28
36 -13 46 20 12 26 10 33 -12z m102 -187 c-2 -38 -3 -7 -3 67 0 74 1 105 3 68
2 -38 2 -98 0 -135z m-162 158 c7 -12 -12 -24 -25 -16 -11 7 -4 25 10 25 5 0
11 -4 15 -9z m90 -31 c0 -7 -6 -15 -12 -17 -8 -3 -13 4 -13 17 0 13 5 20 13
18 6 -3 12 -11 12 -18z m265 -48 c18 22 18 23 39 4 12 -11 21 -25 21 -33 0 -7
7 -13 15 -13 20 0 19 17 -2 29 -24 13 -2 37 24 26 17 -7 17 -8 -2 -15 -19 -7
-19 -7 4 -19 22 -12 22 -14 7 -29 -13 -13 -20 -14 -34 -5 -12 7 -24 8 -36 1
-11 -6 -22 -6 -31 2 -10 9 -19 9 -35 0 -16 -8 -25 -8 -35 0 -10 8 -19 8 -33
-1 -39 -24 -72 32 -37 61 13 10 19 10 35 -5 19 -18 20 -17 20 3 0 24 14 29 26
11 4 -8 10 -5 18 7 10 17 11 15 14 -14 l3 -33 19 23z m-320 9 c0 -5 -9 -12
-19 -16 -29 -9 -43 -31 -36 -55 9 -29 23 -25 17 5 -3 18 0 25 12 25 9 0 17 -7
18 -15 0 -8 1 -21 2 -27 1 -7 5 -16 10 -19 5 -4 -1 -12 -13 -18 -14 -8 -21 -8
-21 -1 0 5 -7 10 -15 10 -8 0 -15 -7 -15 -16 0 -8 -4 -12 -10 -9 -5 3 -7 19
-3 35 5 30 -10 42 -21 18 -3 -7 -3 -2 0 12 9 40 94 104 94 71z m78 -78 c2 -13
-1 -23 -7 -23 -6 0 -11 9 -11 20 0 11 -4 20 -10 20 -5 0 -10 -9 -10 -20 0 -24
-15 -26 -24 -3 -8 19 11 34 39 31 12 -2 21 -12 23 -25z"/>
<path d="M1828 4027 c-3 -15 -2 -30 3 -32 13 -9 19 12 11 36 -9 23 -9 23 -14
-4z"/>
<path d="M2002 4058 c2 -13 8 -23 13 -23 6 0 11 10 13 23 2 15 -2 22 -13 22
-11 0 -15 -7 -13 -22z"/>
<path d="M720 3560 c0 -113 1 -120 20 -120 11 0 20 3 20 8 1 28 2 209 1 220
-1 6 -10 12 -21 12 -19 0 -20 -7 -20 -120z"/>
<path d="M1276 3584 c-10 -74 -8 -84 15 -84 19 0 20 4 14 58 -9 74 -21 85 -29
26z"/>
<path d="M1464 3667 c-3 -9 -4 -28 -2 -44 2 -20 8 -28 23 -28 17 0 20 7 20 40
0 30 -4 41 -18 43 -9 2 -20 -3 -23 -11z"/>
<path d="M1460 3489 c0 -49 1 -50 28 -47 29 3 39 29 28 74 -5 17 -13 24 -31
24 -23 0 -25 -3 -25 -51z"/>
<path d="M2007 3673 c-3 -5 -6 -59 -6 -120 l-2 -113 24 0 c14 0 28 7 31 16 11
29 7 199 -6 212 -14 14 -35 16 -41 5z"/>
<path d="M2219 3625 c-4 -5 -10 -36 -13 -67 -7 -54 -6 -58 13 -58 23 0 25 12
13 90 -4 25 -10 41 -13 35z"/>
<path d="M2400 3559 c0 -119 0 -120 23 -117 21 3 22 8 25 112 2 81 -1 112 -10
118 -34 21 -38 10 -38 -113z"/>
<path d="M2219 3189 c-17 -17 -19 -35 -19 -188 0 -164 1 -170 22 -185 19 -13
25 -14 43 -2 19 12 20 25 23 177 1 90 0 174 -3 185 -7 30 -42 37 -66 13z"/>
<path d="M537 3113 c1 -102 4 -118 19 -121 27 -6 34 17 34 115 0 106 -4 123
-34 123 -20 0 -21 -3 -19 -117z"/>
<path d="M1865 2500 c-7 -12 2 -30 16 -30 12 0 12 27 0 35 -5 3 -12 1 -16 -5z"/>
<path d="M2015 2390 c-6 -10 0 -13 40 -23 11 -3 28 -8 38 -12 10 -4 17 -3 17
4 0 19 -85 47 -95 31z"/>
<path d="M1959 2317 c-21 -14 -39 -37 -47 -61 -11 -34 -10 -43 5 -75 25 -49
71 -74 119 -65 105 20 126 162 31 207 -47 23 -68 21 -108 -6z"/>
<path d="M1872 2307 c-18 -21 -29 -93 -14 -83 7 4 12 17 12 30 0 12 5 27 11
33 6 6 9 17 7 23 -3 9 -7 8 -16 -3z"/>
<path d="M2170 2215 c0 -11 -7 -33 -15 -49 -17 -33 -18 -36 -6 -36 16 0 43 82
32 93 -8 8 -11 5 -11 -8z"/>
<path d="M1920 2091 c0 -18 82 -42 90 -26 3 6 -6 12 -20 13 -14 2 -29 8 -34
13 -13 12 -36 12 -36 0z"/>
<path d="M1505 2019 c-22 -4 -53 -12 -69 -18 l-28 -11 26 -35 c14 -19 37 -50
51 -69 20 -27 30 -32 51 -28 21 4 33 19 60 76 18 39 30 74 26 77 -13 11 -76
16 -117 8z"/>
<path d="M1680 1969 c0 -10 -32 -89 -49 -119 -6 -11 -2 -24 11 -39 18 -23 21
-24 94 -13 42 5 78 13 82 17 10 10 -39 96 -76 132 -32 32 -62 43 -62 22z m50
-109 c7 -14 7 -20 0 -20 -5 0 -10 6 -10 14 0 8 -6 17 -12 19 -10 4 -10 6 -1 6
7 1 17 -8 23 -19z m-47 -5 c-3 -9 -8 -14 -10 -11 -3 3 -2 9 2 15 9 16 15 13 8
-4z"/>
<path d="M1515 1770 c-15 -17 -16 -24 -7 -45 15 -32 55 -34 76 -3 32 45 -31
89 -69 48z"/>
<path d="M1717 1733 c-36 -3 -51 -10 -63 -28 -15 -23 -14 -27 28 -87 24 -34
46 -67 51 -73 16 -22 80 84 92 153 l7 42 -34 -2 c-18 -1 -54 -3 -81 -5z"/>
<path d="M1370 1693 c-19 -2 -49 -6 -67 -8 l-31 -6 16 -42 c9 -23 39 -64 66
-92 l48 -50 29 64 c36 79 45 111 30 111 -6 0 -11 7 -11 15 0 15 -6 16 -80 8z
m45 -63 c-10 -11 -22 -20 -28 -20 -5 0 1 9 14 20 31 25 37 25 14 0z"/>
<path d="M1554 1633 c-16 -3 -31 -24 -54 -79 -18 -41 -31 -77 -28 -79 2 -3 25
-8 50 -11 43 -6 46 -5 64 25 15 25 25 31 51 31 18 0 33 -4 33 -10 0 -5 5 -10
10 -10 6 0 -13 32 -42 70 -29 39 -55 69 -58 69 -3 -1 -15 -4 -26 -6z m21 -93
c3 -5 1 -10 -4 -10 -6 0 -11 5 -11 10 0 6 2 10 4 10 3 0 8 -4 11 -10z"/>
<path d="M1470 1274 c0 -17 22 -14 28 4 2 7 -3 12 -12 12 -9 0 -16 -7 -16 -16z"/>
<path d="M960 2124 c0 -22 3 -24 23 -18 32 9 33 12 11 29 -27 21 -34 18 -34
-11z"/>
<path d="M1042 2138 c-9 -9 -5 -15 18 -24 16 -7 38 -27 48 -43 14 -23 21 -28
30 -19 18 18 14 38 -6 38 -21 0 -52 29 -52 48 0 15 -23 15 -38 0z"/>
<path d="M930 2077 c-35 -15 -34 -15 -20 -32 17 -20 30 -19 30 3 0 10 5 23 12
30 14 14 11 14 -22 -1z"/>
<path d="M995 2056 c-44 -44 2 -104 60 -78 33 15 35 64 3 86 -30 21 -35 20
-63 -8z"/>
<path d="M1101 2024 c0 -11 3 -14 6 -6 3 7 2 16 -1 19 -3 4 -6 -2 -5 -13z"/>
<path d="M977 1969 c12 -12 24 -21 27 -18 2 2 -8 13 -22 23 l-27 19 22 -24z"/>
<path d="M1069 1963 c-13 -16 -12 -17 4 -4 9 7 17 15 17 17 0 8 -8 3 -21 -13z"/>
<path d="M530 1735 c0 -8 7 -15 15 -15 8 0 15 7 15 15 0 8 -7 15 -15 15 -8 0
-15 -7 -15 -15z"/>
<path d="M1875 1332 c-41 -26 -55 -45 -61 -84 -6 -43 24 -93 70 -115 31 -14
39 -15 72 -2 94 36 103 143 17 200 -35 24 -60 24 -98 1z m107 -42 c25 -26 29
-36 24 -63 -7 -39 -48 -77 -82 -77 -34 0 -84 51 -84 85 0 16 12 38 29 56 39
38 74 38 113 -1z"/>
<path d="M1900 1256 c-27 -33 18 -72 48 -42 13 13 14 20 6 34 -15 23 -38 26
-54 8z"/>
<path d="M1275 1305 c-32 -31 -31 -48 1 -74 33 -26 49 -26 74 -1 26 26 25 50
0 78 -27 28 -45 28 -75 -3z m63 -7 c28 -28 1 -75 -37 -63 -11 3 -23 15 -26 26
-12 38 35 65 63 37z"/>
<path d="M1302 1276 c1 -10 8 -17 13 -17 15 1 12 24 -3 29 -9 3 -13 -2 -10
-12z"/>
<path d="M310 786 c0 -8 5 -18 11 -21 5 -4 9 -17 8 -28 -2 -37 1 -48 11 -42 6
3 10 28 10 56 0 42 -3 49 -20 49 -11 0 -20 -6 -20 -14z"/>
<path d="M390 785 c0 -8 5 -15 10 -15 6 0 10 -18 10 -40 0 -22 5 -40 10 -40 6
0 10 25 10 55 0 48 -2 55 -20 55 -11 0 -20 -7 -20 -15z"/>
<path d="M475 769 c-8 -25 -1 -34 20 -26 19 8 20 47 1 47 -8 0 -18 -9 -21 -21z"/>
<path d="M450 660 c0 -8 -3 -25 -6 -37 -5 -17 -2 -23 10 -23 18 0 22 36 6 60
-9 13 -10 13 -10 0z"/>
<path d="M300 630 c0 -16 5 -30 10 -30 6 0 10 14 10 30 0 17 -4 30 -10 30 -5
0 -10 -13 -10 -30z"/>
<path d="M340 631 c0 -34 17 -50 26 -26 6 14 9 14 31 0 14 -9 28 -14 31 -10 4
3 0 10 -7 14 -8 5 -11 17 -6 30 6 19 4 20 -19 11 -17 -6 -26 -6 -26 0 0 6 -7
10 -15 10 -10 0 -15 -10 -15 -29z"/>
<path d="M482 628 c2 -18 8 -33 13 -33 6 0 11 15 13 33 3 24 -1 32 -13 32 -12
0 -16 -8 -13 -32z"/>
<path d="M670 796 c0 -17 25 -27 46 -19 14 5 12 8 -7 19 -31 17 -39 17 -39 0z"/>
<path d="M902 793 c2 -9 11 -17 21 -19 21 -3 22 3 3 22 -19 19 -28 18 -24 -3z"/>
<path d="M745 791 c-12 -12 -3 -22 10 -11 10 9 15 9 15 1 0 -15 12 -14 35 3
18 13 17 14 -18 13 -21 -1 -40 -3 -42 -6z"/>
<path d="M836 791 c-3 -5 3 -11 14 -14 13 -3 20 0 20 9 0 15 -26 19 -34 5z"/>
<path d="M963 793 c-10 -4 -9 -8 2 -20 12 -12 19 -13 30 -3 8 7 24 10 35 7 12
-3 20 0 20 7 0 11 -62 18 -87 9z"/>
<path d="M1070 788 c0 -12 9 -16 34 -15 23 1 32 5 29 13 -6 15 -43 14 -43 -1
0 -5 -5 -3 -10 5 -8 13 -10 13 -10 -2z"/>
<path d="M737 714 c-13 -14 -7 -32 13 -37 23 -6 25 2 7 27 -7 9 -16 14 -20 10z"/>
<path d="M960 701 c0 -27 11 -32 46 -22 26 8 27 9 9 15 -11 4 -28 12 -37 17
-14 7 -18 5 -18 -10z"/>
<path d="M1065 706 c-25 -27 -22 -31 26 -30 27 1 49 -2 49 -7 0 -5 7 -9 15 -9
8 0 15 5 15 10 0 6 -6 10 -14 10 -8 0 -16 5 -18 10 -2 6 -14 12 -28 12 -14 1
-27 5 -30 9 -3 4 -10 2 -15 -5z"/>
<path d="M780 695 c0 -8 2 -15 4 -15 2 0 6 7 10 15 3 8 1 15 -4 15 -6 0 -10
-7 -10 -15z"/>
<path d="M670 685 c0 -8 5 -15 10 -15 6 0 10 7 10 15 0 8 -4 15 -10 15 -5 0
-10 -7 -10 -15z"/>
<path d="M837 693 c-14 -13 -6 -20 22 -20 24 0 27 3 16 14 -15 14 -28 17 -38
6z"/>
<path d="M890 695 c0 -2 9 -9 20 -15 16 -9 20 -8 20 5 0 8 -9 15 -20 15 -11 0
-20 -2 -20 -5z"/>
<path d="M1180 690 c0 -5 7 -10 15 -10 8 0 15 5 15 10 0 6 -7 10 -15 10 -8 0
-15 -4 -15 -10z"/>
<path d="M1231 684 c0 -11 3 -14 6 -6 3 7 2 16 -1 19 -3 4 -6 -2 -5 -13z"/>
<path d="M1251 684 c0 -11 3 -14 6 -6 3 7 2 16 -1 19 -3 4 -6 -2 -5 -13z"/>
<path d="M1272 689 c2 -7 10 -15 17 -17 8 -3 12 1 9 9 -2 7 -10 15 -17 17 -8
3 -12 -1 -9 -9z"/>
<path d="M1097 614 c-4 -4 -7 -14 -7 -23 0 -11 3 -12 11 -4 6 6 10 16 7 23 -2
6 -7 8 -11 4z"/>
<path d="M1143 606 c-6 -7 -8 -18 -5 -23 9 -13 55 -11 64 2 14 18 8 26 -12 20
-11 -4 -20 -2 -20 4 0 15 -12 13 -27 -3z"/>
<path d="M1310 606 c0 -8 5 -18 10 -21 6 -3 10 1 10 9 0 8 -4 18 -10 21 -5 3
-10 -1 -10 -9z"/>
<path d="M730 595 c0 -13 7 -15 35 -9 30 5 35 3 35 -12 0 -14 3 -15 12 -6 7 7
29 12 50 12 21 0 38 4 38 9 0 13 -28 22 -35 10 -4 -5 -12 -6 -18 -2 -6 4 -35
8 -64 10 -43 3 -53 0 -53 -12z"/>
<path d="M917 603 c-4 -3 -7 -11 -7 -17 0 -6 5 -5 12 2 6 6 9 14 7 17 -3 3 -9
2 -12 -2z"/>
<path d="M940 596 c0 -7 19 -11 53 -10 79 2 87 3 87 12 0 4 -31 8 -70 8 -46 1
-70 -2 -70 -10z"/>
<path d="M1240 595 c0 -12 6 -15 21 -10 14 5 25 2 31 -6 7 -11 8 -9 6 5 -4 25
-58 35 -58 11z"/>
<path d="M1373 603 c-20 -7 -15 -23 7 -23 11 0 20 -4 20 -10 0 -5 5 -10 10
-10 6 0 10 9 10 19 0 11 -4 23 -10 26 -5 3 -10 0 -10 -7 0 -9 -3 -9 -8 -2 -4
6 -13 9 -19 7z"/>
<path d="M1463 603 c-7 -2 -13 -11 -13 -19 0 -16 42 -4 48 14 4 12 -13 15 -35
5z"/>
<path d="M1514 594 c3 -9 6 -18 6 -20 0 -3 4 -3 10 1 11 7 2 35 -12 35 -6 0
-7 -7 -4 -16z"/>
<path d="M670 585 c0 -8 5 -15 10 -15 6 0 10 7 10 15 0 8 -4 15 -10 15 -5 0
-10 -7 -10 -15z"/>
<path d="M2695 670 c-7 -12 2 -30 16 -30 12 0 12 27 0 35 -5 3 -12 1 -16 -5z"/>
<path d="M2757 674 c-9 -10 4 -34 19 -34 8 0 14 9 14 20 0 19 -19 27 -33 14z"/>
<path d="M2830 670 c-12 -7 -12 -12 -2 -22 9 -9 15 -9 24 0 16 16 -2 34 -22
22z"/>
</g>
</svg>
