<?xml version="1.0" standalone="no"?>
<!DOCTYPE svg PUBLIC "-//W3C//DTD SVG 20010904//EN"
 "http://www.w3.org/TR/2001/REC-SVG-20010904/DTD/svg10.dtd">
<svg version="1.0" xmlns="http://www.w3.org/2000/svg"
 width="512.000000pt" height="512.000000pt" viewBox="0 0 512.000000 512.000000"
 preserveAspectRatio="xMidYMid meet">

<g transform="translate(0.000000,512.000000) scale(0.100000,-0.100000)"
fill="#000000" stroke="none">
<path d="M4275 5102 c-93 -24 -155 -53 -229 -106 -33 -25 -766 -750 -1628
-1613 -1377 -1378 -1568 -1573 -1577 -1608 -5 -22 -66 -261 -135 -531 -70
-271 -126 -502 -126 -515 1 -41 37 -108 71 -128 67 -41 78 -39 412 65 172 53
395 122 497 154 102 31 199 64 215 73 17 8 742 728 1611 1599 l1582 1583 41
85 c22 47 48 112 56 145 20 78 19 240 -1 319 -57 224 -229 403 -454 471 -84
25 -250 29 -335 7z m287 -330 c70 -31 141 -102 173 -173 22 -49 27 -76 27
-133 -1 -118 -36 -188 -156 -306 l-66 -65 -240 240 -240 240 68 68 c82 82 127
115 195 139 67 24 173 20 239 -10z m-1595 -2250 l-1349 -1349 -321 -100 c-177
-55 -323 -99 -325 -98 -2 2 35 155 83 342 l86 338 1347 1347 1347 1348 240
-240 240 -240 -1348 -1348z"/>
<path d="M123 299 c-57 -28 -83 -72 -83 -140 0 -66 28 -111 86 -139 40 -20 60
-20 1732 -18 l1691 3 28 21 c98 73 98 195 0 268 l-28 21 -1692 3 -1692 2 -42
-21z"/>
</g>
</svg>
