<?xml version="1.0" standalone="no"?>
<!DOCTYPE svg PUBLIC "-//W3C//DTD SVG 20010904//EN"
 "http://www.w3.org/TR/2001/REC-SVG-20010904/DTD/svg10.dtd">
<svg version="1.0" xmlns="http://www.w3.org/2000/svg"
 width="500.000000pt" height="500.000000pt" viewBox="0 0 500.000000 500.000000"
 preserveAspectRatio="xMidYMid meet">

<g transform="translate(0.000000,500.000000) scale(0.100000,-0.100000)"
fill="#000000" stroke="none">
<path d="M3521 4725 c-166 -47 -239 -220 -152 -357 36 -57 76 -88 199 -152 83
-44 97 -55 97 -76 0 -22 -4 -25 -40 -25 -40 0 -53 13 -69 68 -5 16 -17 17
-113 15 l-108 -3 1 -61 c2 -139 117 -234 284 -234 200 0 326 142 276 313 -20
69 -71 117 -189 178 -113 58 -137 76 -137 104 0 37 55 49 83 17 10 -10 17 -27
17 -38 0 -36 20 -44 114 -44 50 0 97 4 105 9 19 12 16 90 -5 139 -21 51 -78
107 -134 131 -65 28 -162 35 -229 16z m245 -51 c65 -40 103 -95 111 -162 l6
-52 -97 0 c-94 0 -96 1 -96 23 0 65 -108 92 -139 35 -14 -25 -14 -29 5 -55 11
-15 67 -53 123 -83 177 -96 206 -132 199 -250 -7 -132 -94 -202 -251 -204 -98
0 -146 15 -199 62 -50 45 -66 76 -70 138 l-3 49 93 3 c76 2 92 0 92 -12 0 -33
24 -66 56 -76 42 -14 70 -6 90 26 15 22 15 26 0 49 -9 14 -49 41 -89 61 -113
57 -173 101 -206 151 -57 86 -37 217 42 277 62 48 95 57 193 53 82 -2 97 -6
140 -33z"/>
<path d="M4149 4727 c-62 -18 -129 -59 -157 -96 -46 -62 -52 -101 -52 -310 0
-234 8 -270 79 -341 115 -114 349 -105 450 17 54 65 63 117 59 346 -3 225 -9
246 -80 314 -69 67 -201 97 -299 70z m211 -38 c55 -25 95 -62 123 -114 21 -37
22 -54 22 -255 0 -201 -1 -218 -21 -255 -28 -51 -68 -91 -119 -118 -32 -17
-58 -21 -130 -22 -81 0 -95 3 -144 30 -30 17 -67 47 -82 68 -42 59 -51 119
-47 327 3 167 5 189 25 225 49 92 127 135 248 135 59 0 92 -6 125 -21z"/>
<path d="M4192 4543 c-34 -13 -42 -60 -42 -233 l0 -172 29 -29 c36 -36 70 -37
108 -5 l28 24 3 158 c4 181 0 216 -30 244 -21 19 -66 25 -96 13z m80 -30 c16
-14 18 -34 18 -193 0 -126 -4 -181 -12 -192 -21 -27 -53 -30 -79 -9 -24 19
-24 22 -24 194 0 158 2 177 19 196 23 25 53 27 78 4z"/>
<path d="M423 4723 c-10 -3 -13 -72 -13 -297 0 -328 5 -363 64 -433 53 -61
122 -88 226 -88 104 0 173 27 226 88 59 70 64 105 64 433 0 257 -2 293 -16
298 -29 11 -199 7 -212 -6 -9 -9 -12 -89 -12 -298 0 -306 -1 -310 -50 -310
-49 0 -50 4 -50 310 0 209 -3 289 -12 298 -12 12 -188 16 -215 5z m199 -308
c3 -278 4 -285 25 -306 13 -14 34 -22 53 -22 19 0 40 8 53 22 21 21 22 28 25
306 l3 285 95 0 95 0 -3 -297 -3 -298 -30 -54 c-94 -171 -373 -172 -469 -1
l-31 55 -3 298 -4 297 96 0 95 0 3 -285z"/>
<path d="M1463 4719 c-7 -7 18 -124 87 -398 53 -213 100 -393 104 -399 5 -8
45 -12 122 -12 109 0 115 1 124 23 5 12 53 192 106 401 77 305 93 380 83 387
-23 14 -215 11 -227 -3 -5 -7 -25 -97 -43 -200 -18 -104 -35 -188 -38 -188 -4
0 -22 86 -40 191 -27 149 -38 192 -52 200 -24 13 -212 12 -226 -2z m261 -236
c37 -211 51 -258 66 -232 4 6 25 110 46 230 l39 219 97 0 c66 0 98 -4 98 -11
0 -9 -113 -458 -181 -721 l-10 -38 -104 0 c-58 0 -105 2 -105 4 0 3 -43 173
-95 379 -52 205 -95 377 -95 380 0 4 46 7 103 7 l102 0 39 -217z"/>
<path d="M2142 4718 c-14 -14 -17 -774 -4 -796 7 -9 67 -12 268 -10 l259 3 3
96 c3 116 14 109 -170 109 l-128 0 0 50 0 50 85 0 c99 0 105 5 105 97 0 104 1
103 -101 103 l-89 0 0 50 0 49 148 3 147 3 3 94 c2 69 -1 97 -10 103 -22 13
-502 10 -516 -4z m508 -93 l0 -75 -134 0 c-74 0 -141 -3 -150 -6 -12 -5 -16
-21 -16 -75 l0 -69 90 0 90 0 0 -80 0 -80 -90 0 -91 0 3 -72 3 -73 148 -3 147
-3 0 -79 0 -80 -245 0 -245 0 0 385 0 385 245 0 245 0 0 -75z"/>
<path d="M2722 4717 c-9 -11 -12 -114 -10 -408 l3 -394 109 -3 c81 -2 112 1
118 10 4 7 8 76 8 152 0 92 3 137 10 130 5 -5 31 -72 57 -149 l48 -140 113 -3
c91 -2 113 0 118 12 3 8 -19 81 -50 161 -31 81 -56 151 -56 156 0 5 18 27 39
50 49 50 66 95 65 179 -1 110 -50 190 -144 234 -40 18 -67 21 -231 24 -152 3
-187 1 -197 -11z m446 -50 c68 -45 96 -97 100 -186 4 -92 -10 -131 -69 -188
l-41 -41 32 -83 c18 -46 45 -119 61 -161 l28 -78 -98 0 -99 0 -49 147 c-50
150 -68 178 -97 154 -13 -11 -16 -38 -16 -157 l0 -144 -95 0 -95 0 0 386 0
385 198 -3 c198 -3 199 -3 240 -31z"/>
<path d="M2936 4537 c-14 -10 -16 -25 -14 -82 l3 -70 55 -3 c69 -4 100 19 100
74 0 50 -15 72 -58 84 -49 13 -65 13 -86 -3z m106 -34 c43 -39 10 -103 -54
-103 l-38 0 0 60 0 60 37 0 c20 0 45 -7 55 -17z"/>
<path d="M1032 4338 c-16 -16 -16 -170 0 -186 8 -8 67 -12 200 -12 218 0 208
-5 208 109 0 103 4 101 -214 101 -128 0 -186 -4 -194 -12z m378 -93 l0 -75
-180 0 -180 0 0 75 0 75 180 0 180 0 0 -75z"/>
<path d="M3655 3619 c-188 -53 -201 -56 -225 -34 -14 13 -31 10 -145 -20 -72
-19 -131 -39 -133 -43 -12 -37 -42 -48 -338 -126 l-309 -83 -3 -491 c-1 -271
1 -492 5 -492 5 0 55 9 113 21 134 26 436 37 535 20 78 -14 159 -49 200 -87
42 -39 22 -39 -35 0 -78 54 -135 68 -301 73 -152 6 -280 -5 -429 -35 l-85 -17
-3 -56 -3 -56 68 13 c115 23 298 28 380 11 40 -9 88 -13 108 -10 49 8 85 -17
85 -60 0 -18 -7 -42 -15 -53 -8 -10 -15 -26 -15 -35 0 -29 -59 -98 -123 -145
-106 -79 -286 -158 -434 -194 l-53 -12 0 -42 c0 -42 1 -42 30 -38 17 2 30 0
30 -6 0 -5 -13 -12 -30 -16 -30 -5 -30 -6 -30 -76 0 -38 4 -70 8 -70 19 0 217
55 329 91 464 151 840 375 972 579 41 62 41 64 41 157 l0 93 -40 44 c-99 107
-302 166 -572 166 -96 0 -138 3 -138 11 0 20 349 5 447 -20 112 -28 202 -71
257 -121 l46 -43 0 627 c0 495 -3 626 -12 625 -7 -1 -89 -23 -183 -50z m-625
-1019 c0 -10 -31 -16 -135 -26 -38 -3 -132 -17 -208 -30 -153 -27 -176 -29
-161 -15 11 12 207 48 354 66 135 16 150 17 150 5z m384 -467 c-23 -97 -111
-192 -263 -281 -58 -34 -111 -62 -118 -62 -26 0 -12 17 35 39 145 70 289 194
312 269 6 20 13 43 15 50 9 25 25 12 19 -15z m-474 -381 c0 -18 -209 -97 -222
-84 -5 5 27 22 79 41 48 17 95 36 103 41 19 12 40 13 40 2z"/>
<path d="M1050 2436 l0 -1226 28 -14 c37 -19 138 -45 241 -62 46 -7 86 -16 89
-19 32 -31 -234 15 -340 60 -17 7 -18 -6 -18 -194 0 -152 3 -203 13 -206 6 -3
300 -59 652 -125 352 -66 652 -123 668 -126 l27 -6 0 324 0 324 -162 -28 c-89
-14 -215 -31 -279 -37 -151 -14 -332 -14 -324 -1 3 5 41 10 84 10 159 0 571
47 664 76 15 5 17 19 17 118 l0 112 -77 -12 c-93 -15 -133 -17 -133 -6 0 5 39
14 88 21 131 19 122 12 122 92 l0 70 -77 -8 c-43 -4 -141 -8 -218 -7 -157 1
-225 19 -290 76 -37 31 -61 89 -50 116 5 12 11 5 21 -30 17 -56 52 -88 131
-119 53 -21 73 -23 223 -22 91 0 185 5 210 10 44 8 45 10 48 49 l3 40 -128 0
c-117 -1 -132 1 -178 24 -36 18 -55 36 -68 63 -18 37 -18 38 3 82 12 24 38 58
59 74 50 40 171 104 249 131 59 22 62 24 62 56 l0 33 -52 -16 c-181 -53 -389
-163 -484 -255 -23 -22 -44 -35 -48 -30 -9 15 92 101 184 156 95 56 230 116
329 147 l71 21 0 54 c0 30 -2 54 -5 54 -20 0 -162 -46 -280 -90 -347 -129
-629 -320 -691 -467 -20 -48 -18 -132 5 -169 62 -102 227 -152 519 -159 85 -2
156 -6 159 -9 26 -26 -295 -17 -433 13 -115 24 -194 61 -238 112 -86 101 -62
224 70 355 157 154 469 315 796 411 l98 28 0 89 0 88 -35 -6 c-46 -9 -46 9 0
24 l35 12 0 392 0 393 -37 11 c-42 12 -1251 337 -1296 347 l-27 7 0 -1226z
m1260 35 c0 -5 -46 -24 -102 -41 -143 -44 -306 -102 -418 -148 -92 -39 -95
-41 -98 -75 -6 -69 -87 -104 -135 -59 l-23 21 -108 -60 c-111 -61 -201 -119
-267 -171 -43 -33 -72 -38 -44 -8 26 29 195 140 313 205 86 48 102 61 102 81
0 57 78 93 127 59 20 -14 31 -11 155 39 74 30 195 75 269 99 219 72 229 74
229 58z m-750 -1371 c0 -5 -11 -10 -25 -10 -14 0 -25 5 -25 10 0 6 11 10 25
10 14 0 25 -4 25 -10z"/>
<path d="M1570 2250 c-25 -25 -26 -62 -2 -83 39 -35 102 -9 102 41 0 28 -34
62 -60 62 -11 0 -29 -9 -40 -20z"/>
<path d="M800 2120 c0 -979 3 -1420 10 -1420 6 0 74 -7 152 -16 77 -8 142 -13
145 -11 2 3 -20 8 -49 12 -95 13 -88 -9 -88 283 l0 257 -53 46 c-73 64 -102
125 -102 214 0 59 5 81 33 137 18 37 53 94 77 126 l45 60 0 851 0 851 -22 5
c-80 18 -115 25 -130 25 -17 0 -18 -74 -18 -1420z"/>
<path d="M4005 3526 l-60 -11 -3 -879 -2 -878 32 19 c77 45 76 45 71 77 -5 34
27 86 53 86 12 0 14 114 14 800 l0 800 -22 -1 c-13 -1 -50 -6 -83 -13z"/>
<path d="M617 3213 c-4 -3 -7 -593 -7 -1310 l0 -1303 133 1 c125 1 128 2 63
10 -38 5 -75 14 -83 20 -11 10 -13 237 -13 1300 l0 1289 -43 0 c-24 0 -47 -3
-50 -7z"/>
<path d="M4200 2573 l0 -646 28 24 c15 13 42 37 60 53 l32 30 0 593 0 593 -60
0 -60 0 0 -647z"/>
<path d="M340 1750 l0 -1350 918 -2 917 -3 20 -42 c48 -100 126 -145 251 -146
69 -1 89 3 137 27 58 28 99 70 112 116 4 14 12 31 17 38 8 9 210 12 949 12
l939 0 0 975 c0 643 -3 975 -10 975 -5 0 -10 -4 -10 -9 0 -19 -77 -144 -121
-198 l-48 -58 -1 -776 c0 -589 -3 -778 -12 -787 -9 -9 -163 -12 -632 -12 -621
0 -621 0 -906 -30 -157 -17 -311 -38 -342 -47 -53 -15 -63 -15 -135 1 -43 9
-201 30 -351 46 -273 30 -276 30 -875 30 -362 0 -608 4 -617 10 -13 8 -15 165
-18 1295 l-2 1285 -90 0 -90 0 0 -1350z"/>
<path d="M4410 2609 l0 -491 45 54 c92 110 143 244 130 345 -4 35 -3 53 4 53
8 0 11 78 9 263 l-3 262 -92 3 -93 3 0 -492z"/>
<path d="M2634 2196 c-132 -22 -134 -22 -134 -57 l0 -30 53 8 c99 15 259 10
294 -10 74 -40 78 -91 15 -158 -65 -68 -170 -120 -319 -159 -36 -9 -43 -15
-43 -36 0 -29 3 -29 159 22 181 60 364 169 411 247 25 40 25 47 0 47 -12 0
-32 12 -47 26 -19 20 -24 32 -19 54 5 27 2 30 -32 40 -60 17 -248 21 -338 6z"/>
<path d="M3035 2166 c-13 -19 -14 -29 -6 -45 25 -45 91 -33 91 17 0 54 -56 72
-85 28z"/>
<path d="M3815 2099 c-133 -180 -438 -375 -813 -518 -93 -35 -455 -141 -483
-141 -17 0 -19 -10 -19 -115 0 -63 3 -115 8 -115 4 1 34 7 67 15 70 17 99 19
90 5 -3 -5 -42 -17 -85 -26 l-80 -17 0 -327 0 -327 128 24 c70 13 372 70 672
126 l545 102 3 449 2 448 -64 -35 c-193 -107 -565 -259 -831 -341 -156 -48
-175 -52 -175 -37 0 4 28 16 63 26 255 70 563 188 825 316 l182 89 0 220 c0
121 -1 220 -2 220 -2 0 -16 -19 -33 -41z"/>
<path d="M2565 2096 c-39 -7 -61 -16 -63 -26 -2 -13 12 -15 101 -12 109 4 167
-11 167 -43 0 -20 -10 -19 -25 2 -15 20 -124 30 -200 19 l-45 -7 0 -114 0
-114 73 20 c148 40 292 130 312 196 8 30 -29 68 -81 82 -49 14 -160 12 -239
-3z"/>
<path d="M2345 2035 c-136 -51 -242 -117 -276 -172 -64 -104 48 -174 252 -158
l89 7 0 28 c0 27 -2 28 -42 27 -57 -3 -65 14 -10 18 24 2 46 5 48 8 3 2 3 63
2 135 l-3 130 -60 -23z m-35 -74 c0 -5 -12 -17 -27 -26 -40 -27 -73 -66 -73
-87 0 -11 13 -26 30 -36 16 -9 30 -20 30 -24 0 -15 -27 -8 -54 13 -46 36 -29
90 46 146 34 24 48 29 48 14z"/>
<path d="M4260 1953 c-45 -37 -55 -52 -56 -77 0 -17 -1 -297 -2 -622 -2 -687
7 -630 -107 -643 -62 -7 -53 -9 78 -10 l147 -1 0 700 c0 385 -1 700 -2 699 -2
0 -28 -21 -58 -46z"/>
<path d="M4083 1908 c-21 -27 -23 -51 -8 -74 24 -38 35 -28 35 31 0 54 -8 67
-27 43z"/>
<path d="M4002 1769 l-62 -39 0 -500 0 -500 -22 -14 c-13 -7 -70 -22 -127 -32
-58 -10 -100 -19 -94 -21 7 -3 96 5 200 16 103 12 194 21 201 21 9 0 12 114
12 539 l0 539 -23 15 c-22 14 -27 13 -85 -24z"/>
<path d="M932 1725 c-44 -54 -79 -128 -93 -196 -17 -85 6 -154 74 -222 l52
-52 3 128 c1 70 1 184 0 254 l-3 127 -33 -39z"/>
<path d="M3638 653 c6 -2 18 -2 25 0 6 3 1 5 -13 5 -14 0 -19 -2 -12 -5z"/>
</g>
</svg>
