<?xml version="1.0" standalone="no"?>
<!DOCTYPE svg PUBLIC "-//W3C//DTD SVG 20010904//EN"
 "http://www.w3.org/TR/2001/REC-SVG-20010904/DTD/svg10.dtd">
<svg version="1.0" xmlns="http://www.w3.org/2000/svg"
 width="500.000000pt" height="500.000000pt" viewBox="0 0 500.000000 500.000000"
 preserveAspectRatio="xMidYMid meet">

<g transform="translate(0.000000,500.000000) scale(0.100000,-0.100000)"
fill="#000000" stroke="none">
<path d="M830 2720 l0 -390 395 0 395 0 0 390 0 390 -395 0 -395 0 0 -390z
m347 30 c30 -80 56 -146 57 -148 2 -1 28 64 58 145 l56 148 37 3 c28 3 36 0
32 -10 -49 -124 -128 -320 -138 -341 -11 -24 -18 -28 -48 -25 l-35 3 -68 170
c-91 227 -87 207 -43 203 l37 -3 55 -145z"/>
<path d="M2500 2675 l0 -395 395 0 395 0 0 395 0 395 -395 0 -395 0 0 -395z
m485 169 c82 -39 96 -158 26 -217 l-30 -24 23 -34 c13 -19 31 -46 41 -61 l17
-28 -39 0 c-36 0 -40 3 -71 55 l-33 55 -55 0 -54 0 0 -55 0 -55 -35 0 -35 0 0
190 0 190 106 0 c76 0 115 -4 139 -16z"/>
<path d="M2812 2728 l3 -73 70 2 c58 1 72 5 87 23 18 23 24 66 10 86 -15 23
-52 34 -112 34 l-61 0 3 -72z"/>
<path d="M4210 2675 l0 -395 395 0 395 0 0 395 0 395 -395 0 -395 0 0 -395z
m489 165 c63 -32 111 -105 111 -170 0 -68 -64 -160 -126 -180 -44 -15 -120
-15 -159 0 -66 25 -125 110 -125 180 0 68 46 137 115 173 43 23 137 22 184 -3z"/>
<path d="M4543 2785 c-122 -53 -75 -245 60 -245 78 0 131 52 131 130 0 99 -95
157 -191 115z"/>
<path d="M0 2530 l0 -390 395 0 395 0 0 390 0 390 -395 0 -395 0 0 -390z m290
54 c0 -162 15 -193 95 -194 84 0 105 42 105 213 l0 107 30 0 30 0 0 -141 c0
-161 -11 -193 -76 -224 -47 -22 -136 -22 -176 2 -65 38 -73 59 -76 219 l-3
144 35 0 36 0 0 -126z"/>
<path d="M1670 2370 l0 -390 395 0 395 0 0 390 0 390 -395 0 -395 0 0 -390z
m540 150 l0 -30 -105 0 -105 0 0 -50 0 -50 95 0 95 0 0 -30 0 -30 -95 0 -95 0
0 -50 0 -50 110 0 110 0 0 -30 0 -30 -145 0 -145 0 0 190 0 190 140 0 140 0 0
-30z"/>
<path d="M3380 2370 l0 -390 395 0 395 0 0 390 0 390 -395 0 -395 0 0 -390z
m495 166 c37 -16 43 -31 23 -59 -12 -16 -16 -16 -66 0 -65 21 -107 11 -107
-27 0 -26 12 -35 107 -70 63 -24 88 -53 88 -102 0 -67 -55 -108 -145 -108 -55
0 -102 14 -139 42 -16 13 -17 18 -6 39 7 13 14 25 15 27 1 1 24 -9 50 -23 59
-31 108 -32 136 -4 18 18 19 23 6 42 -8 12 -42 30 -82 44 -80 27 -102 44 -110
87 -15 75 41 126 138 126 32 0 73 -7 92 -14z"/>
</g>
</svg>
