<?xml version="1.0" standalone="no"?>
<!DOCTYPE svg PUBLIC "-//W3C//DTD SVG 20010904//EN"
 "http://www.w3.org/TR/2001/REC-SVG-20010904/DTD/svg10.dtd">
<svg version="1.0" xmlns="http://www.w3.org/2000/svg"
 width="512.000000pt" height="512.000000pt" viewBox="0 0 512.000000 512.000000"
 preserveAspectRatio="xMidYMid meet">

<g transform="translate(0.000000,512.000000) scale(0.100000,-0.100000)"
fill="#000000" stroke="none">
<path d="M1825 5088 c-338 -34 -705 -186 -969 -401 -385 -314 -623 -746 -681
-1237 -19 -158 -19 -262 0 -420 69 -587 401 -1096 910 -1395 606 -357 1389
-333 1966 60 l77 52 137 -137 136 -137 -17 -52 c-22 -68 -14 -144 21 -209 35
-65 1102 -1131 1161 -1160 107 -54 225 -34 311 51 85 86 105 204 53 309 -15
29 -198 219 -568 591 -462 463 -556 552 -606 577 -64 32 -121 38 -190 19 l-39
-11 -133 133 -133 133 93 96 c247 255 409 558 484 910 87 402 31 833 -155
1205 -349 698 -1082 1101 -1858 1023z m518 -197 c334 -67 618 -220 863 -465
246 -247 397 -528 466 -868 19 -96 23 -144 23 -318 0 -174 -4 -222 -23 -318
-68 -335 -214 -612 -451 -855 -239 -245 -528 -404 -874 -479 -88 -19 -133 -22
-322 -23 -243 0 -334 13 -526 76 -501 164 -915 577 -1078 1077 -59 181 -76
295 -76 522 0 174 4 222 23 318 92 453 357 844 742 1094 201 131 415 212 665
253 134 21 427 14 568 -14z m1889 -4009 c533 -532 548 -548 548 -585 0 -54
-43 -97 -97 -97 -37 0 -53 15 -585 548 l-548 547 0 43 c0 59 33 92 92 92 l43
0 547 -548z"/>
<path d="M2025 4735 c-27 -26 -32 -63 -13 -98 19 -36 38 -44 117 -51 219 -20
463 -125 675 -290 289 -225 473 -556 492 -881 7 -126 18 -161 54 -180 43 -22
68 -18 101 14 26 26 29 36 29 91 0 87 -26 255 -56 358 -29 102 -114 283 -174
373 -145 215 -350 398 -590 528 -177 95 -399 161 -540 161 -62 0 -74 -3 -95
-25z"/>
</g>
</svg>
