<?xml version="1.0" standalone="no"?>
<!DOCTYPE svg PUBLIC "-//W3C//DTD SVG 20010904//EN"
 "http://www.w3.org/TR/2001/REC-SVG-20010904/DTD/svg10.dtd">
<svg version="1.0" xmlns="http://www.w3.org/2000/svg"
 width="1280.000000pt" height="1280.000000pt" viewBox="0 0 1280.000000 1280.000000"
 preserveAspectRatio="xMidYMid meet">
<metadata>
Created by potrace 1.16, written by Peter Selinger 2001-2019
</metadata>
<g transform="translate(0.000000,1280.000000) scale(0.100000,-0.100000)"
fill="#000000" stroke="none">
<path d="M7455 12739 c-644 -43 -1224 -202 -1800 -493 -455 -230 -825 -497
-1180 -851 -911 -909 -1406 -2142 -1372 -3415 30 -1076 422 -2093 1118 -2901
45 -52 157 -173 249 -270 l168 -176 -328 -328 -328 -328 -81 22 c-254 69 -444
19 -668 -173 -164 -141 -931 -895 -1594 -1567 -975 -989 -1134 -1158 -1180
-1255 -126 -264 -40 -610 199 -799 248 -197 587 -206 803 -22 218 186 1292
1241 1996 1960 809 826 838 858 882 992 48 146 46 290 -5 455 l-28 91 339 339
338 338 176 -118 c217 -145 327 -209 551 -319 1301 -641 2891 -622 4176 49
1080 563 1886 1507 2269 2655 153 457 232 915 242 1400 15 733 -156 1482 -493
2155 -455 909 -1173 1626 -2075 2072 -763 378 -1562 542 -2374 487z m665 -460
c465 -29 1028 -188 1490 -419 662 -332 1225 -831 1635 -1450 318 -479 537
-1019 640 -1574 40 -219 48 -371 42 -811 -8 -584 -39 -782 -192 -1240 -132
-395 -309 -745 -548 -1082 -552 -779 -1320 -1339 -2228 -1623 -446 -140 -664
-165 -1341 -157 -465 5 -509 10 -804 82 -589 145 -1100 383 -1559 726 -309
231 -641 564 -882 884 -375 498 -639 1107 -758 1749 -40 218 -48 367 -42 829
5 462 8 498 73 792 156 702 470 1322 944 1860 117 132 341 355 465 461 541
462 1171 768 1880 914 271 56 814 83 1185 59z m-4302 -8739 c69 -39 95 -94
100 -205 l4 -90 -1274 -1271 c-1218 -1215 -1387 -1380 -1478 -1440 -124 -82
-309 39 -310 202 0 46 5 59 45 113 69 94 177 204 1474 1504 l1216 1218 90 -3
c73 -3 98 -9 133 -28z"/>
<path d="M7250 11884 c-221 -34 -565 -136 -804 -239 -701 -300 -1368 -850
-1774 -1465 -127 -191 -304 -553 -393 -802 -101 -281 -179 -729 -179 -1021 0
-151 9 -185 67 -238 78 -74 149 -87 238 -45 113 53 131 104 160 448 8 103 22
227 30 275 109 633 435 1226 941 1713 147 142 297 261 492 391 476 317 920
490 1420 554 234 30 271 44 317 119 23 38 30 62 33 115 3 78 -18 124 -81 175
l-39 31 -166 2 c-107 1 -201 -4 -262 -13z"/>
</g>
</svg>
